<?xml version="1.0" encoding="utf-8"?>
<!-- Generator: Adobe Illustrator 22.0.1, SVG Export Plug-In . SVG Version: 6.00 Build 0)  -->
<svg version="1.1" id="Capa_1" xmlns="http://www.w3.org/2000/svg" xmlns:xlink="http://www.w3.org/1999/xlink" x="0px" y="0px"
	 viewBox="0 0 294 275" style="enable-background:new 0 0 294 275;" xml:space="preserve">
<style type="text/css">
	.st1{fill:#1A2C66;}
	.st0{fill:#000000;}
</style>
<g>
	<g>
		<path class="st0" d="M21,207.9h6.5l11.9,33.4h-7.1l-2.5-7.2H18.4l-2.4,7.2H9.1L21,207.9z M27.8,228l-3.6-10.8L20.5,228H27.8z"/>
		<path class="st0" d="M41,238.3l2.9-4.7c2.3,1.8,4.7,2.8,6.8,2.8c1.9,0,2.7-0.9,2.7-1.9v-0.1c0-1.5-1.9-2.1-4.6-3.3
			c-3.6-1.6-6.7-3.4-6.7-7.7v-0.1c0-4.9,3.8-7.8,8.7-7.8c2.7,0,5.8,0.9,8.4,2.7l-2.7,4.8c-1.9-1.2-4-2.2-5.8-2.2
			c-1.6,0-2.5,0.8-2.5,1.8v0.1c0,1.3,1.9,2.1,4.6,3.3c3.7,1.8,6.7,3.6,6.7,7.6v0.1c0,5.3-3.9,7.9-9,7.9
			C47.6,241.8,44.1,240.8,41,238.3z"/>
		<path class="st0" d="M62.4,234v-0.3c0-5.6,3.6-8.1,8.9-8.1c2.1,0,3.7,0.4,5.3,1v-0.8c0-2.9-1.8-4.5-4.8-4.5
			c-2.4,0-4.3,0.8-5.8,1.4l-1.8-5.3c2.5-1.2,5-2,8.7-2c3.5,0,6.1,0.9,7.7,2.6c1.8,1.8,2.6,4.4,2.6,7.7v15.4h-6.6v-2.7
			c-1.5,2-3.6,3.2-6.6,3.2C65.7,241.8,62.4,239,62.4,234z M76.6,232.9v-2.1c-1-0.5-2.4-0.8-3.7-0.8c-2.5,0-4,1.2-4,3.6v0.1
			c0,2.1,1.3,3.1,3.3,3.2C74.7,236.9,76.6,235.3,76.6,232.9z"/>
		<path class="st0" d="M88.2,215.9H95v3.4c1.5-2.1,3.4-3.9,6.6-3.9c2.9,0,5.1,1.4,6.3,3.7c1.8-2.2,4.1-3.7,7.2-3.7
			c4.5,0,7.5,2.9,7.5,8.5v17.3h-6.7V226c0-2.9-1.3-4.5-3.5-4.5s-3.6,1.6-3.6,4.5v15.3H102V226c0-2.9-1.2-4.5-3.5-4.5
			c-2.2,0-3.6,1.6-3.6,4.5v15.3h-6.7C88.2,241.3,88.2,215.9,88.2,215.9z"/>
		<path class="st0" d="M134.6,238v3.3h-6.7v-34.2h6.7v12.3c1.5-2.1,3.5-4,6.9-4c5,0,9.7,4.1,9.7,12.8v0.8c0,8.7-4.6,12.8-9.7,12.8
			C138,241.8,136,239.9,134.6,238z M144.4,228.8v-0.5c0-4.3-2.1-7.1-4.9-7.1s-5,2.7-5,7.1v0.5c0,4.3,2.2,7.1,5,7.1
			S144.4,233.1,144.4,228.8z"/>
		<path class="st0" d="M155.9,207.1h6.7v34.2h-6.7V207.1z"/>
		<path class="st0" d="M167.2,228.9v-0.4c0-7.5,4.7-13,11.1-13c7.3,0,10.8,5.9,10.8,13.5c0,0.4,0,1.2,0,2.2h-15.2
			c0.6,3.4,2.7,5.1,5.5,5.1c2.1,0,3.7-0.9,5.3-2.5l3.5,4.1c-2.3,2.6-5.3,4.1-9.1,4.1C172.4,241.9,167.2,236.8,167.2,228.9z
			 M182.6,226.6c-0.3-3.5-1.8-5.7-4.3-5.7s-4.1,2.1-4.5,5.7H182.6z"/>
		<path class="st0" d="M193.8,215.9h6.7v25.4h-6.7V215.9z M199.5,205.4l5.6,2.6l-5.7,5.4h-4.8L199.5,205.4z"/>
		<path class="st0" d="M204.2,238.3l2.9-4.7c2.3,1.8,4.7,2.8,6.8,2.8c1.9,0,2.7-0.9,2.7-1.9v-0.1c0-1.5-1.9-2.1-4.6-3.3
			c-3.6-1.6-6.7-3.4-6.7-7.7v-0.1c0-4.9,3.8-7.8,8.7-7.8c2.7,0,5.8,0.9,8.4,2.7l-2.7,4.8c-1.9-1.2-4-2.2-5.8-2.2
			c-1.6,0-2.5,0.8-2.5,1.8v0.1c0,1.3,1.9,2.1,4.6,3.3c3.7,1.8,6.7,3.6,6.7,7.6v0.1c0,5.3-3.9,7.9-9,7.9
			C210.9,241.8,207.3,240.8,204.2,238.3z"/>
		<path class="st0" d="M227.6,234.9v-13.4H225v-5.7h2.6v-6.5h6.7v6.5h5v5.7h-5v12c0,1.5,0.7,2.2,2.1,2.2c1,0,2-0.3,2.9-0.7v5.4
			c-1.3,0.8-2.9,1.3-5,1.3C230.4,241.7,227.6,240.2,227.6,234.9z"/>
		<path class="st0" d="M242.4,234v-0.3c0-5.6,3.6-8.1,8.9-8.1c2.1,0,3.7,0.4,5.3,1v-0.8c0-2.9-1.8-4.5-4.8-4.5
			c-2.4,0-4.3,0.8-5.8,1.4l-1.8-5.3c2.5-1.2,5-2,8.7-2c3.5,0,6.1,0.9,7.7,2.6c1.8,1.8,2.6,4.4,2.6,7.7v15.4h-6.6v-2.7
			c-1.5,2-3.6,3.2-6.6,3.2C245.7,241.8,242.4,239,242.4,234z M256.6,232.9v-2.1c-1-0.5-2.4-0.8-3.7-0.8c-2.5,0-4,1.2-4,3.6v0.1
			c0,2.1,1.3,3.1,3.3,3.2C254.8,236.9,256.6,235.3,256.6,232.9z"/>
		<path class="st0" d="M266.3,238.3l2.9-4.7c2.3,1.8,4.7,2.8,6.8,2.8c1.9,0,2.7-0.9,2.7-1.9v-0.1c0-1.5-1.9-2.1-4.6-3.3
			c-3.6-1.6-6.7-3.4-6.7-7.7v-0.1c0-4.9,3.8-7.8,8.7-7.8c2.7,0,5.8,0.9,8.4,2.7l-2.7,4.8c-1.9-1.2-4-2.2-5.8-2.2
			c-1.6,0-2.5,0.8-2.5,1.8v0.1c0,1.3,1.9,2.1,4.6,3.3c3.7,1.8,6.7,3.6,6.7,7.6v0.1c0,5.3-3.9,7.9-9,7.9
			C272.9,241.8,269.4,240.8,266.3,238.3z"/>
	</g>
	<g>
		<path class="st1" d="M97.4,177.3h99.8c7.4,0,13.5-6.1,13.5-13.5V46.7c0-7.5-6.1-13.5-13.5-13.5H97.5c-7.5,0-13.6,6.1-13.6,13.5
			v117.1C83.9,171.2,90,177.3,97.4,177.3z M92.9,46.7c0-2.5,2-4.5,4.5-4.5h99.7c2.5,0,4.5,2,4.5,4.5v117.1c0,2.5-2,4.5-4.5,4.5H97.4
			c-2.5,0-4.5-2-4.5-4.5V46.7z"/>
		<path class="st1" d="M172.5,80.7c8.4,0,15.2-6.8,15.2-15.2s-6.8-15.2-15.2-15.2h-0.3c-8.4,0-15.2,6.8-15.2,15.2
			C157.1,73.9,163.9,80.7,172.5,80.7z M172.2,59.4h0.3c3.4,0,6.1,2.8,6.1,6.1c0,3.4-2.8,6.1-6.4,6.1c-3.4,0-6.1-2.7-6.1-6.1
			C166.1,62.2,168.9,59.4,172.2,59.4z"/>
		<path class="st1" d="M161.9,90.5l20.6-0.4v14.5h9V90.1c0-4.8-3.9-8.7-8.7-8.7h-20.9c-4.8,0-8.7,3.9-8.7,8.7v14.5h9L161.9,90.5z"/>
		<rect x="102.4" y="114.7" class="st1" width="88.8" height="9"/>
		<rect x="102.4" y="132.6" class="st1" width="88.8" height="9"/>
		<rect x="102.4" y="150.5" class="st1" width="88.8" height="9"/>
		<rect x="102.4" y="61" class="st1" width="34.1" height="9"/>
		<rect x="102.4" y="78.9" class="st1" width="34.1" height="9"/>
		<rect x="102.4" y="96.8" class="st1" width="34.1" height="9"/>
	</g>
</g>
</svg>
