<?xml version="1.0" encoding="utf-8"?>
<!-- Generator: Adobe Illustrator 22.0.1, SVG Export Plug-In . SVG Version: 6.00 Build 0)  -->
<svg version="1.1" id="Capa_1" xmlns="http://www.w3.org/2000/svg" xmlns:xlink="http://www.w3.org/1999/xlink" x="0px" y="0px"
	 viewBox="0 0 294 275" style="enable-background:new 0 0 294 275;" xml:space="preserve">
<style type="text/css">
	.st0{fill:#1A2C66;}
	.st1{fill:#000000;}
</style>
<g>
	<g>
		<rect x="79.8" y="44.3" class="st0" width="134.5" height="9.6"/>
		<rect x="99" y="72.5" class="st0" width="19" height="9.6"/>
		<rect x="175.9" y="72.3" class="st0" width="19" height="9.6"/>
		<rect x="137.4" y="72.5" class="st0" width="19.2" height="9.6"/>
		<rect x="185.5" y="14.6" class="st0" width="9.6" height="18.4"/>
		<rect x="142.2" y="15" class="st0" width="9.6" height="18.4"/>
		<rect x="99" y="15" class="st0" width="9.6" height="18.4"/>
		<rect x="164.3" y="24" class="st0" width="9.6" height="9.6"/>
		<rect x="121.3" y="24" class="st0" width="9.6" height="9.6"/>
		<polygon class="st0" points="204.5,33.6 214.3,33.6 214.3,44.3 219.1,44.3 219.1,53.9 214.3,53.9 214.3,140.1 79.8,140.1 
			79.8,53.9 75,53.9 75,44.3 79.8,44.3 79.8,33.6 89.4,33.6 89.4,24 70.2,24 70.2,149.7 223.9,149.7 223.9,24 204.5,24 		"/>
		<rect x="75" y="44.3" class="st0" width="4.8" height="9.6"/>
		<rect x="99" y="91.7" class="st0" width="19" height="9.6"/>
		<rect x="99.2" y="110.8" class="st0" width="19" height="9.6"/>
		<rect x="175.8" y="110.7" class="st0" width="19.3" height="9.6"/>
		<rect x="137.4" y="110.8" class="st0" width="19.2" height="9.6"/>
		<rect x="137.4" y="91.7" class="st0" width="19.2" height="9.6"/>
		<rect x="175.8" y="91.5" class="st0" width="19.2" height="9.6"/>
	</g>
	<g>
		<path class="st1" d="M72.8,178.2h6.5l11.9,33.4h-7.1l-2.5-7.2H70.2l-2.4,7.2h-6.9L72.8,178.2z M79.6,198.3L76,187.5l-3.7,10.8
			H79.6z"/>
		<path class="st1" d="M94,216.7l2.1-5.2c2,1.1,4.6,1.8,7.2,1.8c4.2,0,6.3-1.9,6.3-6v-1.6c-1.7,2.2-3.7,4-7.1,4
			c-5,0-9.5-3.9-9.5-11.9v-0.1c0-8,4.5-11.9,9.5-11.9c3.5,0,5.4,1.8,7.1,3.7v-3.3h6.7V207c0,4-1,6.9-2.9,8.9c-2.1,2.1-5.4,3-9.7,3
			C100.1,218.8,96.9,218,94,216.7z M109.6,197.7L109.6,197.7c0-3.8-2.1-6.2-5-6.2c-2.8,0-4.9,2.4-4.9,6.2l0,0c0,3.8,2.1,6.2,4.9,6.2
			S109.6,201.4,109.6,197.7z"/>
		<path class="st1" d="M120.6,199.1v-0.4c0-7.5,4.7-13,11.1-13c7.3,0,10.8,5.9,10.8,13.5c0,0.4,0,1.2,0,2.2h-15.2
			c0.6,3.4,2.7,5.1,5.5,5.1c2.1,0,3.7-0.9,5.3-2.5l3.5,4.1c-2.3,2.6-5.3,4.1-9.1,4.1C125.7,212.1,120.6,207,120.6,199.1z M136,196.9
			c-0.3-3.5-1.8-5.7-4.3-5.7s-4.1,2.1-4.5,5.7H136z"/>
		<path class="st1" d="M146.9,186.1h6.7v3.4c1.5-2,3.3-3.9,6.5-3.9c4.7,0,7.5,3.3,7.5,8.6v17.3h-6.7v-15.3c0-3-1.3-4.5-3.6-4.5
			c-2.2,0-3.7,1.5-3.7,4.5v15.3h-6.7V186.1z"/>
		<path class="st1" d="M171.9,199.2v-0.8c0-8.7,4.6-12.8,9.7-12.8c3.4,0,5.4,1.8,6.9,3.7v-12.1h6.7v34.2h-6.7V208
			c-1.5,2.1-3.5,4-6.9,4C176.6,212,171.9,207.9,171.9,199.2z M188.6,199.1v-0.5c0-4.3-2.2-7.1-5-7.1s-4.9,2.7-4.9,7.1v0.5
			c0,4.3,2.1,7.1,4.9,7.1C186.4,206.1,188.6,203.4,188.6,199.1z"/>
		<path class="st1" d="M199.3,204.3V204c0-5.6,3.6-8.1,8.9-8.1c2.1,0,3.7,0.4,5.3,1v-0.8c0-2.9-1.8-4.5-4.8-4.5
			c-2.4,0-4.3,0.8-5.8,1.4l-1.8-5.3c2.5-1.2,5-2,8.7-2c3.5,0,6.1,0.9,7.7,2.6c1.8,1.8,2.6,4.4,2.6,7.7v15.4h-6.6v-2.7
			c-1.5,2-3.6,3.2-6.6,3.2C202.6,212,199.3,209.2,199.3,204.3z M213.5,203.2v-2.1c-1-0.5-2.4-0.8-3.7-0.8c-2.5,0-4,1.2-4,3.6v0.1
			c0,2.1,1.3,3.1,3.3,3.2C211.6,207.1,213.5,205.5,213.5,203.2z"/>
	</g>
</g>
</svg>
