<?xml version="1.0" encoding="utf-8"?>
<!-- Generator: Adobe Illustrator 22.0.1, SVG Export Plug-In . SVG Version: 6.00 Build 0)  -->
<svg version="1.1" id="Capa_1" xmlns="http://www.w3.org/2000/svg" xmlns:xlink="http://www.w3.org/1999/xlink" x="0px" y="0px"
	 viewBox="0 0 294 275" style="enable-background:new 0 0 294 275;" xml:space="preserve">
<style type="text/css">
	.st0{fill:#1A2C66;}
	.st1{fill:#000000;}
</style>
<g
   id="g48">
	<g
   id="g22">
		<path
   class="st0"
   d="M90.8,156h115.7c7.4,0,13.4-6,13.4-13.4v-116c0-7.4-6-13.4-13.4-13.4H90.9c-7.4,0-13.4,6-13.4,13.4v116    C77.5,150,83.5,156,90.8,156z M86.4,26.7c0-2.5,2-4.5,4.5-4.5h115.7c2.5,0,4.5,2,4.5,4.5v116c0,2.4-2,4.4-4.4,4.4H90.8    c-2.4,0-4.4-2-4.4-4.4V26.7z"
   id="path4" />
		<rect
   x="95.8"
   y="41.1"
   class="st0"
   width="61.8"
   height="8.9"
   id="rect6" />
		<rect
   x="95.8"
   y="68.5"
   class="st0"
   width="61.8"
   height="8.9"
   id="rect8" />
		<rect
   x="95.8"
   y="94.1"
   class="st0"
   width="61.8"
   height="8.9"
   id="rect10" />
		<rect
   x="95.8"
   y="120.8"
   class="st0"
   width="61.8"
   height="8.9"
   id="rect12" />
		<polygon
   class="st0"
   points="200.9,38.7 194.8,32.1 175.6,49.6 170.1,44.2 163.8,50.6 175.4,61.9   "
   id="polygon14" />
		<polygon
   class="st0"
   points="200.9,64.5 194.8,57.9 175.6,75.4 170.1,70 163.8,76.4 175.4,87.7   "
   id="polygon16" />
		<polygon
   class="st0"
   points="200.9,90.3 194.8,83.7 175.6,101.2 170.1,95.8 163.8,102.2 175.4,113.5   "
   id="polygon18" />
		<polygon
   class="st0"
   points="200.9,116.1 194.8,109.5 175.6,127 170.1,121.6 163.8,128 175.4,139.3   "
   id="polygon20" />
	</g>
	<g
   id="g46">
		
		<path
   class="st1"
   d="m 94.417797,188.94322 h -8.3 v -6.4 H 109.6178 v 6.4 h -8.3 v 26.8 h -6.800003 z"
   id="path36"
   style="fill:#000000" />
		<path
   class="st1"
   d="m 108.6178,203.34322 v -0.4 c 0,-7.5 4.7,-13 11.1,-13 7.3,0 10.8,5.9 10.8,13.5 0,0.4 0,1.2 0,2.2 h -15.2 c 0.6,3.4 2.7,5.1 5.5,5.1 2.1,0 3.7,-0.9 5.3,-2.5 l 3.5,4.1 c -2.3,2.6 -5.3,4.1 -9.1,4.1 -6.7,-0.1 -11.9,-5.2 -11.9,-13.1 z m 15.4,-2.3 c -0.3,-3.5 -1.8,-5.7 -4.3,-5.7 -2.5,0 -4.1,2.1 -4.5,5.7 z"
   id="path38"
   style="fill:#000000" />
		<path
   class="st1"
   d="m 134.9178,190.34322 h 6.7 v 3.4 c 1.5,-2.1 3.4,-3.9 6.6,-3.9 2.9,0 5.1,1.4 6.3,3.7 1.8,-2.2 4.1,-3.7 7.2,-3.7 4.5,0 7.5,2.9 7.5,8.5 v 17.3 h -6.7 v -15.3 c 0,-2.9 -1.3,-4.5 -3.5,-4.5 -2.2,0 -3.6,1.6 -3.6,4.5 v 15.3 h -6.7 v -15.3 c 0,-2.9 -1.2,-4.5 -3.5,-4.5 -2.3,0 -3.6,1.6 -3.6,4.5 v 15.3 h -6.7 z"
   id="path40"
   style="fill:#000000" />
		<path
   class="st1"
   d="m 173.2178,208.44322 v -0.3 c 0,-5.6 3.6,-8.1 8.9,-8.1 2.1,0 3.7,0.4 5.3,1 v -0.8 c 0,-2.9 -1.8,-4.5 -4.8,-4.5 -2.4,0 -4.3,0.8 -5.8,1.4 l -1.8,-5.3 c 2.5,-1.2 5,-2 8.7,-2 3.5,0 6.1,0.9 7.7,2.6 1.8,1.8 2.6,4.4 2.6,7.7 v 15.4 h -6.7 v -2.7 c -1.5,2 -3.6,3.2 -6.6,3.2 -4.1,0.2 -7.5,-2.6 -7.5,-7.6 z m 14.3,-1.1 v -2.1 c -1,-0.5 -2.4,-0.8 -3.7,-0.8 -2.5,0 -4,1.2 -4,3.6 v 0.1 c 0,2.1 1.3,3.1 3.3,3.2 2.5,0 4.4,-1.6 4.4,-4 z"
   id="path42"
   style="fill:#000000" />
		<path
   class="st1"
   d="m 197.1178,212.74322 2.9,-4.7 c 2.3,1.8 4.7,2.8 6.8,2.8 1.9,0 2.7,-0.9 2.7,-1.9 v -0.1 c 0,-1.5 -1.9,-2.1 -4.6,-3.3 -3.6,-1.6 -6.7,-3.4 -6.7,-7.7 v -0.1 c 0,-4.9 3.8,-7.8 8.7,-7.8 2.7,0 5.8,0.9 8.4,2.7 l -2.7,4.8 c -1.9,-1.2 -4,-2.2 -5.8,-2.2 -1.6,0 -2.5,0.8 -2.5,1.8 v 0.1 c 0,1.3 1.9,2.1 4.6,3.3 3.7,1.8 6.7,3.6 6.7,7.6 v 0.1 c 0,5.3 -3.9,7.9 -9,7.9 -2.8,0.2 -6.4,-0.8 -9.5,-3.3 z"
   id="path44"
   style="fill:#000000" />
	</g>
</g>
</svg>