<?xml version="1.0" encoding="utf-8"?>
<!-- Generator: Adobe Illustrator 22.0.1, SVG Export Plug-In . SVG Version: 6.00 Build 0)  -->
<svg version="1.1" id="Capa_1" xmlns="http://www.w3.org/2000/svg" xmlns:xlink="http://www.w3.org/1999/xlink" x="0px" y="0px"
	 viewBox="0 0 294 275" style="enable-background:new 0 0 294 275;" xml:space="preserve">
<style type="text/css">
	.st0{fill:#1A2C66;}
	.st1{fill:#000000;}
</style>
<g>
	<g>
		<path class="st0" d="M79.1,152h82.8l24.8-28.5V8.1H79.1V152z M177.7,120.1L157.8,143h-0.1v-23L177.7,120.1L177.7,120.1z
			 M88.1,17.1h89.6v93.8h-29v32H88.1V17.1z"/>
		<rect x="142" y="43.6" class="st0" width="27" height="9"/>
		<rect x="132.9" y="62" class="st0" width="36.1" height="9"/>
		<rect x="97.8" y="80.6" class="st0" width="71.2" height="9"/>
		<rect x="97.8" y="98.2" class="st0" width="35.6" height="9"/>
		<rect x="97.8" y="116.6" class="st0" width="35.1" height="9"/>
		<polygon class="st0" points="142.2,31.9 135.4,26 111.7,53.4 103.9,44.5 97.2,50.5 111.8,67 		"/>
		<path class="st0" d="M223.1,130.4V40.3L210,10.8l-12.6,27.7l-0.4,92c0,7.2,5.9,13.1,13.1,13.1
			C217.2,143.4,223.1,137.6,223.1,130.4z M210,32.4l4,8.6h-7.8L210,32.4z M206,50h8.1v57.6H206V50z M206,130.4v-13.8h8.1v13.8
			c0,2.2-1.8,4-4,4S206,132.6,206,130.4z"/>
	</g>
	<g>
		<path class="st1" d="M45.9,178.1h11c7.4,0,12.1,4.3,12.1,11.4v0.1c0,7.6-5.4,11.5-12.4,11.6h-3.9v10.1h-6.9v-33.2H45.9z M56.6,195
			c3.6,0,5.5-2.2,5.5-5.3l0,0c0-3.5-2-5.4-5.6-5.4h-3.7V195H56.6z"/>
		<path class="st1" d="M73,185.9h6.7v4.5c1.2-3.1,3.3-5.1,6.9-4.9v7.3h-0.3c-4.1,0-6.6,2.6-6.6,7.9v10.7H73V185.9z"/>
		<path class="st1" d="M88.7,198.9v-0.5c0-7.5,5.1-13,12-13s11.9,5.4,11.9,12.9v0.5c0,7.5-5.1,13-11.9,13
			C93.7,211.9,88.7,206.5,88.7,198.9z M105.9,198.8v-0.3c0-4.1-2.1-7.3-5.3-7.3c-3.4,0-5.3,3.1-5.3,7.2v0.3c0,4.1,2.1,7.3,5.4,7.3
			S105.9,202.9,105.9,198.8z"/>
		<path class="st1" d="M130.3,185.9h6.8l-8.3,25.7c-1.7,5.1-3.6,7-7.6,7c-2,0-3.8-0.6-5.4-1.5l1.8-5c0.8,0.5,1.8,0.9,2.7,0.9
			c1,0,1.7-0.4,2.2-1.6l-8.6-25.4h7l4.8,16.8L130.3,185.9z"/>
		<path class="st1" d="M138.4,198.9v-0.4c0-7.5,4.7-13,11.1-13c7.3,0,10.8,5.9,10.8,13.5c0,0.4,0,1.2,0,2.2h-15.2
			c0.6,3.4,2.7,5.1,5.5,5.1c2.1,0,3.7-0.9,5.3-2.5l3.5,4.1c-2.3,2.6-5.3,4.1-9.1,4.1C143.5,211.9,138.4,206.8,138.4,198.9z
			 M153.8,196.6c-0.3-3.5-1.8-5.7-4.3-5.7s-4.1,2.1-4.5,5.7H153.8z"/>
		<path class="st1" d="M163.7,199v-0.6c0-7.5,4.9-13,11.8-13c3.6,0,6.1,1.2,8.3,3.4l-3.6,4.9c-1.2-1.3-2.5-2.3-4.6-2.3
			c-3.1,0-5.2,2.9-5.2,7.1v0.2c0,4.2,1.9,7.2,5.3,7.2c2,0,3.3-0.9,4.6-2.3l3.6,4.5c-2.1,2.3-4.6,3.9-8.6,3.9
			C168.5,211.9,163.7,206.5,163.7,199z"/>
		<path class="st1" d="M188.6,204.9v-13.4H186v-5.7h2.6v-6.5h6.7v6.5h5v5.7h-5v12c0,1.5,0.7,2.2,2.1,2.2c1,0,2-0.3,2.9-0.7v5.4
			c-1.3,0.8-2.9,1.3-5,1.3C191.4,211.7,188.6,210.2,188.6,204.9z"/>
		<path class="st1" d="M203.1,198.9v-0.5c0-7.5,5.1-13,12-13s11.9,5.4,11.9,12.9v0.5c0,7.5-5.1,13-11.9,13
			C208.2,211.9,203.1,206.5,203.1,198.9z M220.4,198.8v-0.3c0-4.1-2.1-7.3-5.3-7.3c-3.4,0-5.3,3.1-5.3,7.2v0.3
			c0,4.1,2.1,7.3,5.4,7.3C218.4,206,220.4,202.9,220.4,198.8z"/>
		<path class="st1" d="M229.5,208.3l2.9-4.7c2.3,1.8,4.7,2.8,6.8,2.8c1.9,0,2.7-0.9,2.7-1.9v-0.1c0-1.5-1.9-2.1-4.6-3.3
			c-3.6-1.6-6.7-3.4-6.7-7.7v-0.1c0-4.9,3.8-7.8,8.7-7.8c2.7,0,5.8,0.9,8.4,2.7L245,193c-1.9-1.2-4-2.2-5.8-2.2
			c-1.6,0-2.5,0.8-2.5,1.8v0.1c0,1.3,1.9,2.1,4.6,3.3c3.7,1.8,6.7,3.6,6.7,7.6v0.1c0,5.3-3.9,7.9-9,7.9
			C236.1,211.8,232.6,210.8,229.5,208.3z"/>
		<path class="st1" d="M84.5,247.2v-0.8c0-8.7,4.6-12.8,9.7-12.8c3.4,0,5.4,1.8,6.9,3.7v-12.1h6.7v34.2H101V256
			c-1.5,2.1-3.5,4-6.9,4C89.1,260,84.5,255.9,84.5,247.2z M101.1,247.1v-0.5c0-4.3-2.2-7.1-5-7.1s-4.9,2.7-4.9,7.1v0.5
			c0,4.3,2.1,7.1,4.9,7.1C99,254.2,101.1,251.4,101.1,247.1z"/>
		<path class="st1" d="M112.1,247.1v-0.4c0-7.5,4.7-13,11.1-13c7.3,0,10.8,5.9,10.8,13.5c0,0.4,0,1.2,0,2.2h-15.2
			c0.6,3.4,2.7,5.1,5.5,5.1c2.1,0,3.7-0.9,5.3-2.5l3.5,4.1c-2.3,2.6-5.3,4.1-9.1,4.1C117.3,260.1,112.1,255.1,112.1,247.1z
			 M127.5,244.9c-0.3-3.5-1.8-5.7-4.3-5.7s-4.1,2.1-4.5,5.7H127.5z"/>
		<path class="st1" d="M149.7,226.4h6.9v26.9H170v6.3h-20.3L149.7,226.4L149.7,226.4z"/>
		<path class="st1" d="M172.4,247.1v-0.4c0-7.5,4.7-13,11.1-13c7.3,0,10.8,5.9,10.8,13.5c0,0.4,0,1.2,0,2.2h-15.2
			c0.6,3.4,2.7,5.1,5.5,5.1c2.1,0,3.7-0.9,5.3-2.5l3.5,4.1c-2.3,2.6-5.3,4.1-9.1,4.1C177.6,260.1,172.4,255.1,172.4,247.1z
			 M187.8,244.9c-0.3-3.5-1.8-5.7-4.3-5.7s-4.1,2.1-4.5,5.7H187.8z"/>
		<path class="st1" d="M212.3,234.2h6.8l-8.3,25.7c-1.7,5.1-3.6,7-7.6,7c-2,0-3.8-0.6-5.4-1.5l1.8-5c0.8,0.5,1.8,0.9,2.7,0.9
			c1,0,1.7-0.4,2.2-1.6l-8.6-25.4h7l4.8,16.8L212.3,234.2z"/>
	</g>
</g>
</svg>
