<?xml version="1.0" encoding="utf-8"?>
<!-- Generator: Adobe Illustrator 22.0.1, SVG Export Plug-In . SVG Version: 6.00 Build 0)  -->
<svg version="1.1" id="Capa_1" xmlns="http://www.w3.org/2000/svg" xmlns:xlink="http://www.w3.org/1999/xlink" x="0px" y="0px"
	 viewBox="0 0 294 275" style="enable-background:new 0 0 294 275;" xml:space="preserve">
<style type="text/css">
	.st0{fill:#1A2C66;}
	.st1{fill:#000000;}
</style>
<g>
	<g>
		<polygon class="st0" points="66.4,149.9 137.2,149.9 137.2,141 75.3,141 75.3,17.1 182.5,17.1 182.5,85.1 191.5,73.9 191.5,8.2 
			66.4,8.2 		"/>
		<rect x="84.8" y="33.8" class="st0" width="88.3" height="8.9"/>
		<rect x="84.8" y="52" class="st0" width="88.3" height="8.9"/>
		<rect x="84.8" y="70.2" class="st0" width="66.6" height="8.9"/>
		<rect x="84.8" y="88.3" class="st0" width="53.2" height="8.9"/>
		<rect x="84.8" y="106.5" class="st0" width="53.2" height="8.9"/>
		<polygon class="st0" points="161.6,101.8 147.2,116.3 173.6,142.3 231.9,89.1 218.1,74 174.2,114.1 		"/>
	</g>
	<g>
		<path class="st1" d="M86.1,178.2H93v26.9h13.4v6.3H86.1V178.2z"/>
		<path class="st1" d="M108.9,198.9v-0.4c0-7.5,4.7-13,11.1-13c7.3,0,10.8,5.9,10.8,13.5c0,0.4,0,1.2,0,2.2h-15.2
			c0.6,3.4,2.7,5.1,5.5,5.1c2.1,0,3.7-0.9,5.3-2.5l3.5,4.1c-2.3,2.6-5.3,4.1-9.1,4.1C114,211.9,108.9,206.9,108.9,198.9z
			 M124.3,196.7c-0.3-3.5-1.8-5.7-4.3-5.7s-4.1,2.1-4.5,5.7H124.3z"/>
		<path class="st1" d="M148.8,186h6.8l-8.3,25.7c-1.7,5.1-3.6,7-7.6,7c-2,0-3.8-0.6-5.4-1.5l1.8-5c0.8,0.5,1.8,0.9,2.7,0.9
			c1,0,1.7-0.4,2.2-1.6l-8.6-25.4h7l4.8,16.8L148.8,186z"/>
		<path class="st1" d="M156.9,198.9v-0.4c0-7.5,4.7-13,11.1-13c7.3,0,10.8,5.9,10.8,13.5c0,0.4,0,1.2,0,2.2h-15.2
			c0.6,3.4,2.7,5.1,5.5,5.1c2.1,0,3.7-0.9,5.3-2.5l3.5,4.1c-2.3,2.6-5.3,4.1-9.1,4.1C162,211.9,156.9,206.9,156.9,198.9z
			 M172.3,196.7c-0.3-3.5-1.8-5.7-4.3-5.7s-4.1,2.1-4.5,5.7H172.3z"/>
		<path class="st1" d="M181.2,208.3l2.9-4.7c2.3,1.8,4.7,2.8,6.8,2.8c1.9,0,2.7-0.9,2.7-1.9v-0.1c0-1.5-1.9-2.1-4.6-3.3
			c-3.6-1.6-6.7-3.4-6.7-7.7v-0.1c0-4.9,3.8-7.8,8.7-7.8c2.7,0,5.8,0.9,8.4,2.7l-2.7,4.8c-1.9-1.2-4-2.2-5.8-2.2
			c-1.6,0-2.5,0.8-2.5,1.8v0.1c0,1.3,1.9,2.1,4.6,3.3c3.7,1.8,6.7,3.6,6.7,7.6v0.1c0,5.3-3.9,7.9-9,7.9
			C187.8,211.8,184.3,210.8,181.2,208.3z"/>
		<path class="st1" d="M45.5,226.3H52l11.9,33.4h-7.1l-2.5-7.2H42.9l-2.4,7.2h-6.9L45.5,226.3z M52.2,246.4l-3.6-10.8L45,246.4H52.2
			z"/>
		<path class="st1" d="M67.4,234.2h6.7v3.5c1.5-2.1,3.5-4,6.9-4c5,0,9.7,4.1,9.7,12.8v0.8c0,8.7-4.6,12.8-9.7,12.8
			c-3.4,0-5.4-1.8-6.9-3.7v10.4h-6.7V234.2z M83.9,247.2v-0.5c0-4.3-2.1-7.1-4.9-7.1s-5,2.7-5,7.1v0.5c0,4.3,2.2,7.1,5,7.1
			C81.8,254.2,83.9,251.5,83.9,247.2z"/>
		<path class="st1" d="M95.2,234.2h6.7v4.5c1.2-3.1,3.3-5.1,6.9-4.9v7.3h-0.3c-4.1,0-6.6,2.6-6.6,7.9v10.7h-6.7V234.2z"/>
		<path class="st1" d="M110.8,247.3v-0.5c0-7.5,5.1-13,12-13c6.9,0,11.9,5.4,11.9,12.9v0.5c0,7.5-5.1,13-11.9,13
			C115.9,260.2,110.8,254.8,110.8,247.3z M128.1,247.2v-0.3c0-4.1-2.1-7.3-5.3-7.3c-3.4,0-5.3,3.1-5.3,7.2v0.3
			c0,4.1,2.1,7.3,5.4,7.3C126.2,254.4,128.1,251.3,128.1,247.2z"/>
		<path class="st1" d="M145.9,256.4v3.3h-6.7v-34.2h6.7v12.3c1.5-2.1,3.5-4,6.9-4c5,0,9.7,4.1,9.7,12.8v0.8c0,8.7-4.6,12.8-9.7,12.8
			C149.4,260.1,147.3,258.3,145.9,256.4z M155.7,247.2v-0.5c0-4.3-2.1-7.1-4.9-7.1s-5,2.7-5,7.1v0.5c0,4.3,2.2,7.1,5,7.1
			S155.7,251.5,155.7,247.2z"/>
		<path class="st1" d="M165.6,252.4v-0.3c0-5.6,3.6-8.1,8.9-8.1c2.1,0,3.7,0.4,5.3,1v-0.8c0-2.9-1.8-4.5-4.8-4.5
			c-2.4,0-4.3,0.8-5.8,1.4l-1.8-5.3c2.5-1.2,5-2,8.7-2c3.5,0,6.1,0.9,7.7,2.6c1.8,1.8,2.6,4.4,2.6,7.7v15.4h-6.6v-2.7
			c-1.5,2-3.6,3.2-6.6,3.2C169,260.1,165.6,257.3,165.6,252.4z M179.9,251.3v-2.1c-1-0.5-2.4-0.8-3.7-0.8c-2.5,0-4,1.2-4,3.6v0.1
			c0,2.1,1.3,3.1,3.3,3.2C178,255.2,179.9,253.6,179.9,251.3z"/>
		<path class="st1" d="M190.6,247.3v-0.8c0-8.7,4.6-12.8,9.7-12.8c3.4,0,5.4,1.8,6.9,3.7v-12.1h6.7v34.2h-6.7V256
			c-1.5,2.1-3.5,4-6.9,4C195.2,260.1,190.6,256,190.6,247.3z M207.2,247.2v-0.5c0-4.3-2.2-7.1-5-7.1s-4.9,2.7-4.9,7.1v0.5
			c0,4.3,2.1,7.1,4.9,7.1C205,254.2,207.2,251.5,207.2,247.2z"/>
		<path class="st1" d="M217.9,252.4v-0.3c0-5.6,3.6-8.1,8.9-8.1c2.1,0,3.7,0.4,5.3,1v-0.8c0-2.9-1.8-4.5-4.8-4.5
			c-2.4,0-4.3,0.8-5.8,1.4l-1.8-5.3c2.5-1.2,5-2,8.7-2c3.5,0,6.1,0.9,7.7,2.6c1.8,1.8,2.6,4.4,2.6,7.7v15.4h-6.6v-2.7
			c-1.5,2-3.6,3.2-6.6,3.2C221.3,260.1,217.9,257.3,217.9,252.4z M232.2,251.3v-2.1c-1-0.5-2.4-0.8-3.7-0.8c-2.5,0-4,1.2-4,3.6v0.1
			c0,2.1,1.3,3.1,3.3,3.2C230.3,255.2,232.2,253.6,232.2,251.3z"/>
		<path class="st1" d="M241.9,256.6l2.9-4.7c2.3,1.8,4.7,2.8,6.8,2.8c1.9,0,2.7-0.9,2.7-1.9v-0.1c0-1.5-1.9-2.1-4.6-3.3
			c-3.6-1.6-6.7-3.4-6.7-7.7v-0.1c0-4.9,3.8-7.8,8.7-7.8c2.7,0,5.8,0.9,8.4,2.7l-2.7,4.8c-1.9-1.2-4-2.2-5.8-2.2
			c-1.6,0-2.5,0.8-2.5,1.8v0.1c0,1.3,1.9,2.1,4.6,3.3c3.7,1.8,6.7,3.6,6.7,7.6v0.1c0,5.3-3.9,7.9-9,7.9
			C248.5,260.1,244.9,259.1,241.9,256.6z"/>
	</g>
</g>
</svg>
