<?xml version="1.0" encoding="utf-8"?>
<!-- Generator: Adobe Illustrator 22.0.1, SVG Export Plug-In . SVG Version: 6.00 Build 0)  -->
<svg version="1.1" id="Capa_1" xmlns="http://www.w3.org/2000/svg" xmlns:xlink="http://www.w3.org/1999/xlink" x="0px" y="0px"
	 viewBox="0 0 165 145" style="enable-background:new 0 0 294 275;" xml:space="preserve">
<style type="text/css">
	.st0{fill:#1A2C66;}
	.st1{fill:#000000;}
</style>
<g 
    transform="translate(-65,-10)"
    >
	
		<rect x="79.8" y="44.3" class="st0" width="134.5" height="9.6"/>
		<rect x="99" y="72.5" class="st0" width="19" height="9.6"/>
		<rect x="175.9" y="72.3" class="st0" width="19" height="9.6"/>
		<rect x="137.4" y="72.5" class="st0" width="19.2" height="9.6"/>
		<rect x="185.5" y="14.6" class="st0" width="9.6" height="18.4"/>
		<rect x="142.2" y="15" class="st0" width="9.6" height="18.4"/>
		<rect x="99" y="15" class="st0" width="9.6" height="18.4"/>
		<rect x="164.3" y="24" class="st0" width="9.6" height="9.6"/>
		<rect x="121.3" y="24" class="st0" width="9.6" height="9.6"/>
		<polygon class="st0" points="204.5,33.6 214.3,33.6 214.3,44.3 219.1,44.3 219.1,53.9 214.3,53.9 214.3,140.1 79.8,140.1 
			79.8,53.9 75,53.9 75,44.3 79.8,44.3 79.8,33.6 89.4,33.6 89.4,24 70.2,24 70.2,149.7 223.9,149.7 223.9,24 204.5,24 		"/>
		<rect x="75" y="44.3" class="st0" width="4.8" height="9.6"/>
		<rect x="99" y="91.7" class="st0" width="19" height="9.6"/>
		<rect x="99.2" y="110.8" class="st0" width="19" height="9.6"/>
		<rect x="175.8" y="110.7" class="st0" width="19.3" height="9.6"/>
		<rect x="137.4" y="110.8" class="st0" width="19.2" height="9.6"/>
		<rect x="137.4" y="91.7" class="st0" width="19.2" height="9.6"/>
		<rect x="175.8" y="91.5" class="st0" width="19.2" height="9.6"/>
	
</g>
</svg>
