<svg id="Capa_1" data-name="Capa 1" xmlns="http://www.w3.org/2000/svg" viewBox="0 0 507 1024"><defs><style>.cls-1{fill:#f5333f;}.cls-2{fill:#009fe3;}</style></defs><path class="cls-1" d="M410.32,573.91v-.1a10.55,10.55,0,1,1,0-21.09h75.31L503,479H341.42L310.7,609.88H376v0a10.55,10.55,0,1,1,0,21.09H305.72L283.29,725c70.43,8.28,121.44.06,141.12-8.12,32-13.28,55.89-37.28,60.83-71.8C492.42,594.8,451.9,576,410.32,573.91Z"/><path class="cls-2" d="M294.6,609.88l21.73-92H286.6a19.45,19.45,0,0,1,0-38.9h38.91l21.73-92H286.6a111.46,111.46,0,0,0,0,222.92Z"/><path class="cls-2" d="M286.3,630.94a130.29,130.29,0,0,1-121.59-83.87A108.63,108.63,0,0,0,69,387.12H6L27.7,479H65.39a19.45,19.45,0,1,1,0,38.9H36.88l20.43,86.48H69a109.32,109.32,0,0,0,19.54-1.78c34.35,66.5,95.84,110.59,179.3,120.54l21.81-92.17Z"/><path class="cls-1" d="M222.8,320.72v0a171.73,171.73,0,0,0-10.84-14c-38.78-40.84-25.13-89-25.13-89s-59.17,49.64-30.22,101c1.12,2,2.41,4,3.81,6h-.06a4.81,4.81,0,0,1,.33.38c.09.13.17.26.27.39s.31.46.48.69h0c1.07,1.72,2.25,4.63-.11,7a6.69,6.69,0,0,1-7.1,1.47l-1.12-.47.07-.07s-.74-.21-1.95-.65c-.26-.08-.5-.18-.77-.27a108.11,108.11,0,0,1-13.22-5.82c-5.44-2.87-11.09-6.59-14.77-11a65.67,65.67,0,0,0,1.94,16.74,74,74,0,0,0,22.1,36.41l-.23-.07a123.57,123.57,0,0,1,9.28,9.07,135.21,135.21,0,0,1,20.76,29.67l.27-.37c.41-.55,1.24-1.7,2.35-3.43a140.15,140.15,0,0,1,36.28-35.18l-.1.06c10.17-7.23,13.8-15.85,14.32-23.81C230.39,332.14,222.8,320.72,222.8,320.72Z"/></svg>