<svg id="Capa_1" data-name="Capa 1" xmlns="http://www.w3.org/2000/svg" viewBox="0 0 1500 1500"><defs><style>.cls-1{fill:#f5333f;}.cls-2{fill:#009fe3;}</style></defs><path class="cls-1" d="M1042.06,756.81v-.2a20.77,20.77,0,0,1,0-41.54l148.34,0,34.2-145.29H906.35L845.83,827.66H974.49v-.06a20.77,20.77,0,0,1,0,41.54H836l-44.19,185.29c138.73,16.29,239.2.1,277.95-16,63-26.17,110.09-73.44,119.82-141.44C1203.78,798,1124,760.87,1042.06,756.81Z"/><path class="cls-2" d="M814.12,827.66l42.8-181.23H798.38a38.32,38.32,0,0,1,0-76.63H875l42.8-181.22H798.38c-121,0-219.53,98.48-219.53,219.53s98.48,219.55,219.53,219.55Z"/><path class="cls-2" d="M797.78,869.14c-109.25,0-202.68-68.72-239.5-165.2a212.9,212.9,0,0,0,25.39-101.11c0-118.16-95.78-214-214-214h-124L288.42,569.8h74.23a38.32,38.32,0,1,1,0,76.63H306.51l40.23,170.34h23a215.1,215.1,0,0,0,38.5-3.52c67.65,131,188.76,217.84,353.14,237.43l43-181.54Z"/><path class="cls-1" d="M672.7,258.1v0a339.56,339.56,0,0,0-21.35-27.63C575,150.07,601.85,55.17,601.85,55.17S485.31,152.94,542.34,254.1c2.21,3.92,4.75,7.86,7.51,11.79h-.12s.26.28.64.76c.18.26.34.51.53.77.32.45.62.9,1,1.35h0c2.12,3.38,4.43,9.13-.21,13.77-4.92,4.92-10.85,3.93-14,2.89-.74-.3-1.45-.62-2.2-.91l.14-.14s-1.46-.42-3.83-1.29c-.52-.16-1-.36-1.53-.54a210.64,210.64,0,0,1-26-11.45c-10.73-5.67-21.84-13-29.1-21.69a128.8,128.8,0,0,0,3.83,33c11.26,45.3,43.52,71.72,43.52,71.72L522,354a247.45,247.45,0,0,1,18.28,17.88,265.93,265.93,0,0,1,40.88,58.43l.54-.73c.8-1.07,2.43-3.35,4.63-6.74a275.69,275.69,0,0,1,71.46-69.29l-.2.1c20-14.23,27.18-31.21,28.21-46.9C687.66,280.61,672.7,258.1,672.7,258.1Z"/><path class="cls-2" d="M268.35,1121.51h52.13c16.85,0,28.5,4.41,35.9,12,6.46,6.3,9.77,14.8,9.77,25.67v.31c0,16.86-9,28-22.68,33.86l26.3,38.43H334.49l-22.2-33.39H298.9v33.39H268.35Zm50.71,52.91c10.39,0,16.38-5,16.38-13.07V1161c0-8.66-6.3-13.07-16.54-13.07h-20v26.45Z"/><path class="cls-2" d="M373.71,1121.51h88.66v26H404v16.69h52.91v24.09H404v17.48h59.21v26H373.71Z"/><path class="cls-2" d="M462.06,1121.51h34.17l25,69.77,25-69.77h33.55l-44.73,111H506.78Z"/><path class="cls-2" d="M571.83,1177v-.32c0-31.65,25.51-57.33,59.53-57.33s59.21,25.36,59.21,57v.31c0,31.65-25.51,57.33-59.53,57.33S571.83,1208.6,571.83,1177Zm87.56,0v-.32c0-15.91-11.5-29.76-28.35-29.76-16.69,0-27.87,13.54-27.87,29.45v.31c0,15.91,11.49,29.76,28.19,29.76S659.39,1192.85,659.39,1177Z"/><path class="cls-2" d="M698.6,1121.51h30.56V1205h53.38v26.77H698.6Z"/><path class="cls-2" d="M783.18,1183.4v-61.89h31v61.26c0,15.91,8,23.47,20.32,23.47s20.31-7.25,20.31-22.68v-62h31v61.1c0,35.6-20.32,51.19-51.66,51.19S783.18,1217.89,783.18,1183.4Z"/><path class="cls-2" d="M892.32,1177v-.32c0-32.13,24.72-57.33,58.11-57.33,22.52,0,37,9.45,46.77,23l-23,17.79c-6.3-7.87-13.55-12.91-24.1-12.91-15.43,0-26.3,13.07-26.3,29.14v.31c0,16.54,10.87,29.45,26.3,29.45,11.5,0,18.27-5.35,24.89-13.39l23,16.38c-10.4,14.33-24.41,24.89-48.82,24.89C917.67,1234,892.32,1209.86,892.32,1177Z"/><path class="cls-2" d="M1003.82,1121.51h30.71v110.24h-30.71Z"/><path class="cls-2" d="M1043,1177v-.32c0-31.65,25.51-57.33,59.53-57.33s59.21,25.36,59.21,57v.31c0,31.65-25.51,57.33-59.52,57.33S1043,1208.6,1043,1177Zm87.56,0v-.32c0-15.91-11.49-29.76-28.34-29.76s-27.88,13.54-27.88,29.45v.31c0,15.91,11.5,29.76,28.19,29.76C1119.41,1206.39,1130.59,1192.85,1130.59,1177Zm-22.83-90.09,28.5,8.66L1113,1112.38h-22.2Z"/><path class="cls-2" d="M1169.81,1121.51h28.5l45.36,58.27v-58.27h30.24v110.24h-26.78L1200,1171.28v60.47h-30.23Z"/><path class="cls-2" d="M305,1319.43v-.32c0-32.13,24.73-57.32,58.12-57.32,22.52,0,37,9.45,46.77,23l-23,17.8c-6.3-7.88-13.55-12.92-24.1-12.92-15.43,0-26.3,13.07-26.3,29.14v.31c0,16.54,10.87,29.45,26.3,29.45,11.5,0,18.27-5.35,24.88-13.39l23,16.38c-10.4,14.33-24.41,24.89-48.82,24.89C330.4,1376.44,305,1352.34,305,1319.43Z"/><path class="cls-2" d="M416.54,1264h30.71v110.24H416.54Z"/><path class="cls-2" d="M458.12,1325.88V1264h31v61.26c0,15.91,8,23.47,20.31,23.47s20.32-7.25,20.32-22.68v-62h31v61.11c0,35.59-20.31,51.18-51.65,51.18S458.12,1360.37,458.12,1325.88Z"/><path class="cls-2" d="M571,1264h42.52c39.37,0,62.21,22.68,62.21,54.49v.32c0,31.81-23.15,55.43-62.84,55.43H571Zm43,83.15c18.27,0,30.4-10.08,30.4-27.87V1319c0-17.63-12.13-27.87-30.4-27.87H601.59v56.06Z"/><path class="cls-2" d="M712.31,1263.2h29.44l46.94,111H755.93l-8-19.68H705.38l-7.88,19.68H665.37Zm26.77,67.57-12.29-31.34-12.44,31.34Z"/><path class="cls-2" d="M791.52,1264H834c39.38,0,62.21,22.68,62.21,54.49v.32c0,31.81-23.15,55.43-62.84,55.43H791.52Zm43,83.15c18.26,0,30.39-10.08,30.39-27.87V1319c0-17.63-12.13-27.87-30.39-27.87H822.07v56.06Z"/><path class="cls-2" d="M932.79,1263.2h29.45l46.93,111H976.41l-8-19.68H925.86L918,1374.23H885.86Zm26.77,67.57-12.28-31.34-12.44,31.34Z"/><path class="cls-2" d="M1012,1264h28.51l45.36,58.27V1264h30.23v110.24h-26.77l-47.09-60.47v60.47H1012Z"/><path class="cls-2" d="M1165.87,1263.2h29.45l46.93,111h-32.76l-8-19.68h-42.52l-7.87,19.68h-32.13Zm26.77,67.57-12.28-31.34-12.44,31.34Z"/></svg>