<svg id="Capa_1" data-name="Capa 1" xmlns="http://www.w3.org/2000/svg" viewBox="0 0 1500 1500"><defs><style>.cls-1{fill:#f5333f;}.cls-2{fill:#009fe3;}</style></defs><path class="cls-1" d="M1196.4,1041.47l0-.29a30.28,30.28,0,1,1,0-60.55l216.24,0,49.84-211.8H998.58l-88.23,375.9h187.54v-.1a30.28,30.28,0,1,1,0,60.56H896.07l-64.41,270.1c202.23,23.75,348.69.15,405.18-23.31,91.84-38.15,160.48-107.06,174.66-206.18C1432.13,1101.45,1315.77,1047.4,1196.4,1041.47Z"/><path class="cls-2" d="M864.13,1144.76l62.39-264.19H841.18a55.86,55.86,0,0,1,0-111.71H952.9l62.39-264.17H841.18c-176.46,0-320,143.56-320,320s143.56,320,320,320Z"/><path class="cls-2" d="M840.3,1205.22c-159.25,0-295.45-100.17-349.12-240.82a310.28,310.28,0,0,0,37-147.39c0-172.24-139.62-311.87-311.89-311.87H35.5L97.8,768.86H206a55.86,55.86,0,1,1,0,111.71H124.16l58.65,248.3H216.3a312.27,312.27,0,0,0,56.11-5.13c98.63,191,275.17,317.55,514.79,346.12l62.65-264.64Z"/><path class="cls-1" d="M658,314.49v.06a491.44,491.44,0,0,0-31.12-40.27C515.51,157,554.7,18.68,554.7,18.68s-169.89,142.52-86.76,290c3.23,5.72,6.93,11.45,10.95,17.19h-.18s.39.42.94,1.11c.27.38.5.75.77,1.12.47.66.9,1.31,1.38,2h0c3.08,4.93,6.46,13.3-.32,20.08-7.16,7.16-15.81,5.73-20.39,4.21-1.07-.44-2.11-.91-3.21-1.34l.2-.2s-2.12-.6-5.58-1.87c-.75-.23-1.46-.52-2.23-.79a308.66,308.66,0,0,1-37.94-16.69c-15.64-8.26-31.84-18.94-42.41-31.62a187.51,187.51,0,0,0,5.57,48.07c16.42,66,63.45,104.53,63.45,104.53l-.66-.21A364.1,364.1,0,0,1,465,480.29a387.8,387.8,0,0,1,59.59,85.18s.3-.39.79-1.06c1.16-1.57,3.54-4.88,6.74-9.84a402,402,0,0,1,104.18-101l-.29.15c29.18-20.75,39.61-45.49,41.11-68.36C679.78,347.3,658,314.49,658,314.49Z"/></svg>