<?xml version="1.0" encoding="utf-8"?>
<!-- Generator: Adobe Illustrator 22.0.1, SVG Export Plug-In . SVG Version: 6.00 Build 0)  -->
<svg version="1.1" id="Capa_1" xmlns="http://www.w3.org/2000/svg" xmlns:xlink="http://www.w3.org/1999/xlink" x="0px" y="0px"
	 viewBox="0 0 294 275" style="enable-background:new 0 0 294 275;" xml:space="preserve">
<style type="text/css">
	.st1{fill:#1A2C66;}
	.st0{fill:#000000;}
</style>
<g>
	<g>
		<path class="st0" d="M32.3,207.5h7.4l7,22.8l7-22.8H61l-11.2,33.4h-6.4L32.3,207.5z"/>
		<path class="st0" d="M60.9,228.4v-0.5c0-7.5,5.1-13,12-13s11.9,5.4,11.9,12.9v0.5c0,7.5-5.1,13-11.9,13
			C65.9,241.3,60.9,235.9,60.9,228.4z M78.1,228.3V228c0-4.1-2.1-7.3-5.3-7.3c-3.4,0-5.3,3.1-5.3,7.2v0.3c0,4.1,2.1,7.3,5.4,7.3
			S78.1,232.4,78.1,228.3z"/>
		<path class="st0" d="M90.2,234.4V221h-2.6v-5.7h2.6v-6.5H97v6.5h5v5.7h-5v12c0,1.5,0.7,2.2,2.1,2.2c1,0,2-0.3,2.9-0.7v5.4
			c-1.3,0.8-2.9,1.3-5,1.3C93.1,241.1,90.2,239.6,90.2,234.4z"/>
		<path class="st0" d="M105.1,233.5v-0.3c0-5.6,3.6-8.1,8.9-8.1c2.1,0,3.7,0.4,5.3,1v-0.8c0-2.9-1.8-4.5-4.8-4.5
			c-2.4,0-4.3,0.8-5.8,1.4l-1.8-5.3c2.5-1.2,5-2,8.7-2c3.5,0,6.1,0.9,7.7,2.6c1.8,1.8,2.6,4.4,2.6,7.7v15.4h-6.6V238
			c-1.5,2-3.6,3.2-6.6,3.2C108.4,241.2,105.1,238.4,105.1,233.5z M119.3,232.4v-2.1c-1-0.5-2.4-0.8-3.7-0.8c-2.5,0-4,1.2-4,3.6v0.1
			c0,2.1,1.3,3.1,3.3,3.2C117.4,236.3,119.3,234.7,119.3,232.4z"/>
		<path class="st0" d="M129.9,228.4v-0.6c0-7.5,4.9-13,11.8-13c3.6,0,6.1,1.2,8.3,3.4l-3.6,4.9c-1.2-1.3-2.5-2.3-4.6-2.3
			c-3.1,0-5.2,2.9-5.2,7.1v0.2c0,4.2,1.9,7.2,5.3,7.2c2,0,3.3-0.9,4.6-2.3l3.6,4.5c-2.1,2.3-4.6,3.9-8.6,3.9
			C134.7,241.3,129.9,235.9,129.9,228.4z"/>
		<path class="st0" d="M154,206.5h7v6.1h-7V206.5z M154.1,215.3h6.7v25.4h-6.7V215.3z"/>
		<path class="st0" d="M165.5,228.4v-0.5c0-7.5,5.1-13,12-13s11.9,5.4,11.9,12.9v0.5c0,7.5-5.1,13-11.9,13
			C170.6,241.3,165.5,235.9,165.5,228.4z M182.8,228.3V228c0-4.1-2.1-7.3-5.3-7.3c-3.4,0-5.3,3.1-5.3,7.2v0.3c0,4.1,2.1,7.3,5.4,7.3
			C180.8,235.5,182.8,232.4,182.8,228.3z"/>
		<path class="st0" d="M193.9,215.3h6.7v3.4c1.5-2,3.3-3.9,6.5-3.9c4.7,0,7.5,3.3,7.5,8.6v17.3h-6.7v-15.3c0-3-1.3-4.5-3.6-4.5
			c-2.2,0-3.7,1.5-3.7,4.5v15.3h-6.7V215.3z"/>
		<path class="st0" d="M218.8,228.3v-0.4c0-7.5,4.7-13,11.1-13c7.3,0,10.8,5.9,10.8,13.5c0,0.4,0,1.2,0,2.2h-15.2
			c0.6,3.4,2.7,5.1,5.5,5.1c2.1,0,3.7-0.9,5.3-2.5l3.5,4.1c-2.3,2.6-5.3,4.1-9.1,4.1C224,241.3,218.8,236.2,218.8,228.3z
			 M234.2,226.1c-0.3-3.5-1.8-5.7-4.3-5.7s-4.1,2.1-4.5,5.7H234.2z"/>
		<path class="st0" d="M243.1,237.7l2.9-4.7c2.3,1.8,4.7,2.8,6.8,2.8c1.9,0,2.7-0.9,2.7-1.9v-0.1c0-1.5-1.9-2.1-4.6-3.3
			c-3.6-1.6-6.7-3.4-6.7-7.7v-0.1c0-4.9,3.8-7.8,8.7-7.8c2.7,0,5.8,0.9,8.4,2.7l-2.7,4.8c-1.9-1.2-4-2.2-5.8-2.2
			c-1.6,0-2.5,0.8-2.5,1.8v0.1c0,1.3,1.9,2.1,4.6,3.3c3.7,1.8,6.7,3.6,6.7,7.6v0.1c0,5.3-3.9,7.9-9,7.9
			C249.8,241.2,246.2,240.2,243.1,237.7z"/>
	</g>
	<g>
		<path class="st1" d="M211.5,132.5c0-9.6-8.1-17.4-18.2-17.4H193c-10,0-18.2,7.8-18.2,17.4c0,9.4,7.8,17.1,17.9,17.4h1.2
			C203.7,149.6,211.5,141.9,211.5,132.5z M184,132.5c0-4.6,4.1-8.3,9.1-8.3h0.3c5,0,9.1,3.7,9.1,8.3s-4.1,8.3-9.4,8.3
			C188,140.8,184,137.1,184,132.5z"/>
		<path class="st1" d="M219.7,160.1c0-5.7-4.7-10.2-10.6-10.2H194c-0.2,0-0.4,0-0.6,0c-0.2,0-0.4,0-0.6,0h-14
			c-5.8,0-10.6,4.6-10.6,10.2v18.6h9.1v-18.6c0-0.6,0.7-1.1,1.5-1.1h30.4c0.8,0,1.5,0.5,1.5,1.1v19.1h9.1L219.7,160.1L219.7,160.1z"
			/>
		<path class="st1" d="M130.7,49.6c0,7.4,5.3,13.6,12.6,15.4h8.5c7.1-1.8,12.4-8,12.4-15.4c0-8.8-7.4-15.9-16.6-15.9h-0.3
			C138.2,33.7,130.7,40.9,130.7,49.6z M147.3,42.8h0.3c4.1,0,7.5,3.1,7.5,6.8s-3.4,6.8-7.8,6.8c-4.1,0-7.5-3.1-7.5-6.8
			S143.2,42.8,147.3,42.8z"/>
		<path class="st1" d="M143.3,65h-13.1c-6.3,0-11.4,4.9-11.4,11v21.1h9.1v-21c0-1,1-1.9,2.3-1.9h34.5c1.2,0,2.3,0.9,2.3,1.9v21.7
			h9.1V76.1c0-6.1-5.1-11-11.4-11h-13c-1.3,0.3-2.7,0.5-4.2,0.5C146.1,65.6,144.7,65.4,143.3,65z"/>
		<path class="st1" d="M98.9,149.9h1.2c9.7-0.3,17.6-8,17.6-17.4c0-9.6-8.1-17.4-18.2-17.4h-0.3c-10,0-18.2,7.8-18.2,17.4
			C81,141.9,88.9,149.6,98.9,149.9z M99.2,124.2h0.3c5,0,9.1,3.7,9.1,8.3s-4.1,8.3-9.4,8.3c-5,0-9.1-3.7-9.1-8.3
			C90.1,127.9,94.2,124.2,99.2,124.2z"/>
		<path class="st1" d="M98.9,149.9h-14c-5.8,0-10.6,4.6-10.6,10.2v18.6h9.1v-18.6c0-0.6,0.7-1.1,1.5-1.1h30.4c0.8,0,1.5,0.5,1.5,1.1
			v19.1h9.1v-19.1c0-5.7-4.7-10.2-10.6-10.2h-15.1c-0.2,0-0.4,0-0.6,0C99.3,149.9,99.1,149.9,98.9,149.9z"/>
		<polygon class="st1" points="142.9,105.5 142.9,120.4 127.4,128.5 131.6,136.5 147.5,128.2 145.4,127.2 149.6,119.1 152,120.3 
			152,105.5 		"/>
		<polygon class="st1" points="147.5,128.2 163.5,136.5 167.7,128.4 152,120.3 152,125.9 		"/>
		<polygon class="st1" points="145.4,127.2 147.5,128.2 152,125.9 152,120.3 149.6,119.1 		"/>
	</g>
</g>
</svg>
