<?xml version="1.0" encoding="utf-8"?>
<!-- Generator: Adobe Illustrator 22.0.1, SVG Export Plug-In . SVG Version: 6.00 Build 0)  -->
<svg version="1.1" id="Capa_1" xmlns="http://www.w3.org/2000/svg" xmlns:xlink="http://www.w3.org/1999/xlink" x="0px" y="0px"
	 viewBox="0 0 294 275" style="enable-background:new 0 0 294 275;" xml:space="preserve">
<style type="text/css">
	.st1{fill:#1A2C66;}
	.st0{fill:#000000;}
</style>
<g>
	<g>
		<path class="st0" d="M54.8,223l4.1-5.1c2.2,1.9,4.9,3.7,8.2,3.7c2.7,0,4.3-1.3,4.3-3.3l0,0c0-1.7-0.9-2.7-5.7-4.5
			c-5.9-2.3-9.5-4.5-9.5-10.2v-0.1c0-5.8,4.5-9.7,10.9-9.7c3.9,0,7.7,1.3,10.7,4.1l-3.8,5.2c-2.1-1.7-4.5-3.1-7.1-3.1
			c-2.4,0-3.8,1.2-3.8,2.9l0,0c0,1.9,1.1,2.8,6.3,4.9c5.8,2.3,8.9,4.7,8.9,9.9v0.1c0,6.2-4.7,10-11.1,10
			C62.8,227.9,58.4,226.4,54.8,223z"/>
		<path class="st0" d="M81.6,215v-0.4c0-7.5,4.7-13,11.1-13c7.3,0,10.8,5.9,10.8,13.5c0,0.4,0,1.2,0,2.2H88.3
			c0.6,3.4,2.7,5.1,5.5,5.1c2.1,0,3.7-0.9,5.3-2.5l3.5,4.1c-2.3,2.6-5.3,4.1-9.1,4.1C86.7,228,81.6,222.9,81.6,215z M97,212.8
			c-0.3-3.5-1.8-5.7-4.3-5.7s-4.1,2.1-4.5,5.7H97z"/>
		<path class="st0" d="M105.9,224.4l2.9-4.7c2.3,1.8,4.7,2.8,6.8,2.8c1.9,0,2.7-0.9,2.7-1.9v-0.1c0-1.5-1.9-2.1-4.6-3.3
			c-3.6-1.6-6.7-3.4-6.7-7.7v-0.1c0-4.9,3.8-7.8,8.7-7.8c2.7,0,5.8,0.9,8.4,2.7l-2.7,4.8c-1.9-1.2-4-2.2-5.8-2.2
			c-1.6,0-2.5,0.8-2.5,1.8v0.1c0,1.3,1.9,2.1,4.6,3.3c3.7,1.8,6.7,3.6,6.7,7.6v0.1c0,5.3-3.9,7.9-9,7.9
			C112.6,227.9,109,226.9,105.9,224.4z"/>
		<path class="st0" d="M128.7,193.2h7v6.1h-7V193.2z M128.9,202h6.7v25.4h-6.7V202z"/>
		<path class="st0" d="M140.3,215.1v-0.5c0-7.5,5.1-13,12-13s11.9,5.4,11.9,12.9v0.5c0,7.5-5.1,13-11.9,13
			C145.4,228,140.3,222.7,140.3,215.1z M157.5,215v-0.3c0-4.1-2.1-7.3-5.3-7.3c-3.4,0-5.3,3.1-5.3,7.2v0.3c0,4.1,2.1,7.3,5.4,7.3
			C155.6,222.2,157.5,219.1,157.5,215z"/>
		<path class="st0" d="M168.6,202h6.7v3.4c1.5-2,3.3-3.9,6.5-3.9c4.7,0,7.5,3.3,7.5,8.6v17.3h-6.7v-15.3c0-3-1.3-4.5-3.6-4.5
			c-2.2,0-3.7,1.5-3.7,4.5v15.3h-6.7V202z"/>
		<path class="st0" d="M193.5,215v-0.4c0-7.5,4.7-13,11.1-13c7.3,0,10.8,5.9,10.8,13.5c0,0.4,0,1.2,0,2.2h-15.2
			c0.6,3.4,2.7,5.1,5.5,5.1c2.1,0,3.7-0.9,5.3-2.5l3.5,4.1c-2.3,2.6-5.3,4.1-9.1,4.1C198.7,228,193.5,222.9,193.5,215z M208.9,212.8
			c-0.3-3.5-1.8-5.7-4.3-5.7s-4.1,2.1-4.5,5.7H208.9z"/>
		<path class="st0" d="M217.9,224.4l2.9-4.7c2.3,1.8,4.7,2.8,6.8,2.8c1.9,0,2.7-0.9,2.7-1.9v-0.1c0-1.5-1.9-2.1-4.6-3.3
			c-3.6-1.6-6.7-3.4-6.7-7.7v-0.1c0-4.9,3.8-7.8,8.7-7.8c2.7,0,5.8,0.9,8.4,2.7l-2.7,4.8c-1.9-1.2-4-2.2-5.8-2.2
			c-1.6,0-2.5,0.8-2.5,1.8v0.1c0,1.3,1.9,2.1,4.6,3.3c3.7,1.8,6.7,3.6,6.7,7.6v0.1c0,5.3-3.9,7.9-9,7.9
			C224.5,227.9,221,226.9,217.9,224.4z"/>
	</g>
	<g>
		<rect x="50.2" y="86.2" class="st1" width="20.2" height="20.2"/>
		<rect x="131" y="86.2" class="st1" width="20.2" height="20.2"/>
		<rect x="90.6" y="86.2" class="st1" width="20.2" height="20.2"/>
		<rect x="211.8" y="86.2" class="st1" width="20.2" height="20.2"/>
		<rect x="171.4" y="86.2" class="st1" width="20.2" height="20.2"/>
		<rect x="70.8" y="123.1" class="st1" width="20.2" height="20.2"/>
		<rect x="151.5" y="123.1" class="st1" width="20.2" height="20.2"/>
		<rect x="111.2" y="123.1" class="st1" width="20.2" height="20.2"/>
		<rect x="191.9" y="123.1" class="st1" width="20.2" height="20.2"/>
		<rect x="157.1" y="47" class="st1" width="20.2" height="20.2"/>
		<rect x="76.3" y="47" class="st1" width="20.2" height="20.2"/>
		<rect x="197.5" y="47" class="st1" width="20.2" height="20.2"/>
		<rect x="116.7" y="47" class="st1" width="20.2" height="20.2"/>
		<rect x="36" y="47" class="st1" width="20.2" height="20.2"/>
		<rect x="237.9" y="47" class="st1" width="20.2" height="20.2"/>
	</g>
</g>
</svg>
