<?xml version="1.0" encoding="utf-8"?>
<!-- Generator: Adobe Illustrator 22.0.1, SVG Export Plug-In . SVG Version: 6.00 Build 0)  -->
<svg version="1.1" id="Capa_1" xmlns="http://www.w3.org/2000/svg" xmlns:xlink="http://www.w3.org/1999/xlink" x="0px" y="0px"
	 viewBox="0 0 294 275" style="enable-background:new 0 0 294 275;" xml:space="preserve">
<style type="text/css">
	.st0{fill:#1A2C66;}
	.st1{fill:#000000;}
</style>
<g>
	<g>
		<polygon class="st0" points="81.8,182.8 211.7,182.8 211.7,178.3 204.5,181.6 204.5,173.4 91.2,173.4 91.2,42.6 204.5,42.6 
			204.5,173.4 211.7,173.4 211.7,178.3 213.9,177.4 213.9,33.1 81.8,33.1 		"/>
		<rect x="101.2" y="60.2" class="st0" width="93.2" height="9.4"/>
		<rect x="101.2" y="79.4" class="st0" width="93.2" height="9.4"/>
		<rect x="101.2" y="98.6" class="st0" width="93.2" height="9.4"/>
		<rect x="101.2" y="117.8" class="st0" width="93.2" height="9.4"/>
		<rect x="101.2" y="137" class="st0" width="93.2" height="9.4"/>
	</g>
	<g>
		<path class="st1" d="M64.1,208.1h6.3l12.7,19.3v-19.3h6.7v33.2H84l-13.1-20v20h-6.7v-33.2H64.1z"/>
		<path class="st1" d="M94.9,228.9v-0.5c0-7.5,5.1-13,12-13s11.9,5.4,11.9,12.9v0.5c0,7.5-5.1,13-11.9,13
			C100,241.9,94.9,236.5,94.9,228.9z M112.2,228.8v-0.3c0-4.1-2.1-7.3-5.3-7.3c-3.4,0-5.3,3.1-5.3,7.2v0.3c0,4.1,2.1,7.3,5.4,7.3
			C110.2,236,112.2,232.9,112.2,228.8z"/>
		<path class="st1" d="M124.3,234.9v-13.4h-2.6v-5.7h2.6v-6.5h6.7v6.5h5v5.7h-5v12c0,1.5,0.7,2.2,2.1,2.2c1,0,2-0.3,2.9-0.7v5.4
			c-1.3,0.8-2.9,1.3-5,1.3C127.1,241.7,124.3,240.2,124.3,234.9z"/>
		<path class="st1" d="M140.5,207.1h7v6.1h-7V207.1z M140.7,215.9h6.7v25.4h-6.7V215.9z"/>
		<path class="st1" d="M152.1,229v-0.6c0-7.5,4.9-13,11.8-13c3.6,0,6.1,1.2,8.3,3.4l-3.6,4.9c-1.2-1.3-2.5-2.3-4.6-2.3
			c-3.1,0-5.2,2.9-5.2,7.1v0.2c0,4.2,1.9,7.2,5.3,7.2c2,0,3.3-0.9,4.6-2.3l3.6,4.5c-2.1,2.3-4.6,3.9-8.6,3.9
			C156.9,241.9,152.1,236.5,152.1,229z"/>
		<path class="st1" d="M176.1,207.1h7v6.1h-7V207.1z M176.3,215.9h6.7v25.4h-6.7V215.9z"/>
		<path class="st1" d="M187.3,234v-0.3c0-5.6,3.6-8.1,8.9-8.1c2.1,0,3.7,0.4,5.3,1v-0.8c0-2.9-1.8-4.5-4.8-4.5
			c-2.4,0-4.3,0.8-5.8,1.4l-1.8-5.3c2.5-1.2,5-2,8.7-2c3.5,0,6.1,0.9,7.7,2.6c1.8,1.8,2.6,4.4,2.6,7.7v15.4h-6.6v-2.7
			c-1.5,2-3.6,3.2-6.6,3.2C190.7,241.8,187.3,239,187.3,234z M201.6,232.9v-2.1c-1-0.5-2.4-0.8-3.7-0.8c-2.5,0-4,1.2-4,3.6v0.1
			c0,2.1,1.3,3.1,3.3,3.2C199.7,236.9,201.6,235.3,201.6,232.9z"/>
		<path class="st1" d="M211.3,238.3l2.9-4.7c2.3,1.8,4.7,2.8,6.8,2.8c1.9,0,2.7-0.9,2.7-1.9v-0.1c0-1.5-1.9-2.1-4.6-3.3
			c-3.6-1.6-6.7-3.4-6.7-7.7v-0.1c0-4.9,3.8-7.8,8.7-7.8c2.7,0,5.8,0.9,8.4,2.7l-2.7,4.8c-1.9-1.2-4-2.2-5.8-2.2
			c-1.6,0-2.5,0.8-2.5,1.8v0.1c0,1.3,1.9,2.1,4.6,3.3c3.7,1.8,6.7,3.6,6.7,7.6v0.1c0,5.3-3.9,7.9-9,7.9
			C217.9,241.8,214.4,240.8,211.3,238.3z"/>
	</g>
</g>
</svg>
