<?xml version="1.0" encoding="utf-8"?>
<!-- Generator: Adobe Illustrator 22.0.1, SVG Export Plug-In . SVG Version: 6.00 Build 0)  -->
<svg version="1.1" id="Capa_1" xmlns="http://www.w3.org/2000/svg" xmlns:xlink="http://www.w3.org/1999/xlink" x="0px" y="0px"
	 viewBox="0 0 294 275" style="enable-background:new 0 0 294 275;" xml:space="preserve">
<style type="text/css">
	.st0{fill:#1A2C66;}
	.st1{fill:#000000;}
</style>
<g>
	<path class="st0" d="M160.3,74.4l-15.9-32.3l-15.9,32.3l-35.6,5.2l25.7,25.1l-6.1,35.4l31.8-16.7l31.8,16.7l-6.1-35.4l25.7-25.1
		L160.3,74.4z M158.1,115.2l-13.7-7.2l-13.7,7.2l2.6-15.3l-11.1-10.8l15.3-2.2l6.9-13.9l6.9,13.9l15.3,2.2l-11.1,10.8L158.1,115.2z"
		/>
	<g>
		<path class="st1" d="M52.1,199.1h21.4v6.3H59v7.4h12.7v6.3H59v13.1h-6.9V199.1z"/>
		<path class="st1" d="M75.4,225.1v-0.3c0-5.6,3.6-8.1,8.9-8.1c2.1,0,3.7,0.4,5.3,1V217c0-2.9-1.8-4.5-4.8-4.5
			c-2.4,0-4.3,0.8-5.8,1.4l-1.8-5.3c2.5-1.2,5-2,8.7-2c3.5,0,6.1,0.9,7.7,2.6c1.8,1.8,2.6,4.4,2.6,7.7v15.4h-6.6v-2.7
			c-1.5,2-3.6,3.2-6.6,3.2C78.7,232.8,75.4,230,75.4,225.1z M89.6,224v-2.1c-1-0.5-2.4-0.8-3.7-0.8c-2.5,0-4,1.2-4,3.6v0.1
			c0,2.1,1.3,3.1,3.3,3.2C87.7,227.9,89.6,226.3,89.6,224z"/>
		<path class="st1" d="M98.4,206.9h7l4.7,16.9l4.8-16.9h6.8l-8.5,25.6H107L98.4,206.9z"/>
		<path class="st1" d="M123,219.9v-0.5c0-7.5,5.1-13,12-13s11.9,5.4,11.9,12.9v0.5c0,7.5-5.1,13-11.9,13
			C128.1,232.9,123,227.5,123,219.9z M140.3,219.8v-0.3c0-4.1-2.1-7.3-5.3-7.3c-3.4,0-5.3,3.1-5.3,7.2v0.3c0,4.1,2.1,7.3,5.4,7.3
			C138.3,227,140.3,224,140.3,219.8z"/>
		<path class="st1" d="M151.4,206.9h6.7v4.5c1.2-3.1,3.3-5.1,6.9-4.9v7.3h-0.3c-4.1,0-6.6,2.6-6.6,7.9v10.7h-6.7L151.4,206.9
			L151.4,206.9z"/>
		<path class="st1" d="M168.8,198.1h7v6.1h-7V198.1z M169,206.9h6.7v25.4H169V206.9z"/>
		<path class="st1" d="M182.4,226v-13.4h-2.6v-5.7h2.6v-6.5h6.7v6.5h5v5.7h-5v12c0,1.5,0.7,2.2,2.1,2.2c1,0,2-0.3,2.9-0.7v5.4
			c-1.3,0.8-2.9,1.3-5,1.3C185.3,232.7,182.4,231.2,182.4,226z"/>
		<path class="st1" d="M196.9,219.9v-0.5c0-7.5,5.1-13,12-13s11.9,5.4,11.9,12.9v0.5c0,7.5-5.1,13-11.9,13
			C202,232.9,196.9,227.5,196.9,219.9z M214.2,219.8v-0.3c0-4.1-2.1-7.3-5.3-7.3c-3.4,0-5.3,3.1-5.3,7.2v0.3c0,4.1,2.1,7.3,5.4,7.3
			C212.2,227,214.2,224,214.2,219.8z"/>
		<path class="st1" d="M223.3,229.3l2.9-4.7c2.3,1.8,4.7,2.8,6.8,2.8c1.9,0,2.7-0.9,2.7-1.9v-0.1c0-1.5-1.9-2.1-4.6-3.3
			c-3.6-1.6-6.7-3.4-6.7-7.7v-0.1c0-4.9,3.8-7.8,8.7-7.8c2.7,0,5.8,0.9,8.4,2.7l-2.7,4.8c-1.9-1.2-4-2.2-5.8-2.2
			c-1.6,0-2.5,0.8-2.5,1.8v0.1c0,1.3,1.9,2.1,4.6,3.3c3.7,1.8,6.7,3.6,6.7,7.6v0.1c0,5.3-3.9,7.9-9,7.9
			C230,232.8,226.4,231.8,223.3,229.3z"/>
	</g>
</g>
</svg>
