<?xml version="1.0" encoding="utf-8"?>
<!-- Generator: Adobe Illustrator 22.0.1, SVG Export Plug-In . SVG Version: 6.00 Build 0)  -->
<svg version="1.1" id="Capa_1" xmlns="http://www.w3.org/2000/svg" xmlns:xlink="http://www.w3.org/1999/xlink" x="0px" y="0px"
	 viewBox="0 0 155 150" style="enable-background:new 0 0 294 275;" xml:space="preserve">
<style type="text/css">
	.st1{fill:#1A2C66;}
	.st0{fill:#000000;}
</style>
<g transform="translate(-70,-30)">
		<path class="st1" d="M211.5,132.5c0-9.6-8.1-17.4-18.2-17.4H193c-10,0-18.2,7.8-18.2,17.4c0,9.4,7.8,17.1,17.9,17.4h1.2
			C203.7,149.6,211.5,141.9,211.5,132.5z M184,132.5c0-4.6,4.1-8.3,9.1-8.3h0.3c5,0,9.1,3.7,9.1,8.3s-4.1,8.3-9.4,8.3
			C188,140.8,184,137.1,184,132.5z"/>
		<path class="st1" d="M219.7,160.1c0-5.7-4.7-10.2-10.6-10.2H194c-0.2,0-0.4,0-0.6,0c-0.2,0-0.4,0-0.6,0h-14
			c-5.8,0-10.6,4.6-10.6,10.2v18.6h9.1v-18.6c0-0.6,0.7-1.1,1.5-1.1h30.4c0.8,0,1.5,0.5,1.5,1.1v19.1h9.1L219.7,160.1L219.7,160.1z"
			/>
		<path class="st1" d="M130.7,49.6c0,7.4,5.3,13.6,12.6,15.4h8.5c7.1-1.8,12.4-8,12.4-15.4c0-8.8-7.4-15.9-16.6-15.9h-0.3
			C138.2,33.7,130.7,40.9,130.7,49.6z M147.3,42.8h0.3c4.1,0,7.5,3.1,7.5,6.8s-3.4,6.8-7.8,6.8c-4.1,0-7.5-3.1-7.5-6.8
			S143.2,42.8,147.3,42.8z"/>
		<path class="st1" d="M143.3,65h-13.1c-6.3,0-11.4,4.9-11.4,11v21.1h9.1v-21c0-1,1-1.9,2.3-1.9h34.5c1.2,0,2.3,0.9,2.3,1.9v21.7
			h9.1V76.1c0-6.1-5.1-11-11.4-11h-13c-1.3,0.3-2.7,0.5-4.2,0.5C146.1,65.6,144.7,65.4,143.3,65z"/>
		<path class="st1" d="M98.9,149.9h1.2c9.7-0.3,17.6-8,17.6-17.4c0-9.6-8.1-17.4-18.2-17.4h-0.3c-10,0-18.2,7.8-18.2,17.4
			C81,141.9,88.9,149.6,98.9,149.9z M99.2,124.2h0.3c5,0,9.1,3.7,9.1,8.3s-4.1,8.3-9.4,8.3c-5,0-9.1-3.7-9.1-8.3
			C90.1,127.9,94.2,124.2,99.2,124.2z"/>
		<path class="st1" d="M98.9,149.9h-14c-5.8,0-10.6,4.6-10.6,10.2v18.6h9.1v-18.6c0-0.6,0.7-1.1,1.5-1.1h30.4c0.8,0,1.5,0.5,1.5,1.1
			v19.1h9.1v-19.1c0-5.7-4.7-10.2-10.6-10.2h-15.1c-0.2,0-0.4,0-0.6,0C99.3,149.9,99.1,149.9,98.9,149.9z"/>
		<polygon class="st1" points="142.9,105.5 142.9,120.4 127.4,128.5 131.6,136.5 147.5,128.2 145.4,127.2 149.6,119.1 152,120.3 
			152,105.5 		"/>
		<polygon class="st1" points="147.5,128.2 163.5,136.5 167.7,128.4 152,120.3 152,125.9 		"/>
		<polygon class="st1" points="145.4,127.2 147.5,128.2 152,125.9 152,120.3 149.6,119.1 		"/>
</g>
</svg>
