<?xml version="1.0" encoding="utf-8"?>
<!-- Generator: Adobe Illustrator 22.0.1, SVG Export Plug-In . SVG Version: 6.00 Build 0)  -->
<svg version="1.1" id="Capa_1" xmlns="http://www.w3.org/2000/svg" xmlns:xlink="http://www.w3.org/1999/xlink" x="0px" y="0px"
	 viewBox="0 0 1225.8 183.1" style="enable-background:new 0 0 1225.8 183.1;" xml:space="preserve">
<style type="text/css">
	.st0{fill:url(#SVGID_1_);}
	.st1{fill:none;stroke:#999999;stroke-width:0.3029;}
	.st2{fill:none;stroke:#B3B3B3;stroke-width:3.0292;stroke-miterlimit:10;}
	.st3{fill:url(#SVGID_2_);}
	.st4{fill:none;stroke:#CCCCCC;stroke-width:3.0292;stroke-miterlimit:10;}
	.st5{fill:url(#SVGID_3_);}
	.st6{fill:url(#SVGID_4_);}
	.st7{fill:url(#SVGID_5_);}
	.st8{enable-background:new    ;}
</style>
<g>
	<g>
		<g>
			<g>
				<g>
					<g>
						
							<linearGradient id="SVGID_1_" gradientUnits="userSpaceOnUse" x1="612.9" y1="294.7637" x2="612.9" y2="-57.3142" gradientTransform="matrix(1 0 0 -1 0 186)">
							<stop  offset="3.690327e-03" style="stop-color:#29A3DA"/>
							<stop  offset="0.3204" style="stop-color:#26A0D8"/>
							<stop  offset="0.5764" style="stop-color:#1E96D0"/>
							<stop  offset="0.8105" style="stop-color:#1085C3"/>
							<stop  offset="1" style="stop-color:#0071B4"/>
						</linearGradient>
						<path class="st0" d="M1219.1,91.5c0-45.9-37.2-83.1-83.1-83.1H89.8C43.9,8.4,6.7,45.6,6.7,91.5l0,0
							c0,45.9,37.2,83.1,83.1,83.1H1136C1181.9,174.7,1219.1,137.5,1219.1,91.5L1219.1,91.5z"/>
						<path class="st1" d="M1219.1,91.5c0-45.9-37.2-83.1-83.1-83.1H89.8C43.9,8.4,6.7,45.6,6.7,91.5l0,0
							c0,45.9,37.2,83.1,83.1,83.1H1136C1181.9,174.7,1219.1,137.5,1219.1,91.5L1219.1,91.5z"/>
						<path class="st2" d="M129.7,8.4c0,0,34.2,71.3,73.7,77.5c39.6,6.2,81.5,88.7,81.5,88.7"/>
						
							<linearGradient id="SVGID_2_" gradientUnits="userSpaceOnUse" x1="675.95" y1="218.1686" x2="675.95" y2="-20.9867" gradientTransform="matrix(1 0 0 -1 0 186)">
							<stop  offset="0" style="stop-color:#FFFFFF"/>
							<stop  offset="0.1753" style="stop-color:#F7F7F7"/>
							<stop  offset="0.41" style="stop-color:#F2F2F2"/>
							<stop  offset="0.705" style="stop-color:#E1E1E1"/>
							<stop  offset="1" style="stop-color:#CCCCCC"/>
						</linearGradient>
						<path class="st3" d="M1136,174.7H288.1c0,0-41.9-82.5-81.5-88.7C167,79.7,132.8,8.4,132.8,8.4H1136
							c45.9,0,83.1,37.2,83.1,83.1C1219.1,137.5,1181.9,174.7,1136,174.7z"/>
						<path class="st4" d="M132.8,8.4c0,0,34.2,71.3,73.7,77.5c39.6,6.2,81.5,88.7,81.5,88.7"/>
					</g>
				</g>
			</g>
			<g>
				<g>
					
						<radialGradient id="SVGID_3_" cx="-2121.2996" cy="897.6709" r="44.5" gradientTransform="matrix(0 -1 -1 0 992.9709 -2025.3997)" gradientUnits="userSpaceOnUse">
						<stop  offset="2.296639e-03" style="stop-color:#29A3DA"/>
						<stop  offset="0.3194" style="stop-color:#26A0D8"/>
						<stop  offset="0.5758" style="stop-color:#1E96D0"/>
						<stop  offset="0.8103" style="stop-color:#1085C3"/>
						<stop  offset="1" style="stop-color:#0071B4"/>
					</radialGradient>
					<path class="st5" d="M95.3,51.4c24.6,0,44.5,19.9,44.5,44.5s-19.9,44.5-44.5,44.5s-44.5-19.9-44.5-44.5
						C50.8,71.3,70.7,51.4,95.3,51.4z"/>
					
						<linearGradient id="SVGID_4_" gradientUnits="userSpaceOnUse" x1="-2167.5996" y1="897.3209" x2="-2074.9998" y2="897.3209" gradientTransform="matrix(0 -1 -1 0 992.9709 -2025.3997)">
						<stop  offset="0" style="stop-color:#FFFFFF"/>
						<stop  offset="0.1753" style="stop-color:#F7F7F7"/>
						<stop  offset="0.41" style="stop-color:#F2F2F2"/>
						<stop  offset="0.705" style="stop-color:#E1E1E1"/>
						<stop  offset="1" style="stop-color:#CCCCCC"/>
					</linearGradient>
					<path class="st6" d="M49.3,95.9c0,25.6,20.7,46.3,46.3,46.3S142,121.5,142,95.9s-20.8-46.3-46.3-46.3S49.3,70.3,49.3,95.9z
						 M136.6,95.9c0,22.6-18.3,40.9-40.9,40.9s-40.9-18.3-40.9-40.9S73.1,55,95.7,55C118.3,54.9,136.6,73.2,136.6,95.9z"/>
					
						<linearGradient id="SVGID_5_" gradientUnits="userSpaceOnUse" x1="-2205.1389" y1="913.1548" x2="-2040.3302" y2="876.1665" gradientTransform="matrix(0 -1 -1 0 992.9709 -2025.3997)">
						<stop  offset="0" style="stop-color:#FFFFFF"/>
						<stop  offset="0.1753" style="stop-color:#F7F7F7"/>
						<stop  offset="0.41" style="stop-color:#F2F2F2"/>
						<stop  offset="0.705" style="stop-color:#E1E1E1"/>
						<stop  offset="1" style="stop-color:#CCCCCC"/>
					</linearGradient>
					<path class="st7" d="M81.7,117c0,0,24.9-29.3,24.9-21.1S81.7,74.8,81.7,74.8l38.6,21.1L81.7,117z"/>
				</g>
			</g>
		</g>
	</g>
	<g class="st8">
		<path d="M294.5,75.6h9.3l4.7,20.6l5.4-20.7h7.9l5.5,20.8l4.8-20.6h9.2l-9.3,35h-8.5L317.8,90l-5.6,20.6h-8.4L294.5,75.6z"/>
		<path d="M342.9,75.6h9.3l4.7,20.6l5.4-20.7h7.9l5.5,20.8l4.8-20.6h9.2l-9.3,35h-8.5L366.2,90l-5.6,20.6h-8.4L342.9,75.6z"/>
		<path d="M391.4,75.6h9.3l4.7,20.6l5.4-20.7h7.9l5.5,20.8l4.8-20.6h9.2l-9.3,35h-8.5L414.7,90l-5.6,20.6h-8.4L391.4,75.6z"/>
		<path d="M438.9,100.4H449v10h-10.1V100.4z"/>
		<path d="M454.5,100.5v-0.4c0-7.7,5-11.1,12.1-11.1c2.9,0,5.1,0.6,7.3,1.4v-1c0-4-2.4-6.1-6.6-6.1c-3.2,0-5.8,1-8,1.9l-2.5-7.2
			c3.4-1.7,6.9-2.8,11.9-2.8c4.7,0,8.3,1.3,10.6,3.6c2.4,2.4,3.6,6,3.6,10.5v21.1h-9v-3.8c-2.1,2.7-4.9,4.4-9,4.4
			C459.1,111,454.5,107.2,454.5,100.5z M474,99v-2.9c-1.4-0.6-3.2-1.1-5.1-1.1c-3.4,0-5.5,1.7-5.5,4.9v0.1c0,2.9,1.8,4.3,4.5,4.3
			C471.4,104.4,474,102.2,474,99z"/>
		<path d="M487.3,106.2l4-6.5c3.1,2.4,6.4,3.9,9.3,3.9c2.6,0,3.7-1.2,3.7-2.7v-0.1c0-2-2.6-2.9-6.4-4.5c-4.9-2.1-9.2-4.6-9.2-10.5
			v-0.1c0-6.7,5.2-10.6,11.9-10.6c3.8,0,8,1.3,11.5,3.8l-3.7,6.6c-2.6-1.7-5.5-3-7.9-3c-2.2,0-3.4,1.1-3.4,2.5v0.1
			c0,1.8,2.6,2.9,6.3,4.5c5.1,2.4,9.2,4.9,9.2,10.4v0.1c0,7.2-5.3,10.8-12.3,10.8C496.4,111,491.5,109.7,487.3,106.2z"/>
		<path d="M516.5,100.5v-0.4c0-7.7,5-11.1,12.1-11.1c2.9,0,5.1,0.6,7.3,1.4v-1c0-4-2.4-6.1-6.6-6.1c-3.2,0-5.8,1-8,1.9l-2.5-7.2
			c3.4-1.7,6.9-2.8,11.9-2.8c4.7,0,8.3,1.3,10.6,3.6c2.4,2.4,3.6,6,3.6,10.5v21.1h-9v-3.8c-2.1,2.7-4.9,4.4-9,4.4
			C521.1,111,516.5,107.2,516.5,100.5z M536.1,99v-2.9c-1.4-0.6-3.2-1.1-5.1-1.1c-3.4,0-5.5,1.7-5.5,4.9v0.1c0,2.9,1.8,4.3,4.5,4.3
			C533.5,104.4,536.1,102.2,536.1,99z"/>
		<path d="M552,75.6h9.2v4.7c2.1-2.9,4.7-5.3,9-5.3c4,0,6.9,1.9,8.6,5.1c2.5-3,5.6-5.1,9.9-5.1c6.2,0,10.3,4,10.3,11.7v23.8h-9.2
			v-21c0-4-1.8-6.2-4.8-6.2c-3,0-4.9,2.1-4.9,6.2v21h-9.2v-21c0-4-1.7-6.2-4.7-6.2c-3.1,0-4.9,2.1-4.9,6.2v21H552V75.6z"/>
		<path d="M615.4,105.9v4.5h-9.2V63.5h9.2v16.9c2-2.9,4.8-5.5,9.4-5.5c6.9,0,13.2,5.6,13.2,17.5v1c0,11.9-6.3,17.5-13.2,17.5
			C620.2,111,617.4,108.5,615.4,105.9z M628.9,93.3v-0.6c0-5.9-2.9-9.7-6.7-9.7s-6.8,3.8-6.8,9.7v0.6c0,5.9,3,9.7,6.8,9.7
			S628.9,99.2,628.9,93.3z"/>
		<path d="M644.6,63.5h9.2v46.9h-9.2V63.5z"/>
		<path d="M660.1,93.4v-0.6c0-10.3,6.4-17.8,15.2-17.8c9.9,0,14.8,8.1,14.8,18.5c0,0.5,0,1.6-0.1,3h-20.8c0.8,4.6,3.6,7,7.5,7
			c2.9,0,5.1-1.3,7.3-3.4l4.7,5.6c-3.2,3.5-7.2,5.6-12.4,5.6C667.2,111.2,660.1,104.2,660.1,93.4z M681.2,90.3
			c-0.4-4.8-2.5-7.8-5.9-7.8c-3.4,0-5.6,2.9-6.1,7.8H681.2z"/>
		<path d="M694.3,100.5v-0.4c0-7.7,5-11.1,12.1-11.1c2.9,0,5.1,0.6,7.3,1.4v-1c0-4-2.4-6.1-6.6-6.1c-3.2,0-5.8,1-8,1.9l-2.5-7.2
			c3.4-1.7,6.9-2.8,11.9-2.8c4.7,0,8.3,1.3,10.6,3.6c2.4,2.4,3.6,6,3.6,10.5v21.1h-9v-3.8c-2.1,2.7-4.9,4.4-9,4.4
			C698.9,111,694.3,107.2,694.3,100.5z M713.9,99v-2.9c-1.4-0.6-3.2-1.1-5.1-1.1c-3.4,0-5.5,1.7-5.5,4.9v0.1c0,2.9,1.8,4.3,4.5,4.3
			C711.3,104.4,713.9,102.2,713.9,99z"/>
		<path d="M729.8,75.6h9.2v4.7c2-2.8,4.5-5.3,9-5.3c6.5,0,10.3,4.5,10.3,11.7v23.7H749v-21c0-4.1-1.8-6.2-4.9-6.2
			c-3.1,0-5.1,2.1-5.1,6.2v21h-9.2V75.6z"/>
		<path d="M763.5,100.5v-0.4c0-7.7,5-11.1,12.1-11.1c2.9,0,5.1,0.6,7.3,1.4v-1c0-4-2.4-6.1-6.6-6.1c-3.2,0-5.8,1-8,1.9l-2.5-7.2
			c3.4-1.7,6.9-2.8,11.9-2.8c4.7,0,8.3,1.3,10.6,3.6c2.4,2.4,3.6,6,3.6,10.5v21.1h-9v-3.8c-2.1,2.7-4.9,4.4-9,4.4
			C768.1,111,763.5,107.2,763.5,100.5z M783,99v-2.9c-1.4-0.6-3.2-1.1-5.1-1.1c-3.4,0-5.5,1.7-5.5,4.9v0.1c0,2.9,1.8,4.3,4.5,4.3
			C780.5,104.4,783,102.2,783,99z"/>
		<path d="M797.6,93.5v-0.8c0-10.3,6.7-17.8,16.1-17.8c5,0,8.4,1.7,11.4,4.7l-5,6.7c-1.7-1.8-3.4-3.1-6.2-3.1c-4.2,0-7.1,4-7.1,9.7
			v0.3c0,5.8,2.7,9.8,7.3,9.8c2.7,0,4.5-1.3,6.3-3.2l4.9,6.1c-2.9,3.2-6.4,5.3-11.8,5.3C804.1,111.2,797.6,103.8,797.6,93.5z"/>
		<path d="M830.5,63.5h9.6v8.4h-9.6V63.5z M830.7,75.6h9.2v34.8h-9.2V75.6z"/>
		<path d="M846.3,93.5v-0.7c0-10.3,7-17.8,16.4-17.8S879,82.3,879,92.7v0.7c0,10.3-6.9,17.8-16.4,17.8
			C853.3,111.2,846.3,103.8,846.3,93.5z M869.9,93.3v-0.5c0-5.6-2.9-9.9-7.3-9.9c-4.6,0-7.3,4.2-7.3,9.9v0.5c0,5.6,2.9,9.9,7.3,9.9
			C867.3,103.2,869.9,99,869.9,93.3z"/>
		<path d="M885.1,75.6h9.2v4.7c2-2.8,4.5-5.3,9-5.3c6.5,0,10.3,4.5,10.3,11.7v23.7h-9.2v-21c0-4.1-1.8-6.2-4.9-6.2
			c-3.1,0-5.1,2.1-5.1,6.2v21h-9.2V75.6z"/>
		<path d="M918.9,100.5v-0.4c0-7.7,5-11.1,12.1-11.1c2.9,0,5.1,0.6,7.3,1.4v-1c0-4-2.4-6.1-6.6-6.1c-3.2,0-5.8,1-8,1.9l-2.5-7.2
			c3.4-1.7,6.9-2.8,11.9-2.8c4.7,0,8.3,1.3,10.6,3.6c2.4,2.4,3.6,6,3.6,10.5v21.1h-9v-3.8c-2.1,2.7-4.9,4.4-9,4.4
			C923.5,111,918.9,107.2,918.9,100.5z M938.4,99v-2.9c-1.4-0.6-3.2-1.1-5.1-1.1c-3.4,0-5.5,1.7-5.5,4.9v0.1c0,2.9,1.8,4.3,4.5,4.3
			C935.8,104.4,938.4,102.2,938.4,99z"/>
		<path d="M954.6,63.5h9.2v46.9h-9.2V63.5z"/>
		<path d="M971.5,100.4h10.1v10h-10.1V100.4z"/>
		<path d="M988.5,117.4l2.9-7.1c2.8,1.6,6.2,2.5,9.9,2.5c5.8,0,8.6-2.7,8.6-8.2v-2.2c-2.3,3-5.1,5.5-9.7,5.5c-6.9,0-13-5.4-13-16.4
			v-0.2c0-11,6.2-16.3,13-16.3c4.7,0,7.5,2.4,9.7,5.1v-4.5h9.2V104c0,5.5-1.4,9.5-4,12.1c-2.9,2.9-7.3,4.2-13.2,4.2
			C996.9,120.3,992.5,119.3,988.5,117.4z M1009.8,91.4L1009.8,91.4c0-5.2-2.9-8.5-6.8-8.5s-6.7,3.3-6.7,8.4v0.1
			c0,5.3,2.9,8.5,6.7,8.5S1009.8,96.6,1009.8,91.4z"/>
		<path d="M1025,93.5v-0.7c0-10.3,7-17.8,16.4-17.8s16.3,7.3,16.3,17.7v0.7c0,10.3-6.9,17.8-16.4,17.8
			C1031.9,111.2,1025,103.8,1025,93.5z M1048.6,93.3v-0.5c0-5.6-2.9-9.9-7.3-9.9c-4.6,0-7.3,4.2-7.3,9.9v0.5c0,5.6,2.9,9.9,7.3,9.9
			C1045.9,103.2,1048.6,99,1048.6,93.3z"/>
		<path d="M1073,105.9v4.5h-9.2V63.5h9.2v16.9c2-2.9,4.8-5.5,9.4-5.5c6.9,0,13.2,5.6,13.2,17.5v1c0,11.9-6.3,17.5-13.2,17.5
			C1077.7,111,1074.9,108.5,1073,105.9z M1086.4,93.3v-0.6c0-5.9-2.9-9.7-6.7-9.7s-6.8,3.8-6.8,9.7v0.6c0,5.9,3,9.7,6.8,9.7
			S1086.4,99.2,1086.4,93.3z"/>
		<path d="M1101.1,100.4h10.1v10h-10.1V100.4z"/>
		<path d="M1116.1,93.4v-0.6c0-10.3,6.4-17.8,15.2-17.8c9.9,0,14.8,8.1,14.8,18.5c0,0.5,0,1.6-0.1,3h-20.8c0.8,4.6,3.6,7,7.5,7
			c2.9,0,5.1-1.3,7.3-3.4l4.7,5.6c-3.2,3.5-7.2,5.6-12.4,5.6C1123.2,111.2,1116.1,104.2,1116.1,93.4z M1137.2,90.3
			c-0.4-4.8-2.5-7.8-5.9-7.8c-3.4,0-5.6,2.9-6.1,7.8H1137.2z"/>
		<path d="M1150.7,93.5v-0.8c0-10.3,6.7-17.8,16.1-17.8c5,0,8.4,1.7,11.4,4.7l-5,6.7c-1.7-1.8-3.4-3.1-6.2-3.1c-4.2,0-7.1,4-7.1,9.7
			v0.3c0,5.8,2.7,9.8,7.3,9.8c2.7,0,4.5-1.3,6.3-3.2l4.9,6.1c-2.9,3.2-6.4,5.3-11.8,5.3C1157.3,111.2,1150.7,103.8,1150.7,93.5z"/>
	</g>
</g>
</svg>
