<?xml version="1.0" encoding="utf-8"?>
<!-- Generator: Adobe Illustrator 22.0.1, SVG Export Plug-In . SVG Version: 6.00 Build 0)  -->
<svg version="1.1" id="Capa_1" xmlns="http://www.w3.org/2000/svg" xmlns:xlink="http://www.w3.org/1999/xlink" x="0px" y="0px"
	 viewBox="0 0 700 124" xml:space="preserve">
<style type="text/css">
	.st0{fill:#FFFFFF;}
	.st1{fill:#0071B4;}
	.st2{fill:#090A08;}
	.st3{fill:#ED1B2E;}
	.st4{fill:#B62F34;}
	.st5{fill:#E1B32D;}
	.st6{fill:#ECC324;}
	.st7{fill:#1F72AC;}
	.st8{fill:#0368A7;}
	.st9{clip-path:url(#SVGID_2_);}
	.st10{opacity:0.74;}
	.st11{fill:url(#SVGID_3_);}
	.st12{opacity:0.41;fill:url(#SVGID_4_);}
	.st13{opacity:0.41;fill:url(#SVGID_5_);}
	.st14{fill:#00558A;}
	.st15{clip-path:url(#SVGID_7_);}
	.st16{fill:url(#SVGID_8_);}
	.st17{opacity:0.41;fill:url(#SVGID_9_);}
	.st18{opacity:0.41;fill:url(#SVGID_10_);}
	.st19{clip-path:url(#SVGID_12_);}
	.st20{fill:url(#SVGID_13_);}
	.st21{opacity:0.41;fill:url(#SVGID_14_);}
	.st22{opacity:0.41;fill:url(#SVGID_15_);}
	.st23{clip-path:url(#SVGID_17_);}
	.st24{fill:url(#SVGID_18_);}
	.st25{opacity:0.41;fill:url(#SVGID_19_);}
	.st26{opacity:0.41;fill:url(#SVGID_20_);}
	.st27{clip-path:url(#SVGID_22_);}
	.st28{fill:url(#SVGID_23_);}
	.st29{opacity:0.41;fill:url(#SVGID_24_);}
	.st30{opacity:0.41;fill:url(#SVGID_25_);}
	.st31{fill:url(#SVGID_26_);}
	.st32{fill:#F2F2F2;}
	.st33{fill:url(#SVGID_27_);}
	.st34{fill:#E8E0E0;}
	.st35{fill:url(#SVGID_28_);}
	.st36{fill:#1DA1F2;}
	.st37{fill:url(#SVGID_29_);}
	.st38{fill:none;stroke:#999999;stroke-width:0.1279;}
	.st39{fill:none;stroke:#B3B3B3;stroke-width:1.279;stroke-miterlimit:10;}
	.st40{fill:url(#SVGID_30_);}
	.st41{fill:none;stroke:#CCCCCC;stroke-width:1.279;stroke-miterlimit:10;}
	.st42{fill:url(#SVGID_31_);}
	.st43{fill:url(#SVGID_32_);}
	.st44{fill:url(#SVGID_33_);}
	.st45{fill:#606060;}
	.st46{fill:none;stroke:#606060;stroke-width:1.0939;stroke-miterlimit:10;}
	.st47{clip-path:url(#SVGID_35_);}
	.st48{fill:url(#SVGID_36_);}
	.st49{opacity:0.41;fill:url(#SVGID_37_);}
	.st50{opacity:0.41;fill:url(#SVGID_38_);}
	.st51{clip-path:url(#SVGID_40_);}
	.st52{fill:url(#SVGID_41_);}
	.st53{opacity:0.41;fill:url(#SVGID_42_);}
	.st54{opacity:0.41;fill:url(#SVGID_43_);}
	.st55{clip-path:url(#SVGID_45_);}
	.st56{fill:url(#SVGID_46_);}
	.st57{opacity:0.41;fill:url(#SVGID_47_);}
	.st58{opacity:0.41;fill:url(#SVGID_48_);}
	.st59{clip-path:url(#SVGID_50_);}
	.st60{fill:url(#SVGID_51_);}
	.st61{opacity:0.41;fill:url(#SVGID_52_);}
	.st62{opacity:0.41;fill:url(#SVGID_53_);}
	.st63{clip-path:url(#SVGID_55_);}
	.st64{fill:url(#SVGID_56_);}
	.st65{opacity:0.41;fill:url(#SVGID_57_);}
	.st66{opacity:0.41;fill:url(#SVGID_58_);}
	.st67{opacity:0.41;fill:url(#SVGID_59_);}
	.st68{opacity:0.73;fill:#606060;}
	.st69{fill:none;}
	.st70{fill:#ABABAB;}
	.st71{fill:none;stroke:#606060;stroke-width:5;stroke-miterlimit:10;}
	.st72{fill:none;stroke:#DEDEDE;stroke-width:2;stroke-miterlimit:10;}
	.st73{opacity:0.17;}
	.st74{opacity:0.7;clip-path:url(#SVGID_61_);}
	.st75{fill:#004C89;stroke:#0070A2;stroke-width:4.4327;stroke-miterlimit:10;}
	.st76{fill:#0070A2;stroke:#0070A2;stroke-width:2.2164;stroke-miterlimit:10;}
	.st77{fill:#0070A2;stroke:#0070A2;stroke-width:1.1082;stroke-miterlimit:10;}
	.st78{fill:#0070A2;stroke:#0070A2;stroke-width:4.4327;stroke-miterlimit:10;}
	.st79{fill:none;stroke:#0070A2;stroke-width:2.2164;stroke-miterlimit:10;}
	.st80{fill:none;stroke:#0070A2;stroke-width:1.1082;stroke-miterlimit:10;}
	.st81{fill:none;stroke:#0070A2;stroke-width:4.4327;stroke-miterlimit:10;}
	.st82{fill:#FFFFFF;stroke:#0070A2;stroke-width:1.1082;stroke-miterlimit:10;}
	.st83{fill:#ED1B2E;stroke:#0070A2;stroke-width:4.4327;stroke-miterlimit:10;}
	.st84{fill:url(#);stroke:#0070A2;stroke-width:4.4327;stroke-miterlimit:10;}
	.st85{fill:#0070A2;}
	.st86{clip-path:url(#SVGID_63_);}
	.st87{fill:#21A2DC;}
	.st88{fill:#1EA4DD;}
	.st89{fill:#1DA2DC;}
	.st90{fill:#1FA2DC;}
	.st91{fill:#229FD9;}
	.st92{fill:#2199D5;}
	.st93{fill:#20A3DC;}
	.st94{fill:#1CA1DB;}
	.st95{fill:#209FDA;}
	.st96{fill:#21A1DB;}
	.st97{fill:#1FA0DA;}
	.st98{fill:#1BA2DC;}
	.st99{fill:#1EA1DB;}
	.st100{fill:#20A1DB;}
	.st101{fill:#1F9ED9;}
	.st102{fill:#1D9CD7;}
	.st103{fill:#1E9DD8;}
	.st104{fill:#239ED9;}
	.st105{fill:#219ED9;}
	.st106{fill:#2698D4;}
	.st107{fill:#219CD7;}
	.st108{fill:#1F9BD7;}
	.st109{fill:#1D9DD9;}
	.st110{fill:#1E9FD9;}
	.st111{fill:#1C9CD8;}
	.st112{fill:#1F99D6;}
	.st113{fill:#209BD6;}
	.st114{fill:#209CD8;}
	.st115{fill:#239AD6;}
	.st116{fill:#2398D4;}
	.st117{fill:#1E9AD6;}
	.st118{fill:#2298D5;}
	.st119{fill:#219AD6;}
	.st120{fill:#19A0DB;}
	.st121{fill:#229BD7;}
	.st122{fill:#229DD8;}
	.st123{fill:#2E92D0;}
	.st124{fill:#388CCB;}
	.st125{fill:#2D93D0;}
	.st126{fill:#2796D3;}
	.st127{fill:#3390CE;}
	.st128{fill:#2B94D1;}
	.st129{fill:#368ECD;}
	.st130{fill:#3E86C6;}
	.st131{fill:#2896D3;}
	.st132{fill:#2C94D1;}
	.st133{fill:#2697D3;}
	.st134{fill:#2597D4;}
	.st135{fill:#3E84C5;}
	.st136{fill:#467BBD;}
	.st137{fill:#3F80C2;}
	.st138{fill:#2797D4;}
	.st139{fill:#3A8BCA;}
	.st140{fill:#358ECC;}
	.st141{fill:#3E83C4;}
	.st142{fill:#4180C2;}
	.st143{fill:#2D94D1;}
	.st144{fill:#2995D2;}
	.st145{fill:#2C95D2;}
	.st146{fill:#4976BA;}
	.st147{fill:#4D72B7;}
	.st148{fill:#358FCE;}
	.st149{fill:#2F91CF;}
	.st150{fill:#358FCD;}
	.st151{fill:#378CCB;}
	.st152{fill:#427EC0;}
	.st153{fill:#4082C3;}
	.st154{fill:#378DCC;}
	.st155{fill:#3B89C9;}
	.st156{fill:#398ACA;}
	.st157{fill:#3D87C7;}
	.st158{fill:#368BCB;}
	.st159{fill:#447DBF;}
	.st160{fill:#427FC0;}
	.st161{fill:#4181C3;}
	.st162{fill:#4876BA;}
	.st163{fill:#3C88C8;}
	.st164{fill:#3F85C6;}
	.st165{fill:#4082C4;}
	.st166{fill:#398AC9;}
	.st167{fill:#4779BC;}
	.st168{fill:#447CBE;}
	.st169{fill:#4A74B9;}
	.st170{fill:#4975B9;}
	.st171{fill:#4879BB;}
	.st172{fill:#447BBD;}
	.st173{fill:#4280C1;}
	.st174{fill:#417FC0;}
	.st175{fill:#4084C4;}
	.st176{fill:#4080C2;}
	.st177{fill:#4B74B8;}
	.st178{fill:#4C73B7;}
	.st179{fill:#4E71B6;}
	.st180{fill:#4D71B6;}
	.st181{fill:#4E72B6;}
	.st182{fill:#437EC0;}
	.st183{fill:#4E70B5;}
	.st184{fill:#4D6FB5;}
	.st185{fill:#4A73B8;}
	.st186{fill:#4F6CB3;}
	.st187{fill:#516AB1;}
	.st188{fill:#4E6EB4;}
	.st189{fill:#516BB2;}
	.st190{fill:#4F6FB5;}
	.st191{fill:#5367AF;}
	.st192{fill:#526AB1;}
	.st193{fill:#5368AF;}
	.st194{fill:#5466AE;}
	.st195{fill:#5364AD;}
	.st196{fill:#5661AB;}
	.st197{fill:#5168B0;}
	.st198{fill:#565DA9;}
	.st199{fill:#565FAA;}
	.st200{fill:#5758A6;}
	.st201{fill:#5465AE;}
	.st202{fill:#5662AC;}
	.st203{fill:#575EA9;}
	.st204{fill:#5463AD;}
	.st205{fill:#5858A6;}
	.st206{fill:#575BA7;}
	.st207{fill:#594EA0;}
	.st208{fill:#5A52A2;}
	.st209{fill:#5B4FA0;}
	.st210{fill:#5955A3;}
	.st211{fill:#59479C;}
	.st212{fill-rule:evenodd;clip-rule:evenodd;fill:#416CB3;}
	.st213{fill:#416CB3;}
	.st214{fill:#589241;}
	.st215{fill-rule:evenodd;clip-rule:evenodd;fill:#C3D82E;}
	.st216{fill-rule:evenodd;clip-rule:evenodd;fill:#1D421E;}
	.st217{fill-rule:evenodd;clip-rule:evenodd;fill:#16130C;}
	.st218{fill-rule:evenodd;clip-rule:evenodd;fill:#317137;}
	.st219{fill:#C3D82E;}
	.st220{fill:#A7CE38;}
	.st221{fill-rule:evenodd;clip-rule:evenodd;fill:#2B5529;}
	.st222{fill-rule:evenodd;clip-rule:evenodd;fill:#A0CC3A;}
	.st223{fill-rule:evenodd;clip-rule:evenodd;fill:#589241;}
	.st224{fill:#C4D82D;}
	.st225{fill-rule:evenodd;clip-rule:evenodd;fill:#D2DD26;}
	.st226{fill:#A0CC3A;}
	.st227{fill-rule:evenodd;clip-rule:evenodd;fill:#97C13C;}
	.st228{fill-rule:evenodd;clip-rule:evenodd;fill:#B4D234;}
	.st229{fill-rule:evenodd;clip-rule:evenodd;fill:#88AE3F;}
	.st230{fill-rule:evenodd;clip-rule:evenodd;fill:#3D7E3C;}
	.st231{fill:#CA3027;}
	.st232{fill:#97C13C;}
	.st233{fill:#3D7E3C;}
	.st234{fill-rule:evenodd;clip-rule:evenodd;fill:#E1E31F;}
	.st235{fill:#1D421E;}
	.st236{fill-rule:evenodd;clip-rule:evenodd;fill:#283B1A;}
	.st237{fill-rule:evenodd;clip-rule:evenodd;fill:#0D7B3E;}
	.st238{fill-rule:evenodd;clip-rule:evenodd;fill:#2C5025;}
	.st239{fill-rule:evenodd;clip-rule:evenodd;fill:#1D582C;}
	.st240{fill-rule:evenodd;clip-rule:evenodd;fill:#4D6A31;}
	.st241{fill-rule:evenodd;clip-rule:evenodd;fill:#89BE40;}
	.st242{fill-rule:evenodd;clip-rule:evenodd;fill:#54823B;}
	.st243{fill-rule:evenodd;clip-rule:evenodd;fill:#597E39;}
	.st244{fill:#E1E31F;}
	.st245{fill-rule:evenodd;clip-rule:evenodd;fill:#B1C135;}
	.st246{fill-rule:evenodd;clip-rule:evenodd;fill:#73963E;}
	.st247{fill-rule:evenodd;clip-rule:evenodd;fill:#498AC9;}
	.st248{fill:url(#SVGID_64_);}
	.st249{fill:url(#SVGID_65_);}
	.st250{fill:url(#SVGID_66_);}
	.st251{fill:url(#SVGID_67_);}
	.st252{fill:url(#SVGID_68_);}
	.st253{fill:url(#SVGID_69_);}
	.st254{fill:url(#SVGID_70_);}
	.st255{fill:url(#SVGID_71_);}
	.st256{fill:none;stroke:#606060;stroke-width:1.9932;stroke-miterlimit:10;}
	.st257{fill:none;stroke:#C4C4C4;stroke-miterlimit:10;}
</style>
<g>
	<g id="R6F0Wo_3_">
		<g>
			<path class="st45" d="M67.9,98.9c-3.5-0.5-7.2-0.7-10.6-1.7c-5.3-1.5-10.5-3.4-15.6-5.5c-1.9-0.8-3.4-2.5-4.9-4
				c-3.6-3.8-3.7-8.6-0.4-12.6c3.7-4.4,8.7-6.8,14.1-8.4c3.5-1,7.1-1.8,11-2.7c-2.2-2.8-4.4-5.4-6.3-8.2c-5.4-8-6.1-16.4-1.1-24.8
				c4.9-8.3,12.5-12.1,22-11.1c9.8,1.1,16.4,6.8,19.3,16.3c2.3,7.4,0.7,14.3-4,20.4c-3.2,4.2-6.5,8.3-10,12.8c1.7,0.4,3.1,0.5,4.5,1
				c2.9,1,5.9,1.8,8.5,3.4c3.7,2.2,3.5,6.2-0.1,8.6c-4.2,2.8-9.1,3.6-14,4.1c-7.6,0.8-15.1,0.5-22.4-1.8C56,84,54.2,83,52.5,82
				c-1.8-1.2-3.1-3.2-2-5.2c1-1.8,3-3,4.6-4.3c0.2-0.2,1.6,0.4,1.6,0.8c0.1,0.6-0.2,1.6-0.7,2c-3.5,3-3.4,4,1,5.8
				c7.6,3,15.7,3.2,23.7,2.2c3.7-0.4,7.3-1.7,10.9-2.9c0.9-0.3,2.1-1.5,2.2-2.3c0-0.8-1.2-2.1-2.1-2.4c-3.8-1.2-7.7-2.2-11.6-3
				c-0.7-0.1-1.9,1-2.5,1.8c-4,5.2-3.8,5.3-7.8,0c-0.9-1.2-2-2.3-2.7-3.6c-1.7-3.3-4.3-4.3-7.8-3.1c-5.1,1.7-10.6,2.9-15.4,5.2
				c-8.8,4.4-8.9,11.1-0.5,16.2c6.7,4,14.2,5.6,21.9,6.3c11.6,1,23.1,0.5,34-4c3-1.2,6-3.1,8.4-5.3c3.6-3.2,3.5-7.1-0.2-10.2
				c-2.4-2-5.3-3.4-8-4.9c-0.8-0.5-1.9-0.6-2.6-1.1c-0.6-0.4-0.8-1.3-1.2-2c0.7-0.3,1.6-0.9,2.2-0.7c6.6,2.2,12.8,5.1,15.6,12.2
				c0,1.2,0,2.5,0,3.7c-1.3,3.5-3.6,6.4-6.8,8.1c-3.8,2-7.9,3.9-12.1,5.1c-4.9,1.3-10,1.8-15,2.7C75.6,98.9,71.7,98.9,67.9,98.9z
				 M73.7,74.5c5.9-7.7,11.9-15,17.1-22.8c4.4-6.6,3-15.9-2.1-21.9c-5.4-6.3-14-8.6-21.8-5.8c-7.6,2.7-12.7,9.9-12.9,17.9
				c-0.2,6.1,2.6,10.9,6.3,15.5C64.8,62.9,69.1,68.5,73.7,74.5z"/>
			<path class="st45" d="M87.8,66.4c1.1-0.6,1.7-1.3,2.2-1.2c0.6,0.1,1,0.9,1.5,1.4c-0.5,0.5-1,1.3-1.6,1.4
				C89.4,68,88.8,67.2,87.8,66.4z"/>
			<path class="st45" d="M62.6,72c-1,0.8-1.6,1.5-2.1,1.5c-0.6-0.1-1.2-0.8-1.5-1.4c-0.1-0.3,0.8-1.3,1.2-1.3
				C60.9,70.7,61.5,71.4,62.6,72z"/>
			<path class="st45" d="M87.5,42.3c0,8.7-6.8,14.8-15.1,14.3c-7.8-0.5-13.5-7.7-12.5-15.9c0.9-7.6,8.5-13.1,16.3-11.5
				c0.9,0.2,2.3,1.3,2.3,1.8c-0.1,1.8-1.6,1.3-2.9,1.1c-5.7-0.9-10.9,2.3-12.4,7.7c-1.4,5.1,1.3,10.8,6.2,12.8
				c5,2.1,11.2,0.2,13.5-4.8c1-2.2,0.8-4.9,1.3-7.3c0.2-1,0.7-1.9,1-2.8c0.7,0.8,1.6,1.4,2,2.3C87.6,40.9,87.4,42,87.5,42.3z"/>
			<path class="st45" d="M84.5,34c-0.9,0.7-1.5,1.5-2,1.4c-0.5,0-1.4-0.9-1.4-1.4c0-0.5,0.8-1.4,1.3-1.4
				C82.9,32.6,83.5,33.3,84.5,34z"/>
		</g>
	</g>
	<g>
		<path class="st45" d="M142.8,51.2h5.3l9.7,27.2H152l-2-5.9h-9.3l-2,5.9H133L142.8,51.2z M148.3,67.6l-2.9-8.8l-3,8.8H148.3z"/>
		<path class="st45" d="M157.1,57.7h5.7l3.9,13.8l3.9-13.8h5.6l-7,20.9h-5.1L157.1,57.7z"/>
		<path class="st45" d="M176.2,72.5h6v6h-6V72.5z"/>
		<path class="st45" d="M197.9,76.4c-1.9-2-3.1-4.9-3.1-10.4v-0.2c0-9.2,3.8-14.8,10.8-14.8c2.9,0,5.1,0.9,7.2,2.5l-2.7,4.4
			c-1.3-1-2.7-1.8-4.6-1.8c-3.4,0-4.8,3.3-5,6.5c1.4-0.9,2.9-1.6,5.1-1.6c4.5,0,8.3,2.8,8.3,8.6v0.1c0,5.5-4.1,9.4-9.3,9.4
			C201.6,78.9,199.5,78,197.9,76.4z M208.3,69.8L208.3,69.8c0-2.6-1.5-4.2-4-4.2c-2.5,0-3.9,1.6-3.9,4.1v0c0,2.5,1.5,4.2,4,4.2
			C206.9,74,208.3,72.3,208.3,69.8z"/>
		<path class="st45" d="M225.7,68.4v-0.6c0-7.1,3.8-10.4,7.9-10.4c2.8,0,4.4,1.5,5.6,3.1v-9.9h5.5v27.9h-5.5v-2.9
			c-1.2,1.7-2.9,3.2-5.6,3.2C229.5,78.8,225.7,75.5,225.7,68.4z M239.3,68.3v-0.4c0-3.5-1.8-5.8-4.1-5.8c-2.3,0-4,2.2-4,5.8v0.4
			c0,3.5,1.7,5.8,4,5.8C237.5,74,239.3,71.8,239.3,68.3z"/>
		<path class="st45" d="M248.2,68.3V68c0-6.1,3.8-10.6,9.1-10.6c5.9,0,8.8,4.8,8.8,11c0,0.3,0,1,0,1.8h-12.4
			c0.5,2.7,2.2,4.2,4.5,4.2c1.7,0,3-0.8,4.3-2l2.8,3.3c-1.9,2.1-4.3,3.3-7.4,3.3C252.5,78.9,248.2,74.8,248.2,68.3z M260.8,66.5
			c-0.2-2.9-1.5-4.6-3.5-4.6c-2,0-3.3,1.7-3.6,4.6H260.8z"/>
		<path class="st45" d="M278.9,51.4h8.7c7.9,0,12.9,5.4,12.9,13.3v0.3c0,7.9-5.1,13.4-12.9,13.4h-8.7V51.4z M284.5,56.4v16.9h3.1
			c4.3,0,7.2-3,7.2-8.4v-0.2c0-5.4-2.9-8.4-7.2-8.4H284.5z"/>
		<path class="st45" d="M304.5,50.5h5.7v5h-5.7V50.5z M304.6,57.7h5.5v20.7h-5.5V57.7z"/>
		<path class="st45" d="M314,68.4v-0.5c0-6.1,4-10.6,9.6-10.6c3,0,5,1,6.8,2.8l-3,4c-1-1-2-1.9-3.7-1.9c-2.5,0-4.2,2.4-4.2,5.8v0.2
			c0,3.4,1.6,5.8,4.3,5.8c1.6,0,2.7-0.8,3.8-1.9l2.9,3.6c-1.7,1.9-3.8,3.2-7,3.2C317.9,78.9,314,74.5,314,68.4z"/>
		<path class="st45" d="M333.6,50.5h5.7v5h-5.7V50.5z M333.7,57.7h5.5v20.7h-5.5V57.7z"/>
		<path class="st45" d="M343,68.3V68c0-6.1,3.8-10.6,9.1-10.6c5.9,0,8.8,4.8,8.8,11c0,0.3,0,1,0,1.8h-12.4c0.5,2.7,2.2,4.2,4.5,4.2
			c1.7,0,3-0.8,4.3-2l2.8,3.3c-1.9,2.1-4.3,3.3-7.4,3.3C347.2,78.9,343,74.8,343,68.3z M355.5,66.5c-0.2-2.9-1.5-4.6-3.5-4.6
			c-2,0-3.3,1.7-3.6,4.6H355.5z"/>
		<path class="st45" d="M364.4,57.7h5.5v2.8c1.2-1.7,2.8-3.2,5.4-3.2c2.4,0,4.1,1.2,5.1,3c1.5-1.8,3.4-3,5.9-3c3.7,0,6.1,2.4,6.1,7
			v14.2H387V66c0-2.4-1-3.7-2.9-3.7c-1.8,0-2.9,1.3-2.9,3.7v12.5h-5.5V66c0-2.4-1-3.7-2.8-3.7s-2.9,1.3-2.9,3.7v12.5h-5.5V57.7z"/>
		<path class="st45" d="M402.2,75.8v2.7h-5.5V50.5h5.5v10.1c1.2-1.7,2.9-3.2,5.6-3.2c4.1,0,7.9,3.4,7.9,10.4v0.6
			c0,7.1-3.8,10.4-7.9,10.4C405.1,78.8,403.4,77.3,402.2,75.8z M410.2,68.3v-0.4c0-3.5-1.7-5.8-4-5.8c-2.3,0-4.1,2.2-4.1,5.8v0.4
			c0,3.5,1.8,5.8,4.1,5.8C408.5,74,410.2,71.8,410.2,68.3z"/>
		<path class="st45" d="M419.4,57.7h5.5v3.7c1-2.5,2.7-4.2,5.6-4v6h-0.2c-3.4,0-5.4,2.1-5.4,6.4v8.7h-5.5V57.7z"/>
		<path class="st45" d="M432.2,68.3V68c0-6.1,3.8-10.6,9.1-10.6c5.9,0,8.8,4.8,8.8,11c0,0.3,0,1,0,1.8h-12.4
			c0.5,2.7,2.2,4.2,4.5,4.2c1.7,0,3-0.8,4.3-2l2.8,3.3c-1.9,2.1-4.3,3.3-7.4,3.3C436.4,78.9,432.2,74.8,432.2,68.3z M444.7,66.5
			c-0.2-2.9-1.5-4.6-3.5-4.6c-2,0-3.3,1.7-3.6,4.6H444.7z"/>
		<path class="st45" d="M474.2,57.7h5.6l-6.8,21c-1.4,4.1-3,5.7-6.2,5.7c-1.6,0-3.1-0.5-4.4-1.2l1.5-4.1c0.7,0.4,1.5,0.7,2.2,0.7
			c0.9,0,1.4-0.3,1.8-1.3l-7-20.8h5.7l3.9,13.7L474.2,57.7z"/>
		<path class="st45" d="M491.8,51.4h9c6.1,0,9.9,3.5,9.9,9.3v0.1c0,6.2-4.4,9.4-10.1,9.5h-3.2v8.2h-5.6V51.4z M500.6,65.2
			c2.9,0,4.5-1.8,4.5-4.3v0c0-2.8-1.6-4.4-4.6-4.4h-3.1v8.7H500.6z"/>
		<path class="st45" d="M514,50.5h5.7v5H514V50.5z M514.1,57.7h5.5v20.7h-5.5V57.7z"/>
		<path class="st45" d="M523.4,68.3V68c0-6.1,3.8-10.6,9.1-10.6c5.9,0,8.8,4.8,8.8,11c0,0.3,0,1,0,1.8h-12.4
			c0.5,2.7,2.2,4.2,4.5,4.2c1.7,0,3-0.8,4.3-2l2.8,3.3c-1.9,2.1-4.3,3.3-7.4,3.3C527.6,78.9,523.4,74.8,523.4,68.3z M536,66.5
			c-0.2-2.9-1.5-4.6-3.5-4.6c-2,0-3.3,1.7-3.6,4.6H536z"/>
		<path class="st45" d="M544.1,68.4v-0.6c0-7.1,3.8-10.4,7.9-10.4c2.8,0,4.4,1.5,5.6,3.1v-9.9h5.5v27.9h-5.5v-2.9
			c-1.2,1.7-2.9,3.2-5.6,3.2C547.9,78.8,544.1,75.5,544.1,68.4z M557.7,68.3v-0.4c0-3.5-1.8-5.8-4.1-5.8c-2.3,0-4,2.2-4,5.8v0.4
			c0,3.5,1.7,5.8,4,5.8C555.9,74,557.7,71.8,557.7,68.3z"/>
		<path class="st45" d="M567.5,57.7h5.5v3.7c1-2.5,2.7-4.2,5.6-4v6h-0.2c-3.4,0-5.4,2.1-5.4,6.4v8.7h-5.5V57.7z"/>
		<path class="st45" d="M579.9,72.5v-0.2c0-4.6,3-6.6,7.2-6.6c1.7,0,3.1,0.3,4.3,0.9v-0.6c0-2.4-1.4-3.6-3.9-3.6
			c-1.9,0-3.5,0.6-4.8,1.2l-1.5-4.3c2-1,4.1-1.7,7.1-1.7c2.8,0,5,0.8,6.3,2.1c1.4,1.4,2.1,3.6,2.1,6.3v12.6h-5.4v-2.2
			c-1.2,1.6-2.9,2.6-5.4,2.6C582.6,78.8,579.9,76.5,579.9,72.5z M591.5,71.6v-1.7c-0.8-0.4-1.9-0.7-3.1-0.7c-2,0-3.3,1-3.3,2.9v0.1
			c0,1.7,1.1,2.6,2.7,2.6C590,74.8,591.5,73.5,591.5,71.6z"/>
		<path class="st45" d="M601,50.5h5.5v10c1.2-1.7,2.7-3.2,5.3-3.2c3.9,0,6.1,2.7,6.1,7v14.1h-5.5V66c0-2.4-1.1-3.7-2.9-3.7
			c-1.8,0-3,1.2-3,3.7v12.5H601V50.5z"/>
		<path class="st45" d="M622.2,50.5h5.7v5h-5.7V50.5z M622.4,57.7h5.5v20.7h-5.5V57.7z"/>
		<path class="st45" d="M633.3,73.3V62.4h-2.1v-4.6h2.1v-5.3h5.5v5.3h4.1v4.6h-4.1v9.8c0,1.2,0.5,1.8,1.7,1.8c0.9,0,1.7-0.2,2.4-0.6
			v4.4c-1.1,0.6-2.4,1.1-4.1,1.1C635.7,78.8,633.3,77.6,633.3,73.3z"/>
		<path class="st45" d="M645.4,72.5v-0.2c0-4.6,3-6.6,7.2-6.6c1.7,0,3.1,0.3,4.3,0.9v-0.6c0-2.4-1.4-3.6-3.9-3.6
			c-1.9,0-3.5,0.6-4.8,1.2l-1.5-4.3c2-1,4.1-1.7,7.1-1.7c2.8,0,5,0.8,6.3,2.1c1.4,1.4,2.1,3.6,2.1,6.3v12.6H657v-2.2
			c-1.2,1.6-2.9,2.6-5.4,2.6C648.2,78.8,645.4,76.5,645.4,72.5z M657.1,71.6v-1.7c-0.8-0.4-1.9-0.7-3.1-0.7c-2,0-3.3,1-3.3,2.9v0.1
			c0,1.7,1.1,2.6,2.7,2.6C655.5,74.8,657.1,73.5,657.1,71.6z"/>
	</g>		
	<line class="st256" x1="687.3" y1="19.1" x2="687.3" y2="104.9"/>
</g>
</svg>
