<?xml version="1.0" encoding="iso-8859-1"?>
<!-- Generator: Adobe Illustrator 19.0.0, SVG Export Plug-In . SVG Version: 6.00 Build 0)  -->
<svg version="1.1" id="Layer_1" xmlns="http://www.w3.org/2000/svg" xmlns:xlink="http://www.w3.org/1999/xlink" x="0px" y="0px"
	 viewBox="0 0 198.052 198.052" style="enable-background:new 0 0 198.052 198.052;" xml:space="preserve">
<g>
	<g>
		<g>
			<path style="fill:#1A2C66" d="M197.284,112.576l-16.046-31.772c-0.865-1.714-2.955-2.409-4.669-1.535c-1.71,0.865-2.399,2.955-1.534,4.667
				l13.763,27.252h-32.442V13.899c0-1.919-1.554-3.475-3.475-3.475h-83.39c-1.92,0-3.475,1.556-3.475,3.475s1.554,3.475,3.475,3.475
				h79.915v93.814h-3.475V24.323c0-1.919-1.554-3.475-3.475-3.475h-83.39c-1.92,0-3.475,1.556-3.475,3.475s1.554,3.475,3.475,3.475
				h79.915v83.39h-3.475V34.748c0-1.919-1.554-3.475-3.475-3.475h-83.39c-1.92,0-3.475,1.556-3.475,3.475s1.554,3.475,3.475,3.475
				h79.915v72.964h-3.475V45.17c0-1.919-1.554-3.475-3.475-3.475H38.22c-1.92,0-3.475,1.556-3.475,3.475v66.017H8.934l13.763-27.252
				c0.865-1.712,0.177-3.802-1.534-4.667c-1.714-0.869-3.804-0.177-4.669,1.535L0.373,112.724c-0.274,0.542-0.342,1.114-0.321,1.681
				C0.045,114.495,0,114.571,0,114.662v69.492c0,1.919,1.554,3.475,3.475,3.475h191.102c1.92,0,3.475-1.556,3.475-3.475v-69.492
				C198.051,113.863,197.736,113.162,197.284,112.576z M41.695,48.644h76.441v62.542H41.695V48.644z M191.102,180.678H6.949v-62.542
				H38.22h83.39h69.492V180.678z"/>
			<rect x="69.492" y="128.56" width="59.068" height="6.949"/>
		</g>
	</g>
</g>
<g>
</g>
<g>
</g>
<g>
</g>
<g>
</g>
<g>
</g>
<g>
</g>
<g>
</g>
<g>
</g>
<g>
</g>
<g>
</g>
<g>
</g>
<g>
</g>
<g>
</g>
<g>
</g>
<g>
</g>
</svg>
