<?xml version="1.0" encoding="utf-8"?>
<!-- Generator: Adobe Illustrator 22.0.1, SVG Export Plug-In . SVG Version: 6.00 Build 0)  -->
<svg version="1.1" id="Capa_1" xmlns="http://www.w3.org/2000/svg" xmlns:xlink="http://www.w3.org/1999/xlink" x="0px" y="0px"
	 viewBox="0 0 150 150" style="enable-background:new 0 0 294 275;" xml:space="preserve">
<style type="text/css">
	.st0{fill:#1A2C66;}
	.st1{fill:#000000;}
</style>
<g transform="translate(-75,-5)">	
		<path class="st0" d="M79.1,152h82.8l24.8-28.5V8.1H79.1V152z M177.7,120.1L157.8,143h-0.1v-23L177.7,120.1L177.7,120.1z
			 M88.1,17.1h89.6v93.8h-29v32H88.1V17.1z"/>
		<rect x="142" y="43.6" class="st0" width="27" height="9"/>
		<rect x="132.9" y="62" class="st0" width="36.1" height="9"/>
		<rect x="97.8" y="80.6" class="st0" width="71.2" height="9"/>
		<rect x="97.8" y="98.2" class="st0" width="35.6" height="9"/>
		<rect x="97.8" y="116.6" class="st0" width="35.1" height="9"/>
		<polygon class="st0" points="142.2,31.9 135.4,26 111.7,53.4 103.9,44.5 97.2,50.5 111.8,67 		"/>
		<path class="st0" d="M223.1,130.4V40.3L210,10.8l-12.6,27.7l-0.4,92c0,7.2,5.9,13.1,13.1,13.1
			C217.2,143.4,223.1,137.6,223.1,130.4z M210,32.4l4,8.6h-7.8L210,32.4z M206,50h8.1v57.6H206V50z M206,130.4v-13.8h8.1v13.8
			c0,2.2-1.8,4-4,4S206,132.6,206,130.4z"/>
</g>
</svg>
