<svg data-name="Capa 1" xmlns="http://www.w3.org/2000/svg" xmlns:xlink="http://www.w3.org/1999/xlink" width="256" height="150"><rect id="backgroundrect" width="100%" height="100%" x="0" y="0" fill="none" stroke="none" style="" class=""/><defs><style>.cls-1{fill:none;}.cls-2{clip-path:url(#clip-path);}.cls-3{fill:#1a2c66;}</style><clipPath id="clip-path"><rect class="cls-1" x="-1768" y="-631" width="1352" height="761.6500244140625" id="svg_1"/></clipPath></defs><title>ICON APP</title><g class="currentLayer" style=""><title>Layer 1</title><path class="cls-3" d="M20.09000015258789,88.3083478808403 h-6.199999809265137 v19.65999984741211 H0 V48.39850443601608 H22 c14.550000190734863,0 23.059999465942383,7.829999923706055 23.059999465942383,20.170000076293945 c0,8.170000076293945 -3.880000114440918,14.210000038146973 -10.90999984741211,16.93000030517578 l13.229999542236328,22.469999313354492 H30.920000076293945 zm2.809999942779541,-11.399999618530273 c5.119999885559082,0 7.929999828338623,-2.640000104904175 7.929999828338623,-7.659999847412109 s-2.640000104904175,-7.920000076293945 -8,-7.920000076293945 H13.890000343322754 v15.579999923706055 z" id="svg_2"/><path class="cls-3" d="M64.80999755859375,97.98826426267624 l-3.4700000286102295,9.949999809265137 H46.70000076293945 l22.329999923706055,-60 H84.80999755859375 l22.40999984741211,60 H92.33999633789062 l-3.4800000190734863,-9.949999809265137 zm15.369999885559082,-25 c-1.809999942779541,-5 -3.140000104904175,-8.75 -3.2200000286102295,-8.829999923706055 h-0.25 c-0.07999999821186066,0.07999999821186066 -1.399999976158142,3.7699999809265137 -3.2200000286102295,8.739999771118164 l-4.130000114440918,12 h15 z" id="svg_3"/><path class="cls-3" d="M133.4199981689453,47.948507487773895 c17.280000686645508,0 30.510000228881836,12.149999618530273 30.510000228881836,30.190000534057617 s-13.3100004196167,29.670000076293945 -30.420000076293945,29.670000076293945 H108.79000091552734 V47.948507487773895 zm-0.7400000095367432,46.52000045776367 c8.600000381469727,0 17.270000457763672,-4.53000020980835 17.270000457763672,-16.329999923706055 s-8.670000076293945,-16.850000381469727 -17.270000457763672,-16.850000381469727 h-10 v33.18000030517578 z" id="svg_4"/><rect class="cls-3" x="166.74000549316406" y="47.908387303352356" width="13.890000343322754" height="59.95000076293945" id="svg_5"/><path class="cls-3" d="M231.1300048828125,77.87845438718796 a17.489999771118164,17.489999771118164 0 1 1 -17.489999771118164,-17.479999542236328 V48.078504741191864 c-17.520000457763672,0 -30.209999084472656,12.279999732971191 -30.209999084472656,29.799999237060547 s12.6899995803833,29.809999465942383 30.209999084472656,29.809999465942383 h0 c17.530000686645508,0 30.219999313354492,-12.279999732971191 30.219999313354492,-29.809999465942383 z" id="svg_6"/><path class="cls-3" d="M12.550000190734863,39.268507182598114 a2.119999885559082,2.119999885559082 0 0 1 0,0.27000001072883606 c0,0.11999999731779099 0,0.25 -0.05999999865889549,0.4000000059604645 s-0.07000000029802322,0.28999999165534973 -0.10999999940395355,0.4399999976158142 a1.399999976158142,1.399999976158142 0 0 1 -0.1599999964237213,0.4000000059604645 a0.800000011920929,0.800000011920929 0 0 1 -0.23000000417232513,0.30000001192092896 a0.4399999976158142,0.4399999976158142 0 0 1 -0.30000001192092896,0.11999999731779099 H2 a1.100000023841858,1.100000023841858 0 0 1 -0.3700000047683716,-0.05999999865889549 a0.6899999976158142,0.6899999976158142 0 0 1 -0.3100000023841858,-0.20000000298023224 A0.7300000190734863,0.7300000190734863 0 0 1 1.1399999856948853,40.54850596189499 a1.3300000429153442,1.3300000429153442 0 0 1 0,-0.550000011920929 l4,-20.170000076293945 a0.5299999713897705,0.5299999713897705 0 0 1 0.11999999731779099,-0.2199999988079071 a0.7300000190734863,0.7300000190734863 0 0 1 0.28999999165534973,-0.1599999964237213 a3.130000114440918,3.130000114440918 0 0 1 0.4699999988079071,-0.10000000149011612 a4.579999923706055,4.579999923706055 0 0 1 0.6899999976158142,0 a4.360000133514404,4.360000133514404 0 0 1 0.6800000071525574,0 a2.119999885559082,2.119999885559082 0 0 1 0.4300000071525574,0.10000000149011612 a0.33000001311302185,0.33000001311302185 0 0 1 0.20000000298023224,0.1599999964237213 a0.2800000011920929,0.2800000011920929 0 0 1 0,0.2199999988079071 L4.340000152587891,38.698507487773895 h7.800000190734863 a0.36000001430511475,0.36000001430511475 0 0 1 0.3199999928474426,0.15000000596046448 A0.8199999928474426,0.8199999928474426 0 0 1 12.550000190734863,39.268507182598114 z" id="svg_7"/><path class="cls-3" d="M26,40.77850931882858 a0.5799999833106995,0.5799999833106995 0 0 1 -0.3700000047683716,0.4099999964237213 a3.4200000762939453,3.4200000762939453 0 0 1 -1,0.10999999940395355 a4.28000020980835,4.28000020980835 0 0 1 -0.5600000023841858,0 a1.3600000143051147,1.3600000143051147 0 0 1 -0.3499999940395355,-0.09000000357627869 a0.41999998688697815,0.41999998688697815 0 0 1 -0.1899999976158142,-0.15000000596046448 a0.36000001430511475,0.36000001430511475 0 0 1 0,-0.25 l0.5600000023841858,-2.859999895095825 a4.400000095367432,4.400000095367432 0 0 1 -0.7900000214576721,1.1799999475479126 A7.489999771118164,7.489999771118164 0 0 1 22,40.27850931882858 a7.909999847412109,7.909999847412109 0 0 1 -1.7400000095367432,0.8899999856948853 a5.730000019073486,5.730000019073486 0 0 1 -1.9500000476837158,0.3499999940395355 a4.75,4.75 0 0 1 -2.2300000190734863,-0.4699999988079071 a3.75,3.75 0 0 1 -1.399999976158142,-1.2400000095367432 a4.769999980926514,4.769999980926514 0 0 1 -0.7200000286102295,-1.75 a10.229999542236328,10.229999542236328 0 0 1 -0.1899999976158142,-2 a15.789999961853027,15.789999961853027 0 0 1 0.17000000178813934,-2.130000114440918 a15.100000381469727,15.100000381469727 0 0 1 0.5799999833106995,-2.440000057220459 a14.229999542236328,14.229999542236328 0 0 1 1,-2.430000066757202 A9.779999732971191,9.779999732971191 0 0 1 17,26.93849390745163 a7.320000171661377,7.320000171661377 0 0 1 2.069999933242798,-1.5 a6.239999771118164,6.239999771118164 0 0 1 2.680000066757202,-0.5600000023841858 a5.090000152587891,5.090000152587891 0 0 1 2.569999933242798,0.6100000143051147 a6.590000152587891,6.590000152587891 0 0 1 1.899999976158142,1.659999966621399 l0.3199999928474426,-1.5299999713897705 a0.5799999833106995,0.5799999833106995 0 0 1 0.38999998569488525,-0.38999998569488525 a3.4000000953674316,3.4000000953674316 0 0 1 1,-0.10999999940395355 l0.5699999928474426,0 a1.340000033378601,1.340000033378601 0 0 1 0.36000001430511475,0.09000000357627869 a0.3499999940395355,0.3499999940395355 0 0 1 0.17000000178813934,0.17000000178813934 a0.4099999964237213,0.4099999964237213 0 0 1 0,0.2199999988079071 zM25.510000228881836,29.54850023984909 a6,6 0 0 0 -1.7000000476837158,-1.7400000095367432 a3.75,3.75 0 0 0 -2.059999942779541,-0.5799999833106995 a3.109999895095825,3.109999895095825 0 0 0 -1.6399999856948853,0.4300000071525574 a4.53000020980835,4.53000020980835 0 0 0 -1.2999999523162842,1.1399999856948853 a7.690000057220459,7.690000057220459 0 0 0 -1,1.600000023841858 a12.119999885559082,12.119999885559082 0 0 0 -0.6700000166893005,1.8600000143051147 a16.719999313354492,16.719999313354492 0 0 0 -0.38999998569488525,1.8899999856948853 a13,13 0 0 0 -0.11999999731779099,1.659999966621399 a7.679999828338623,7.679999828338623 0 0 0 0.09000000357627869,1.1699999570846558 a3.309999942779541,3.309999942779541 0 0 0 0.3499999940395355,1.059999942779541 a2.25,2.25 0 0 0 0.7200000286102295,0.7799999713897705 A2.1700000762939453,2.1700000762939453 0 0 0 19,39.14850443601608 a3.9000000953674316,3.9000000953674316 0 0 0 1.8600000143051147,-0.5099999904632568 a6.760000228881836,6.760000228881836 0 0 0 1.7400000095367432,-1.4299999475479126 A9.899999618530273,9.899999618530273 0 0 0 24,35.078504741191864 a10.8100004196167,10.8100004196167 0 0 0 0.9200000166893005,-2.7100000381469727 z" id="svg_8"/><path class="cls-3" d="M244.07000732421875,46.16850870847702 c1.4500000476837158,1.6699999570846558 3,3.25 4.300000190734863,5 a54.470001220703125,54.470001220703125 0 0 1 3.440000057220459,5.619999885559082 a29.850000381469727,29.850000381469727 0 0 1 1.7599999904632568,3.809999942779541 a27,27 0 0 1 1.1200000047683716,3.7200000286102295 c0.44999998807907104,2 0.8799999952316284,4.070000171661377 1.159999966621399,6.119999885559082 a18.280000686645508,18.280000686645508 0 0 1 0.07000000029802322,4 a3.5299999713897705,3.5299999713897705 0 0 1 -4,3.2200000286102295 a3.690000057220459,3.690000057220459 0 0 1 -3.2200000286102295,-3.680000066757202 a31.079999923706055,31.079999923706055 0 0 0 -29,-30.889999389648438 c-0.6299999952316284,-0.05000000074505806 -1.2599999904632568,-0.07999999821186066 -1.8899999856948853,-0.07999999821186066 a3.6500000953674316,3.6500000953674316 0 1 1 0.10000000149011612,-7.300000190734863 a37.13999938964844,37.13999938964844 0 0 1 11.649999618530273,1.8700000047683716 a31.610000610351562,31.610000610351562 0 0 1 8.34000015258789,4 c1.8300000429153442,1.2599999904632568 3.609999895095825,2.609999895095825 5.400000095367432,3.940000057220459 a7.449999809265137,7.449999809265137 0 0 1 0.699999988079071,0.6800000071525574 l0.07999999821186066,-0.07000000029802322 " id="svg_9"/><path class="cls-3" d="M213.63999938964844,48.078504741191864 h0 v12.319999694824219 a17.3700008392334,17.3700008392334 0 0 1 17.489999771118164,17.479999542236328 h12.729999542236328 c0,-17.690000534057617 -12.529999732971191,-29.799999237060547 -30.219999313354492,-29.799999237060547 " id="svg_10"/><path class="cls-3" d="M111.94000244140625,119.95805186033249 a0.12999999523162842,0.12999999523162842 0 0 0 -0.11999999731779099,0.10000000149011612 l-0.75,2.2100000381469727 a2.609999895095825,2.609999895095825 0 0 0 -0.17000000178813934,0.8299999833106995 c0,0.25 0.23000000417232513,0.36000001430511475 0.4399999976158142,0.36000001430511475 h0.11999999731779099 c0.11999999731779099,0 0.1599999964237213,0 0.1599999964237213,0.07999999821186066 s-0.10999999940395355,0.10000000149011612 -0.23000000417232513,0.10000000149011612 c-0.28999999165534973,0 -0.7900000214576721,0 -0.9300000071525574,0 s-0.8199999928474426,0 -1.409999966621399,0 c-0.1599999964237213,0 -0.23000000417232513,0 -0.23000000417232513,-0.10000000149011612 s0.05999999865889549,-0.07999999821186066 0.17000000178813934,-0.07999999821186066 l0.30000001192092896,0 c0.5699999928474426,-0.07999999821186066 0.8199999928474426,-0.550000011920929 1,-1.1699999570846558 l2.819999933242798,-7.739999771118164 c0.15000000596046448,-0.4099999964237213 0.20000000298023224,-0.47999998927116394 0.2800000011920929,-0.47999998927116394 s0.11999999731779099,0.05999999865889549 0.27000001072883606,0.44999998807907104 s2.140000104904175,5.610000133514404 2.9000000953674316,7.5 c0.44999998807907104,1.1100000143051147 0.8100000023841858,1.309999942779541 1.0700000524520874,1.3899999856948853 a1.7200000286102295,1.7200000286102295 0 0 0 0.49000000953674316,0.07000000029802322 c0.07000000029802322,0 0.12999999523162842,0 0.12999999523162842,0.07999999821186066 s-0.10999999940395355,0.10000000149011612 -0.25,0.10000000149011612 s-1.090000033378601,0 -2,0 c-0.23999999463558197,0 -0.3700000047683716,0 -0.3700000047683716,-0.09000000357627869 s0,-0.07000000029802322 0.07999999821186066,-0.07999999821186066 s0.15000000596046448,-0.14000000059604645 0.07999999821186066,-0.3400000035762787 l-1.159999966621399,-3.059999942779541 a0.10999999940395355,0.10999999940395355 0 0 0 -0.10999999940395355,-0.07999999821186066 zm2.5199999809265137,-0.44999998807907104 c0.05999999865889549,0 0.05999999865889549,0 0.05000000074505806,-0.07999999821186066 l-1.190000057220459,-3.359999895095825 q-0.09000000357627869,-0.2800000011920929 -0.18000000715255737,0 l-1.100000023841858,3.359999895095825 c0,0.05999999865889549 0,0.07999999821186066 0,0.07999999821186066 z" id="svg_11"/><path class="cls-3" d="M119.45999908447266,123.54801768064499 c-0.1599999964237213,-0.07999999821186066 -0.1599999964237213,-0.12999999523162842 -0.1599999964237213,-0.4300000071525574 c0,-0.5699999928474426 0,-1 0,-1.1699999570846558 s0,-0.17000000178813934 0.10000000149011612,-0.17000000178813934 s0.07999999821186066,0 0.07999999821186066,0.11999999731779099 a1.4700000286102295,1.4700000286102295 0 0 0 0,0.3799999952316284 a1.5,1.5 0 0 0 1.6200000047683716,1.1200000047683716 a1.399999976158142,1.399999976158142 0 0 0 1.5299999713897705,-1.3300000429153442 c0,-0.7099999785423279 -0.3199999928474426,-1.149999976158142 -1.2300000190734863,-1.8799999952316284 l-0.5,-0.38999998569488525 c-1.2000000476837158,-1 -1.440000057220459,-1.6200000047683716 -1.440000057220459,-2.3499999046325684 c0,-1.149999976158142 0.8999999761581421,-1.9199999570846558 2.299999952316284,-1.9199999570846558 a4.570000171661377,4.570000171661377 0 0 1 1,0.10000000149011612 a1.8899999856948853,1.8899999856948853 0 0 0 0.41999998688697815,0.05999999865889549 c0.09000000357627869,0 0.10999999940395355,0 0.10999999940395355,0.07999999821186066 s0,0.47999998927116394 0,1.2000000476837158 c0,0.1899999976158142 0,0.27000001072883606 -0.07999999821186066,0.27000001072883606 s-0.07999999821186066,0 -0.09000000357627869,-0.14000000059604645 a2,2 0 0 0 -0.15000000596046448,-0.5899999737739563 c-0.05999999865889549,-0.10999999940395355 -0.3499999940395355,-0.5799999833106995 -1.3899999856948853,-0.5799999833106995 a1.190000057220459,1.190000057220459 0 0 0 -1.309999942779541,1.190000057220459 c0,0.5899999737739563 0.30000001192092896,0.949999988079071 1.3300000429153442,1.7300000190734863 l0.28999999165534973,0.23000000417232513 c1.2899999618530273,1 1.6299999952316284,1.649999976158142 1.6299999952316284,2.5399999618530273 a2.1700000762939453,2.1700000762939453 0 0 1 -0.949999988079071,1.7599999904632568 a3,3 0 0 1 -1.6799999475479126,0.4399999976158142 A3.5399999618530273,3.5399999618530273 0 0 1 119.45999908447266,123.54801768064499 z" id="svg_12"/><path class="cls-3" d="M127.19000244140625,120.59805124998093 a0.15000000596046448,0.15000000596046448 0 0 0 -0.12999999523162842,0.10000000149011612 l-0.5400000214576721,1.5499999523162842 a3.059999942779541,3.059999942779541 0 0 0 -0.2199999988079071,0.8899999856948853 c0,0.2199999988079071 0.14000000059604645,0.3199999928474426 0.4099999964237213,0.3199999928474426 h0.09000000357627869 c0.10999999940395355,0 0.15000000596046448,0 0.15000000596046448,0.09000000357627869 s-0.10000000149011612,0.09000000357627869 -0.1899999976158142,0.09000000357627869 c-0.27000001072883606,0 -0.8399999737739563,0 -1,0 s-0.6700000166893005,0 -1.190000057220459,0 c-0.14000000059604645,0 -0.20000000298023224,0 -0.20000000298023224,-0.09000000357627869 s0,-0.09000000357627869 0.15000000596046448,-0.09000000357627869 h0.25 c0.5299999713897705,-0.05000000074505806 0.7400000095367432,-0.46000000834465027 0.949999988079071,-1 l2.490000009536743,-6.550000190734863 c0.14000000059604645,-0.3700000047683716 0.18000000715255737,-0.4300000071525574 0.27000001072883606,-0.4300000071525574 s0.10999999940395355,0 0.23999999463558197,0.4000000059604645 s1.8700000047683716,4.760000228881836 2.5299999713897705,6.309999942779541 c0.4099999964237213,1 0.7699999809265137,1.1399999856948853 0.949999988079071,1.2100000381469727 a1.2000000476837158,1.2000000476837158 0 0 0 0.41999998688697815,0.05999999865889549 c0.09000000357627869,0 0.15000000596046448,0 0.15000000596046448,0.09000000357627869 s0,0.09000000357627869 -0.1899999976158142,0.09000000357627869 s-1.059999942779541,0 -1.8899999856948853,0 c-0.23999999463558197,0 -0.3100000023841858,0 -0.3100000023841858,-0.09000000357627869 s0,-0.07000000029802322 0.09000000357627869,-0.07999999821186066 s0.11999999731779099,-0.09000000357627869 0,-0.2800000011920929 l-1,-2.5 a0.10000000149011612,0.10000000149011612 0 0 0 -0.10000000149011612,-0.05999999865889549 zm2.109999895095825,-0.4399999976158142 s0,0 0,-0.07000000029802322 l-1,-2.75 c-0.05999999865889549,-0.18000000715255737 -0.07999999821186066,-0.18000000715255737 -0.14000000059604645,0 l-0.9300000071525574,2.75 c0,0.05000000074505806 0,0.07000000029802322 0,0.07000000029802322 z" id="svg_13"/><path class="cls-3" d="M142.72999572753906,122.26803416013718 c0,0.28999999165534973 0.11999999731779099,1 0.6000000238418579,1.100000023841858 a3.930000066757202,3.930000066757202 0 0 0 0.6399999856948853,0.09000000357627869 c0.05000000074505806,0 0.1599999964237213,0 0.1599999964237213,0.07999999821186066 s0,0.10000000149011612 -0.1899999976158142,0.10000000149011612 l-2,-0.07999999821186066 c-0.2800000011920929,0 -0.3799999952316284,0 -0.3799999952316284,-0.10999999940395355 s0.05000000074505806,-0.09000000357627869 0.10999999940395355,-0.11999999731779099 s0.10000000149011612,-0.17000000178813934 0.07999999821186066,-0.3400000035762787 l-0.550000011920929,-5.329999923706055 l-2.640000104904175,5.349999904632568 c-0.23000000417232513,0.49000000953674316 -0.27000001072883606,0.6000000238418579 -0.3799999952316284,0.6000000238418579 s-0.14000000059604645,-0.10999999940395355 -0.3799999952316284,-0.5400000214576721 s-1.190000057220459,-2.3499999046325684 -1.2699999809265137,-2.4600000381469727 s-1.2899999618530273,-2.569999933242798 -1.3899999856948853,-2.8299999237060547 l-0.46000000834465027,4.800000190734863 a3.5399999618530273,3.5399999618530273 0 0 0 0,0.4699999988079071 a0.36000001430511475,0.36000001430511475 0 0 0 0.3199999928474426,0.3700000047683716 a2.0899999141693115,2.0899999141693115 0 0 0 0.3400000035762787,0 c0.10000000149011612,0 0.12999999523162842,0.05000000074505806 0.12999999523162842,0.07999999821186066 s-0.07000000029802322,0.10000000149011612 -0.20999999344348907,0.10000000149011612 c-0.4000000059604645,0 -0.9399999976158142,0 -1,0 s-0.6399999856948853,0 -1,0 c-0.11999999731779099,0 -0.1899999976158142,0 -0.1899999976158142,-0.10000000149011612 s0.05000000074505806,-0.07999999821186066 0.1599999964237213,-0.07999999821186066 h0.23999999463558197 c0.30000001192092896,0 0.4099999964237213,-0.33000001311302185 0.4699999988079071,-0.8299999833106995 l0.8299999833106995,-6.829999923706055 c0,-0.20999999344348907 0.07999999821186066,-0.3100000023841858 0.14000000059604645,-0.3100000023841858 s0.10000000149011612,0 0.1899999976158142,0.20000000298023224 l3.3299999237060547,6.460000038146973 l3.180000066757202,-6.449999809265137 c0.05999999865889549,-0.12999999523162842 0.10999999940395355,-0.20999999344348907 0.18000000715255737,-0.20999999344348907 s0.11999999731779099,0.10999999940395355 0.12999999523162842,0.3100000023841858 z" id="svg_14"/><path class="cls-3" d="M146,118.68806284666061 c0,-1.6299999952316284 0,-1.940000057220459 0,-2.2799999713897705 s-0.10999999940395355,-0.5 -0.49000000953674316,-0.5799999833106995 l-0.30000001192092896,0 c-0.10999999940395355,0 -0.1599999964237213,0 -0.1599999964237213,-0.09000000357627869 s0.07999999821186066,-0.09000000357627869 0.1899999976158142,-0.09000000357627869 c0.5199999809265137,0 1.2699999809265137,0 1.2899999618530273,0 c0.30000001192092896,0 0.7099999785423279,0 1.2000000476837158,0 c1.8700000047683716,0 2.240000009536743,1 2.240000009536743,1.5700000524520874 a2.3499999046325684,2.3499999046325684 0 0 1 -1.0499999523162842,1.909999966621399 a2.5,2.5 0 0 1 1.909999966621399,2.2300000190734863 c0,1.159999966621399 -0.9399999976158142,2.319999933242798 -2.8299999237060547,2.319999933242798 l-0.7699999809265137,0 l-0.699999988079071,0 c-0.3799999952316284,0 -0.7099999785423279,0 -1.1200000047683716,0 c-0.10999999940395355,0 -0.17000000178813934,0 -0.17000000178813934,-0.07999999821186066 s0,-0.10000000149011612 0.17000000178813934,-0.10000000149011612 a0.9300000071525574,0.9300000071525574 0 0 0 0.23000000417232513,0 c0.20999999344348907,0 0.2800000011920929,-0.30000001192092896 0.3199999928474426,-0.6000000238418579 c0.05999999865889549,-0.46000000834465027 0.05999999865889549,-1.309999942779541 0.05999999865889549,-2.2799999713897705 zm1,0.23000000417232513 c0,0.07999999821186066 0,0.10000000149011612 0.05999999865889549,0.11999999731779099 a3.369999885559082,3.369999885559082 0 0 0 0.6200000047683716,0 c0.6299999952316284,0 0.8199999928474426,0 1.059999942779541,-0.30000001192092896 a1.5499999523162842,1.5499999523162842 0 0 0 0.3199999928474426,-1 c0,-0.8600000143051147 -0.3799999952316284,-1.809999942779541 -1.440000057220459,-1.809999942779541 a2.0999999046325684,2.0999999046325684 0 0 0 -0.47999998927116394,0.05999999865889549 c-0.10999999940395355,0 -0.14000000059604645,0.05000000074505806 -0.14000000059604645,0.10999999940395355 zm0,1.0700000524520874 c0,0.7799999713897705 0,2.1500000953674316 0,2.25 c0,0.550000011920929 0,0.7099999785423279 0.4000000059604645,0.8700000047683716 a2.390000104904175,2.390000104904175 0 0 0 0.9200000166893005,0.1599999964237213 a1.3600000143051147,1.3600000143051147 0 0 0 1.4700000286102295,-1.399999976158142 a2.609999895095825,2.609999895095825 0 0 0 -1.0700000524520874,-2.1700000762939453 a1.7400000095367432,1.7400000095367432 0 0 0 -0.8500000238418579,-0.27000001072883606 a3.740000009536743,3.740000009536743 0 0 0 -0.8199999928474426,0 s-0.05999999865889549,0 -0.05999999865889549,0.07000000029802322 z" id="svg_15"/><path class="cls-3" d="M154.14999389648438,120.54804819822311 c0,1.440000057220459 0,2.1600000858306885 0.25999999046325684,2.359999895095825 s0.44999998807907104,0.25 1.2999999523162842,0.25 c0.550000011920929,0 1,0 1.3200000524520874,-0.3499999940395355 a1.659999966621399,1.659999966621399 0 0 0 0.23999999463558197,-0.6200000047683716 c0,-0.10000000149011612 0,-0.15000000596046448 0.10000000149011612,-0.15000000596046448 s0.07000000029802322,0 0.07000000029802322,0.1599999964237213 a7.409999847412109,7.409999847412109 0 0 1 -0.15000000596046448,1.1200000047683716 c-0.07000000029802322,0.25 -0.05999999865889549,0.3100000023841858 -0.6499999761581421,0.3100000023841858 c-0.8500000238418579,0 -1.7799999713897705,-0.05999999865889549 -3,-0.05999999865889549 c-0.4099999964237213,0 -0.6600000262260437,0 -1.100000023841858,0 c-0.11999999731779099,0 -0.20000000298023224,0 -0.20000000298023224,-0.10000000149011612 s0,-0.07999999821186066 0.14000000059604645,-0.07999999821186066 a1.5099999904632568,1.5099999904632568 0 0 0 0.30000001192092896,0 c0.20999999344348907,0 0.28999999165534973,-0.28999999165534973 0.3199999928474426,-0.5899999737739563 a18.809999465942383,18.809999465942383 0 0 0 0.05000000074505806,-2.2899999618530273 v-1.8700000047683716 c0,-1.6399999856948853 0,-1.909999966621399 0,-2.25 s-0.07999999821186066,-0.5699999928474426 -0.5,-0.6200000047683716 h-0.3100000023841858 c-0.09000000357627869,0 -0.14000000059604645,0 -0.14000000059604645,-0.09000000357627869 s0.07000000029802322,-0.09000000357627869 0.1899999976158142,-0.09000000357627869 c0.5199999809265137,0 1.2699999809265137,0 1.2899999618530273,0 c0.18000000715255737,0 0.9399999976158142,0 1.2899999618530273,0 c0.11999999731779099,0 0.1599999964237213,0 0.1599999964237213,0.09000000357627869 s-0.05999999865889549,0.09000000357627869 -0.14000000059604645,0.09000000357627869 l-0.33000001311302185,0 c-0.3499999940395355,0.05000000074505806 -0.4300000071525574,0.25 -0.44999998807907104,0.6100000143051147 s0,0.6100000143051147 0,2.25 z" id="svg_16"/><path class="cls-3" d="M159.6199951171875,118.68806284666061 c0,-1.6299999952316284 0,-1.9299999475479126 0,-2.259999990463257 s-0.11999999731779099,-0.5199999809265137 -0.47999998927116394,-0.6000000238418579 l-0.30000001192092896,0 c-0.07999999821186066,0 -0.1599999964237213,0 -0.1599999964237213,-0.07999999821186066 s0.05999999865889549,-0.10000000149011612 0.1899999976158142,-0.10000000149011612 l1.2799999713897705,0 c0.05999999865889549,0 2.2799999713897705,0 2.5299999713897705,0 a1.4900000095367432,1.4900000095367432 0 0 0 0.47999998927116394,-0.05999999865889549 a0.5,0.5 0 0 1 0.14000000059604645,0 s0.05000000074505806,0 0.05000000074505806,0.07999999821186066 s-0.07000000029802322,0.25 -0.10000000149011612,0.5600000023841858 s0,0.4099999964237213 0,0.6499999761581421 s0,0.1899999976158142 -0.09000000357627869,0.1899999976158142 s-0.09000000357627869,-0.05000000074505806 -0.09000000357627869,-0.14000000059604645 a1.0700000524520874,1.0700000524520874 0 0 0 -0.09000000357627869,-0.4000000059604645 c-0.07000000029802322,-0.25 -0.18000000715255737,-0.33000001311302185 -0.8100000023841858,-0.3700000047683716 l-1.4199999570846558,0 s-0.05999999865889549,0 -0.05999999865889549,0.10000000149011612 v2.8299999237060547 c0,0.07000000029802322 0,0.11999999731779099 0.07999999821186066,0.11999999731779099 s1.4199999570846558,0 1.6799999475479126,0 s0.4699999988079071,0 0.5699999928474426,-0.18000000715255737 s0.09000000357627869,-0.10000000149011612 0.14000000059604645,-0.10000000149011612 s0,0 0,0.07000000029802322 s0,0.30000001192092896 -0.09000000357627869,0.6600000262260437 s0,0.6000000238418579 0,0.7599999904632568 s0,0.14000000059604645 -0.09000000357627869,0.14000000059604645 s-0.07000000029802322,-0.07000000029802322 -0.07000000029802322,-0.1599999964237213 a1.1299999952316284,1.1299999952316284 0 0 0 0,-0.30000001192092896 c0,-0.1599999964237213 -0.11999999731779099,-0.3400000035762787 -0.6000000238418579,-0.3700000047683716 c-0.2800000011920929,0 -1.2899999618530273,-0.05000000074505806 -1.4900000095367432,-0.05000000074505806 s-0.09000000357627869,0 -0.09000000357627869,0.07999999821186066 V120.54804819822311 c0,0.38999998569488525 0,1.4800000190734863 0,1.7000000476837158 c0,0.46000000834465027 0.09000000357627869,0.6899999976158142 0.3499999940395355,0.800000011920929 a2.299999952316284,2.299999952316284 0 0 0 0.9100000262260437,0.11999999731779099 a3.6500000953674316,3.6500000953674316 0 0 0 0.949999988079071,-0.07999999821186066 c0.3700000047683716,-0.10999999940395355 0.44999998807907104,-0.36000001430511475 0.550000011920929,-0.8199999928474426 c0,-0.12999999523162842 0.07000000029802322,-0.17000000178813934 0.11999999731779099,-0.17000000178813934 s0.07000000029802322,0.10999999940395355 0.07000000029802322,0.18000000715255737 s-0.10000000149011612,0.8700000047683716 -0.12999999523162842,1.090000033378601 s-0.14000000059604645,0.27000001072883606 -0.550000011920929,0.27000001072883606 c-0.8199999928474426,0 -1.1699999570846558,0 -1.6100000143051147,0 s-1,0 -1.4700000286102295,0 c-0.2800000011920929,0 -0.5199999809265137,0 -0.8199999928474426,0 c-0.10999999940395355,0 -0.17000000178813934,0 -0.17000000178813934,-0.09000000357627869 a0.10000000149011612,0.10000000149011612 0 0 1 0.10999999940395355,-0.09000000357627869 a0.8100000023841858,0.8100000023841858 0 0 0 0.25,0 c0.2199999988079071,-0.05000000074505806 0.3700000047683716,-0.20999999344348907 0.4000000059604645,-1 c0,-0.41999998688697815 0,-0.9399999976158142 0,-1.8799999952316284 z" id="svg_17"/><path class="cls-3" d="M167.14999389648438,120.59805124998093 a0.12999999523162842,0.12999999523162842 0 0 0 -0.11999999731779099,0.10000000149011612 l-0.550000011920929,1.5499999523162842 a3,3 0 0 0 -0.20999999344348907,0.8899999856948853 c0,0.2199999988079071 0.12999999523162842,0.3199999928474426 0.4099999964237213,0.3199999928474426 h0.07999999821186066 c0.11999999731779099,0 0.15000000596046448,0 0.15000000596046448,0.09000000357627869 s-0.10000000149011612,0.09000000357627869 -0.18000000715255737,0.09000000357627869 c-0.2800000011920929,0 -0.8500000238418579,0 -1,0 s-0.6700000166893005,0 -1.190000057220459,0 c-0.14000000059604645,0 -0.20000000298023224,0 -0.20000000298023224,-0.09000000357627869 s0.05000000074505806,-0.09000000357627869 0.15000000596046448,-0.09000000357627869 h0.25 c0.5299999713897705,-0.05000000074505806 0.75,-0.46000000834465027 1,-1 l2.490000009536743,-6.550000190734863 c0.12999999523162842,-0.3700000047683716 0.17000000178813934,-0.4300000071525574 0.25999999046325684,-0.4300000071525574 s0.10999999940395355,0 0.25,0.4000000059604645 s1.8600000143051147,4.760000228881836 2.5199999809265137,6.309999942779541 c0.4099999964237213,1 0.7799999713897705,1.1399999856948853 1,1.2100000381469727 a1.2300000190734863,1.2300000190734863 0 0 0 0.41999998688697815,0.05999999865889549 c0.09000000357627869,0 0.15000000596046448,0 0.15000000596046448,0.09000000357627869 s-0.05000000074505806,0.09000000357627869 -0.18000000715255737,0.09000000357627869 s-1.059999942779541,0 -1.899999976158142,0 c-0.23000000417232513,0 -0.3100000023841858,0 -0.3100000023841858,-0.09000000357627869 s0,-0.07000000029802322 0.09000000357627869,-0.07999999821186066 s0.11999999731779099,-0.09000000357627869 0.05000000074505806,-0.2800000011920929 l-1,-2.5 s-0.05000000074505806,-0.05999999865889549 -0.10000000149011612,-0.05999999865889549 zm2.119999885559082,-0.4399999976158142 s0,0 0,-0.07000000029802322 l-1,-2.75 c-0.05999999865889549,-0.18000000715255737 -0.07000000029802322,-0.18000000715255737 -0.14000000059604645,0 l-0.9300000071525574,2.75 c0,0.05000000074505806 0,0.07000000029802322 0,0.07000000029802322 z" id="svg_18"/><path class="cls-3" d="M178.1300048828125,119.95805186033249 c0,-4.489999771118164 0,-2.869999885559082 0,-5.289999961853027 c0,-0.47999998927116394 0,-0.6200000047683716 0.14000000059604645,-0.6200000047683716 s0.3100000023841858,0.27000001072883606 0.4300000071525574,0.4000000059604645 s2,2.2100000381469727 4,4.269999980926514 c1.2300000190734863,1.3200000524520874 2.5899999141693115,2.8299999237060547 3,3.25 l-0.14000000059604645,-6.329999923706055 c0,-0.8100000023841858 -0.10000000149011612,-1.0800000429153442 -0.47999998927116394,-1.1799999475479126 a2.630000114440918,2.630000114440918 0 0 0 -0.5400000214576721,-0.05999999865889549 c-0.14000000059604645,0 -0.17000000178813934,0 -0.17000000178813934,-0.09000000357627869 s0.10000000149011612,-0.09000000357627869 0.25,-0.09000000357627869 c0.5600000023841858,0 1.149999976158142,0 1.2899999618530273,0 s0.550000011920929,0 1.059999942779541,0 c0.12999999523162842,0 0.2199999988079071,0 0.2199999988079071,0.09000000357627869 s-0.05000000074505806,0.07999999821186066 -0.12999999523162842,0.09000000357627869 l-0.33000001311302185,0.05000000074505806 c-0.3499999940395355,0.07000000029802322 -0.4300000071525574,0.25999999046325684 -0.4300000071525574,1.1200000047683716 l0,7.269999980926514 c0,0.8199999928474426 0,0.8799999952316284 -0.10999999940395355,0.8799999952316284 s-0.25,-0.14000000059604645 -0.9100000262260437,-0.7900000214576721 c-0.14000000059604645,-0.12999999523162842 -1.9299999475479126,-2 -3.25,-3.380000114440918 s-2.8499999046325684,-3.119999885559082 -3.25,-3.569999933242798 l0.17000000178813934,6 c0,1 0.15000000596046448,1.350000023841858 0.47999998927116394,1.4500000476837158 a2.809999942779541,2.809999942779541 0 0 0 0.6200000047683716,0.07000000029802322 c0.07000000029802322,0 0.10000000149011612,0 0.10000000149011612,0.07999999821186066 s-0.07000000029802322,0.10000000149011612 -0.2199999988079071,0.10000000149011612 c-0.7099999785423279,0 -1.2100000381469727,0 -1.3200000524520874,0 s-0.6399999856948853,0 -1.2000000476837158,0 c-0.11999999731779099,0 -0.1899999976158142,0 -0.1899999976158142,-0.10000000149011612 s0,-0.07999999821186066 0.09000000357627869,-0.07999999821186066 a1.7999999523162842,1.7999999523162842 0 0 0 0.5099999904632568,-0.07000000029802322 c0.3199999928474426,-0.09000000357627869 0.3799999952316284,-0.44999998807907104 0.3799999952316284,-1.590000033378601 z" id="svg_19"/><path class="cls-3" d="M190.55999755859375,120.59805124998093 a0.12999999523162842,0.12999999523162842 0 0 0 -0.11999999731779099,0.10000000149011612 l-0.550000011920929,1.5499999523162842 a3.3299999237060547,3.3299999237060547 0 0 0 -0.20999999344348907,0.8899999856948853 c0,0.2199999988079071 0.12999999523162842,0.3199999928474426 0.4099999964237213,0.3199999928474426 h0.09000000357627869 c0.10999999940395355,0 0.14000000059604645,0 0.14000000059604645,0.09000000357627869 s-0.09000000357627869,0.09000000357627869 -0.18000000715255737,0.09000000357627869 c-0.27000001072883606,0 -0.8500000238418579,0 -1,0 s-0.6800000071525574,0 -1.2000000476837158,0 c-0.14000000059604645,0 -0.20000000298023224,0 -0.20000000298023224,-0.09000000357627869 s0.05000000074505806,-0.09000000357627869 0.15000000596046448,-0.09000000357627869 h0.25 c0.5400000214576721,-0.05000000074505806 0.75,-0.46000000834465027 1,-1 l2.490000009536743,-6.550000190734863 c0.14000000059604645,-0.3700000047683716 0.17000000178813934,-0.4300000071525574 0.25999999046325684,-0.4300000071525574 s0.10999999940395355,0 0.25,0.4000000059604645 s1.8600000143051147,4.760000228881836 2.5199999809265137,6.309999942779541 c0.4099999964237213,1 0.7799999713897705,1.1399999856948853 1,1.2100000381469727 a1.2300000190734863,1.2300000190734863 0 0 0 0.41999998688697815,0.05999999865889549 c0.09000000357627869,0 0.15000000596046448,0 0.15000000596046448,0.09000000357627869 s0,0.09000000357627869 -0.18000000715255737,0.09000000357627869 s-1.059999942779541,0 -1.899999976158142,0 c-0.23000000417232513,0 -0.3100000023841858,0 -0.3100000023841858,-0.09000000357627869 s0,-0.07000000029802322 0.09000000357627869,-0.07999999821186066 s0.11999999731779099,-0.09000000357627869 0,-0.2800000011920929 l-1,-2.5 s-0.05000000074505806,-0.05999999865889549 -0.10000000149011612,-0.05999999865889549 zm2.119999885559082,-0.4399999976158142 s0,0 0,-0.07000000029802322 l-1,-2.75 c-0.05999999865889549,-0.18000000715255737 -0.07000000029802322,-0.18000000715255737 -0.14000000059604645,0 l-0.9300000071525574,2.75 c0,0.05000000074505806 0,0.07000000029802322 0,0.07000000029802322 z" id="svg_20"/><path class="cls-3" d="M197.83999633789062,122.63802164793015 a4,4 0 0 1 -1.3300000429153442,-3.180000066757202 a4.150000095367432,4.150000095367432 0 0 1 1.2599999904632568,-2.869999885559082 a4.53000020980835,4.53000020980835 0 0 1 3.3499999046325684,-1.1100000143051147 a10.479999542236328,10.479999542236328 0 0 1 1.6399999856948853,0.14000000059604645 a10.90999984741211,10.90999984741211 0 0 0 1.090000033378601,0.12999999523162842 c0.10000000149011612,0 0.11999999731779099,0.07000000029802322 0.11999999731779099,0.12999999523162842 s0,0.20999999344348907 -0.07000000029802322,0.6100000143051147 s0,1 0,1.1399999856948853 s0,0.23999999463558197 -0.10000000149011612,0.23999999463558197 s-0.10000000149011612,-0.07000000029802322 -0.10000000149011612,-0.23999999463558197 a1.5,1.5 0 0 0 -0.47999998927116394,-1.0800000429153442 a3.7699999809265137,3.7699999809265137 0 0 0 -2.2100000381469727,-0.6299999952316284 a3.2699999809265137,3.2699999809265137 0 0 0 -2.390000104904175,0.7200000286102295 a3.319999933242798,3.319999933242798 0 0 0 -1,2.7200000286102295 a3.9000000953674316,3.9000000953674316 0 0 0 3.869999885559082,3.890000104904175 a2.5899999141693115,2.5899999141693115 0 0 0 1.899999976158142,-0.5099999904632568 a1.7400000095367432,1.7400000095367432 0 0 0 0.4099999964237213,-0.8999999761581421 c0,-0.11999999731779099 0.05999999865889549,-0.1899999976158142 0.14000000059604645,-0.1899999976158142 s0.05999999865889549,0.09000000357627869 0.05999999865889549,0.18000000715255737 a11.15999984741211,11.15999984741211 0 0 1 -0.25,1.3799999952316284 c-0.07000000029802322,0.20000000298023224 -0.10999999940395355,0.23999999463558197 -0.2800000011920929,0.3100000023841858 a5.940000057220459,5.940000057220459 0 0 1 -2,0.25 A5.269999980926514,5.269999980926514 0 0 1 197.83999633789062,122.63802164793015 z" id="svg_21"/><path class="cls-3" d="M206.44000244140625,118.68806284666061 c0,-1.6399999856948853 0,-1.940000057220459 0,-2.2799999713897705 s-0.10000000149011612,-0.5199999809265137 -0.36000001430511475,-0.5699999928474426 l-0.28999999165534973,0 c-0.09000000357627869,0 -0.14000000059604645,0 -0.14000000059604645,-0.09000000357627869 s0.05000000074505806,-0.09000000357627869 0.1899999976158142,-0.09000000357627869 c0.38999998569488525,0 1.100000023841858,0 1.1299999952316284,0 s0.7699999809265137,0 1.1200000047683716,0 c0.12999999523162842,0 0.1899999976158142,0 0.1899999976158142,0.09000000357627869 s0,0.07000000029802322 -0.14000000059604645,0.09000000357627869 l-0.2199999988079071,0 c-0.36000001430511475,0.05000000074505806 -0.4000000059604645,0.23999999463558197 -0.41999998688697815,0.6000000238418579 s0,0.6200000047683716 0,2.259999990463257 V120.54804819822311 c0,1 0,1.8300000429153442 0,2.2799999713897705 s0.10000000149011612,0.49000000953674316 0.4300000071525574,0.5699999928474426 a2.569999933242798,2.569999933242798 0 0 0 0.4699999988079071,0 c0.10999999940395355,0 0.14000000059604645,0 0.14000000059604645,0.09000000357627869 s-0.05000000074505806,0.09000000357627869 -0.18000000715255737,0.09000000357627869 c-0.6299999952316284,0 -1.350000023841858,0 -1.4199999570846558,0 s-0.7699999809265137,0 -1.1200000047683716,0 c-0.10999999940395355,0 -0.20000000298023224,0 -0.20000000298023224,-0.09000000357627869 s0.05000000074505806,-0.09000000357627869 0.17000000178813934,-0.09000000357627869 a1.1100000143051147,1.1100000143051147 0 0 0 0.28999999165534973,0 c0.2199999988079071,-0.05000000074505806 0.25,-0.30000001192092896 0.28999999165534973,-0.5899999737739563 c0.05999999865889549,-0.44999998807907104 0.05999999865889549,-1.340000033378601 0.05999999865889549,-2.2699999809265137 z" id="svg_22"/><path class="cls-3" d="M209.91000366210938,119.6080533862114 a4.210000038146973,4.210000038146973 0 0 1 4.360000133514404,-4.130000114440918 c2.4700000286102295,0 4.349999904632568,1.4700000286102295 4.349999904632568,4 a4.239999771118164,4.239999771118164 0 0 1 -4.409999847412109,4.320000171661377 A4.050000190734863,4.050000190734863 0 0 1 209.91000366210938,119.6080533862114 zm7.539999961853027,0.15000000596046448 c0,-2.5 -1.5499999523162842,-3.890000104904175 -3.25,-3.890000104904175 s-3.130000114440918,1.0700000524520874 -3.130000114440918,3.4200000762939453 s1.3600000143051147,4.059999942779541 3.450000047683716,4.059999942779541 C215.35000610351562,123.3480207324028 217.4499969482422,122.92803019285202 217.4499969482422,119.75806254148483 z" id="svg_23"/><path class="cls-3" d="M220.8800048828125,115.98808878660202 c0,-0.3799999952316284 0,-0.5099999904632568 0.14000000059604645,-0.5099999904632568 s0.30000001192092896,0.25 0.3799999952316284,0.3400000035762787 l3.5899999141693115,3.6700000762939453 c1,0.949999988079071 2.2100000381469727,2.2300000190734863 2.5399999618530273,2.5299999713897705 l-0.14000000059604645,-5.179999828338623 c0,-0.6700000166893005 -0.09000000357627869,-0.8999999761581421 -0.41999998688697815,-1 a2.9200000762939453,2.9200000762939453 0 0 0 -0.49000000953674316,-0.05000000074505806 c-0.11999999731779099,0 -0.15000000596046448,-0.05999999865889549 -0.15000000596046448,-0.10000000149011612 s0.10000000149011612,-0.07999999821186066 0.23000000417232513,-0.07999999821186066 c0.5299999713897705,0 1.0499999523162842,0 1.1699999570846558,0 s0.5099999904632568,0 1,0 c0.14000000059604645,0 0.17000000178813934,0 0.17000000178813934,0.07999999821186066 s0,0.07999999821186066 -0.10000000149011612,0.10000000149011612 l-0.3199999928474426,0 c-0.2800000011920929,0.07000000029802322 -0.3700000047683716,0.1899999976158142 -0.3700000047683716,0.9399999976158142 l0,6.25 c0,0.6200000047683716 0,0.6800000071525574 -0.10999999940395355,0.6800000071525574 s-0.20999999344348907,-0.09000000357627869 -0.8199999928474426,-0.6600000262260437 c0,0 -1.7799999713897705,-1.7400000095367432 -2.859999895095825,-2.799999952316284 l-2.8499999046325684,-3 l0.1599999964237213,4.860000133514404 c0,0.8600000143051147 0.10000000149011612,1.1799999475479126 0.4099999964237213,1.2599999904632568 a2.140000104904175,2.140000104904175 0 0 0 0.5099999904632568,0 c0.10000000149011612,0 0.15000000596046448,0 0.15000000596046448,0.09000000357627869 s-0.05999999865889549,0.09000000357627869 -0.20000000298023224,0.09000000357627869 c-0.6700000166893005,0 -1.1200000047683716,0 -1.2100000381469727,0 s-0.5400000214576721,0 -1.0800000429153442,0 c-0.10999999940395355,0 -0.1899999976158142,0 -0.1899999976158142,-0.09000000357627869 s0.05000000074505806,-0.09000000357627869 0.18000000715255737,-0.09000000357627869 a1.2200000286102295,1.2200000286102295 0 0 0 0.3799999952316284,0 c0.2800000011920929,-0.07999999821186066 0.3400000035762787,-0.41999998688697815 0.3400000035762787,-1.3300000429153442 C220.8800048828125,116.1380826830864 220.88999938964844,118.05806559324265 220.8800048828125,115.98808878660202 z" id="svg_24"/><path class="cls-3" d="M232.17999267578125,120.59805124998093 a0.12999999523162842,0.12999999523162842 0 0 0 -0.11999999731779099,0.10000000149011612 l-0.550000011920929,1.5499999523162842 a3,3 0 0 0 -0.20999999344348907,0.8899999856948853 c0,0.2199999988079071 0.12999999523162842,0.3199999928474426 0.4099999964237213,0.3199999928474426 h0.09000000357627869 c0.10999999940395355,0 0.15000000596046448,0 0.15000000596046448,0.09000000357627869 s-0.10999999940395355,0.09000000357627869 -0.1899999976158142,0.09000000357627869 c-0.27000001072883606,0 -0.8500000238418579,0 -1,0 s-0.6700000166893005,0 -1.190000057220459,0 c-0.14000000059604645,0 -0.20000000298023224,0 -0.20000000298023224,-0.09000000357627869 s0.05000000074505806,-0.09000000357627869 0.15000000596046448,-0.09000000357627869 h0.25 c0.5400000214576721,-0.05000000074505806 0.75,-0.46000000834465027 1,-1 l2.490000009536743,-6.550000190734863 c0.12999999523162842,-0.3700000047683716 0.17000000178813934,-0.4300000071525574 0.25999999046325684,-0.4300000071525574 s0.10999999940395355,0 0.25,0.4000000059604645 s1.8600000143051147,4.760000228881836 2.5199999809265137,6.309999942779541 c0.4099999964237213,1 0.7799999713897705,1.1399999856948853 1,1.2100000381469727 a1.2300000190734863,1.2300000190734863 0 0 0 0.41999998688697815,0.05999999865889549 c0.09000000357627869,0 0.15000000596046448,0 0.15000000596046448,0.09000000357627869 s-0.05000000074505806,0.09000000357627869 -0.1899999976158142,0.09000000357627869 s-1.0499999523162842,0 -1.8899999856948853,0 c-0.23000000417232513,0 -0.3100000023841858,0 -0.3100000023841858,-0.09000000357627869 s0,-0.07000000029802322 0.09000000357627869,-0.07999999821186066 s0.11999999731779099,-0.09000000357627869 0.05000000074505806,-0.2800000011920929 l-1,-2.5 s-0.05000000074505806,-0.05999999865889549 -0.10000000149011612,-0.05999999865889549 zm2.119999885559082,-0.4399999976158142 s0,0 0,-0.07000000029802322 l-1,-2.75 c-0.05999999865889549,-0.18000000715255737 -0.07999999821186066,-0.18000000715255737 -0.14000000059604645,0 l-0.9300000071525574,2.75 c0,0.05000000074505806 0,0.07000000029802322 0,0.07000000029802322 z" id="svg_25"/><path class="cls-3" d="M240.27999877929688,120.54804819822311 c0,1.440000057220459 0.05000000074505806,2.1600000858306885 0.25999999046325684,2.359999895095825 s0.44999998807907104,0.25 1.309999942779541,0.25 c0.550000011920929,0 1.0499999523162842,0 1.3200000524520874,-0.3499999940395355 a1.659999966621399,1.659999966621399 0 0 0 0.23999999463558197,-0.6200000047683716 c0,-0.10000000149011612 0,-0.15000000596046448 0.10000000149011612,-0.15000000596046448 s0.07000000029802322,0 0.07000000029802322,0.1599999964237213 a7.409999847412109,7.409999847412109 0 0 1 -0.15000000596046448,1.1200000047683716 c-0.07000000029802322,0.25 -0.05999999865889549,0.3100000023841858 -0.6600000262260437,0.3100000023841858 c-0.8399999737739563,0 -1.7799999713897705,-0.05999999865889549 -3,-0.05999999865889549 c-0.4099999964237213,0 -0.6600000262260437,0 -1.100000023841858,0 c-0.11999999731779099,0 -0.20000000298023224,0 -0.20000000298023224,-0.10000000149011612 s0,-0.07999999821186066 0.14000000059604645,-0.07999999821186066 a1.5099999904632568,1.5099999904632568 0 0 0 0.30000001192092896,0 c0.20999999344348907,0 0.28999999165534973,-0.28999999165534973 0.3199999928474426,-0.5899999737739563 a18.809999465942383,18.809999465942383 0 0 0 0,-2.2899999618530273 v-1.8700000047683716 c0,-1.6399999856948853 0,-1.909999966621399 0,-2.25 s-0.07999999821186066,-0.5699999928474426 -0.5,-0.6200000047683716 h-0.3100000023841858 c-0.09000000357627869,0 -0.14000000059604645,0 -0.14000000059604645,-0.09000000357627869 s0.05999999865889549,-0.09000000357627869 0.1899999976158142,-0.09000000357627869 c0.5199999809265137,0 1.2699999809265137,0 1.2899999618530273,0 c0.18000000715255737,0 0.9399999976158142,0 1.2899999618530273,0 c0.11999999731779099,0 0.1599999964237213,0 0.1599999964237213,0.09000000357627869 s-0.07000000029802322,0.09000000357627869 -0.14000000059604645,0.09000000357627869 l-0.3400000035762787,0 c-0.3400000035762787,0.05000000074505806 -0.41999998688697815,0.25 -0.4399999976158142,0.6100000143051147 s0,0.6100000143051147 0,2.25 z" id="svg_26"/><path class="cls-3" d="M81.73999786376953,117.54807108640671 c0,-1.1799999475479126 0,-1.409999966621399 0,-1.6399999856948853 s-0.09000000357627869,-0.3700000047683716 -0.3499999940395355,-0.41999998688697815 l-0.25999999046325684,0 s-0.09000000357627869,0 -0.09000000357627869,-0.05000000074505806 s0,-0.07999999821186066 0.12999999523162842,-0.07999999821186066 c0.3700000047683716,0 0.9399999976158142,0 1,0 s0.5299999713897705,0 1,0 a4.309999942779541,4.309999942779541 0 0 1 3.2100000381469727,0.8799999952316284 a2.700000047683716,2.700000047683716 0 0 1 0.7599999904632568,1.9299999475479126 a3.0899999141693115,3.0899999141693115 0 0 1 -0.8500000238418579,2.1500000953674316 a3.1500000953674316,3.1500000953674316 0 0 1 -2.4000000953674316,0.8799999952316284 c-0.3400000035762787,0 -0.7799999713897705,0 -1.1200000047683716,0 l-0.6399999856948853,0 h-0.8299999833106995 c-0.07999999821186066,0 -0.12999999523162842,0 -0.12999999523162842,-0.05999999865889549 s0,-0.05999999865889549 0.10000000149011612,-0.05999999865889549 a0.7599999904632568,0.7599999904632568 0 0 0 0.20999999344348907,0 c0.15000000596046448,0 0.20999999344348907,-0.20999999344348907 0.23000000417232513,-0.4099999964237213 a12.529999732971191,12.529999732971191 0 0 0 0,-1.6699999570846558 zm0.7300000190734863,0.7699999809265137 c0,0.800000011920929 0,1.5 0,1.6399999856948853 a1.4800000190734863,1.4800000190734863 0 0 0 0.09000000357627869,0.6000000238418579 c0.10000000149011612,0.15000000596046448 0.38999998569488525,0.3400000035762787 1.3200000524520874,0.3400000035762787 a2.2300000190734863,2.2300000190734863 0 0 0 2.450000047683716,-2.490000009536743 a2.6600000858306885,2.6600000858306885 0 0 0 -0.7699999809265137,-1.9299999475479126 a3.259999990463257,3.259999990463257 0 0 0 -2.5299999713897705,-0.8500000238418579 a1.840000033378601,1.840000033378601 0 0 0 -0.46000000834465027,0.05999999865889549 a0.1599999964237213,0.1599999964237213 0 0 0 -0.10000000149011612,0.1599999964237213 c0,0.25999999046325684 0,1 0,1.559999942779541 z" id="svg_27"/><path class="cls-3" d="M88.91999816894531,117.54807108640671 c0,-1.1699999570846558 0,-1.3899999856948853 0,-1.6299999952316284 s-0.07999999821186066,-0.3799999952316284 -0.3400000035762787,-0.4300000071525574 l-0.2199999988079071,0 c-0.05999999865889549,0 -0.10999999940395355,0 -0.10999999940395355,-0.05000000074505806 s0,-0.07999999821186066 0.12999999523162842,-0.07999999821186066 l0.9200000166893005,0 h1.8300000429153442 a1.75,1.75 0 0 0 0.3499999940395355,0 a0.2199999988079071,0.2199999988079071 0 0 1 0.10000000149011612,0 s0,0 0,0.05999999865889549 s0,0.18000000715255737 -0.07000000029802322,0.4099999964237213 s0,0.28999999165534973 0,0.46000000834465027 s0,0.14000000059604645 -0.05999999865889549,0.14000000059604645 s-0.05999999865889549,0 -0.05999999865889549,-0.10000000149011612 a0.8799999952316284,0.8799999952316284 0 0 0 -0.07000000029802322,-0.28999999165534973 c0,-0.18000000715255737 -0.12999999523162842,-0.23999999463558197 -0.5799999833106995,-0.27000001072883606 h-1 s0,0 0,0.07000000029802322 v2 c0,0.05999999865889549 0,0.09000000357627869 0.05999999865889549,0.09000000357627869 s1,0 1.2100000381469727,0 s0.3400000035762787,0 0.4099999964237213,-0.14000000059604645 s0.05999999865889549,-0.07000000029802322 0.10000000149011612,-0.07000000029802322 s0,0 0,0 s0,0.2199999988079071 -0.07000000029802322,0.47999998927116394 s0,0.4300000071525574 0,0.550000011920929 s0,0.10000000149011612 -0.07000000029802322,0.10000000149011612 s0,-0.05999999865889549 0,-0.11999999731779099 a1,1 0 0 0 0,-0.2199999988079071 c0,-0.10999999940395355 -0.09000000357627869,-0.23999999463558197 -0.4300000071525574,-0.27000001072883606 l-1.0700000524520874,0 c-0.05999999865889549,0 -0.07000000029802322,0 -0.07000000029802322,0.05999999865889549 v0.6600000262260437 c0,0.2800000011920929 0,1.059999942779541 0,1.2200000286102295 c0,0.33000001311302185 0.07000000029802322,0.5 0.25,0.5799999833106995 a1.7999999523162842,1.7999999523162842 0 0 0 0.6600000262260437,0.07999999821186066 a2.759999990463257,2.759999990463257 0 0 0 0.6800000071525574,-0.05000000074505806 c0.27000001072883606,-0.07999999821186066 0.33000001311302185,-0.25999999046325684 0.4099999964237213,-0.5899999737739563 c0,-0.09000000357627869 0,-0.12999999523162842 0.07999999821186066,-0.12999999523162842 s0,0.07999999821186066 0,0.12999999523162842 s-0.07000000029802322,0.6299999952316284 -0.10000000149011612,0.7900000214576721 s-0.10000000149011612,0.1899999976158142 -0.38999998569488525,0.1899999976158142 c-0.6000000238418579,0 -0.8500000238418579,0 -1.159999966621399,0 l-1.059999942779541,0 l-0.5899999737739563,0 c-0.07999999821186066,0 -0.12999999523162842,0 -0.12999999523162842,-0.05999999865889549 s0,-0.05999999865889549 0.07999999821186066,-0.05999999865889549 a0.5699999928474426,0.5699999928474426 0 0 0 0.18000000715255737,0 c0.1599999964237213,0 0.27000001072883606,-0.15000000596046448 0.28999999165534973,-0.7099999785423279 c0,-0.30000001192092896 0,-0.6700000166893005 0,-1.350000023841858 z" id="svg_28"/><path class="cls-3" d="M97.43000030517578,118.92806833982468 c0,1 0,1.5499999523162842 0.1899999976158142,1.690000057220459 s0.33000001311302185,0.18000000715255737 0.9399999976158142,0.18000000715255737 c0.4000000059604645,0 0.7599999904632568,0 1,-0.25 a1.1299999952316284,1.1299999952316284 0 0 0 0.17000000178813934,-0.44999998807907104 c0,-0.07000000029802322 0,-0.10999999940395355 0.07000000029802322,-0.10999999940395355 s0,0 0,0.11999999731779099 a5.079999923706055,5.079999923706055 0 0 1 -0.10999999940395355,0.8100000023841858 c0,0.18000000715255737 0,0.2199999988079071 -0.4699999988079071,0.2199999988079071 c-0.6100000143051147,0 -1.2799999713897705,0 -2.180000066757202,0 l-0.7900000214576721,0 c-0.09000000357627869,0 -0.15000000596046448,0 -0.15000000596046448,-0.07000000029802322 s0,-0.05000000074505806 0.10000000149011612,-0.05000000074505806 a0.8199999928474426,0.8199999928474426 0 0 0 0.2199999988079071,0 c0.15000000596046448,0 0.20000000298023224,-0.20999999344348907 0.23000000417232513,-0.41999998688697815 a12.9399995803833,12.9399995803833 0 0 0 0,-1.649999976158142 V117.54807108640671 c0,-1.1799999475479126 0,-1.3799999952316284 0,-1.6200000047683716 s-0.05000000074505806,-0.4099999964237213 -0.36000001430511475,-0.44999998807907104 H96.0999984741211 c-0.07000000029802322,0 -0.10000000149011612,0 -0.10000000149011612,-0.05999999865889549 s0,-0.07000000029802322 0.12999999523162842,-0.07000000029802322 c0.3799999952316284,0 0.9200000166893005,0 0.9399999976158142,0 l0.9200000166893005,0 c0.09000000357627869,0 0.11999999731779099,0 0.11999999731779099,0.07000000029802322 s0,0.05999999865889549 -0.10000000149011612,0.05999999865889549 l-0.23999999463558197,0 c-0.25999999046325684,0 -0.3100000023841858,0.18000000715255737 -0.33000001311302185,0.4399999976158142 s0,0.4399999976158142 0,1.6200000047683716 z" id="svg_29"/><path class="cls-3" d="M102.4000015258789,118.92806833982468 a0.09000000357627869,0.09000000357627869 0 0 0 -0.09000000357627869,0.07999999821186066 l-0.4000000059604645,1.1200000047683716 a2.190000057220459,2.190000057220459 0 0 0 -0.15000000596046448,0.6399999856948853 c0,0.1599999964237213 0.10000000149011612,0.23000000417232513 0.30000001192092896,0.23000000417232513 h0.05999999865889549 c0.07999999821186066,0 0.10999999940395355,0 0.10999999940395355,0.05999999865889549 s-0.07999999821186066,0.05999999865889549 -0.14000000059604645,0.05999999865889549 l-0.7099999785423279,0 l-0.8600000143051147,0 c-0.10000000149011612,0 -0.14000000059604645,0 -0.14000000059604645,-0.05999999865889549 s0,-0.05999999865889549 0.10000000149011612,-0.05999999865889549 h0.18000000715255737 c0.38999998569488525,0 0.5400000214576721,-0.33000001311302185 0.699999988079071,-0.7099999785423279 l1.7899999618530273,-4.730000019073486 c0.10000000149011612,-0.25999999046325684 0.12999999523162842,-0.30000001192092896 0.1899999976158142,-0.30000001192092896 s0.07999999821186066,0 0.18000000715255737,0.2800000011920929 s1.340000033378601,3.430000066757202 1.8200000524520874,4.550000190734863 c0.30000001192092896,0.7099999785423279 0.5600000023841858,0.8299999833106995 0.6800000071525574,0.8700000047683716 a0.7900000214576721,0.7900000214576721 0 0 0 0.3100000023841858,0 c0.05999999865889549,0 0.10000000149011612,0 0.10000000149011612,0.05999999865889549 s0,0.05999999865889549 -0.12999999523162842,0.05999999865889549 h-1.3600000143051147 c-0.18000000715255737,0 -0.23000000417232513,0 -0.23000000417232513,-0.07000000029802322 s0,-0.05000000074505806 0.05999999865889549,-0.05999999865889549 s0.09000000357627869,-0.05999999865889549 0,-0.20000000298023224 l-0.7099999785423279,-1.7999999523162842 s0,-0.05000000074505806 -0.07000000029802322,-0.05000000074505806 zm1.5199999809265137,-0.3100000023841858 s0,0 0,0 l-0.7099999785423279,-2 c0,-0.11999999731779099 0,-0.11999999731779099 -0.10000000149011612,0 l-0.6700000166893005,2 s0,0 0,0 z" id="svg_30"/></g></svg>