<?xml version="1.0" encoding="utf-8"?>
<!-- Generator: Adobe Illustrator 22.0.1, SVG Export Plug-In . SVG Version: 6.00 Build 0)  -->
<svg version="1.1" id="Capa_1" xmlns="http://www.w3.org/2000/svg" xmlns:xlink="http://www.w3.org/1999/xlink" x="0px" y="0px"
	 viewBox="0 0 230 110" xml:space="preserve">
<style type="text/css">
	.st1{fill:#1A2C66;}
	.st0{fill:#000000;}
</style>
<g
    transform="translate(-30,-40)"
    >		
		<rect x="50.2" y="86.2" class="st1" width="20.2" height="20.2"/>
		<rect x="131" y="86.2" class="st1" width="20.2" height="20.2"/>
		<rect x="90.6" y="86.2" class="st1" width="20.2" height="20.2"/>
		<rect x="211.8" y="86.2" class="st1" width="20.2" height="20.2"/>
		<rect x="171.4" y="86.2" class="st1" width="20.2" height="20.2"/>
		<rect x="70.8" y="123.1" class="st1" width="20.2" height="20.2"/>
		<rect x="151.5" y="123.1" class="st1" width="20.2" height="20.2"/>
		<rect x="111.2" y="123.1" class="st1" width="20.2" height="20.2"/>
		<rect x="191.9" y="123.1" class="st1" width="20.2" height="20.2"/>
		<rect x="157.1" y="47" class="st1" width="20.2" height="20.2"/>
		<rect x="76.3" y="47" class="st1" width="20.2" height="20.2"/>
		<rect x="197.5" y="47" class="st1" width="20.2" height="20.2"/>
		<rect x="116.7" y="47" class="st1" width="20.2" height="20.2"/>
		<rect x="36" y="47" class="st1" width="20.2" height="20.2"/>
		<rect x="237.9" y="47" class="st1" width="20.2" height="20.2"/>	
</g>
</svg>
