<svg version="1.1" xmlns="http://www.w3.org/2000/svg" xmlns:xlink="http://www.w3.org/1999/xlink" style="" xml:space="preserve" width="333" height="124"><rect id="backgroundrect" width="100%" height="100%" x="0" y="0" fill="none" stroke="none"/>
<style type="text/css">
	.st0{fill:#FFFFFF;}
	.st1{fill:#0071B4;}
	.st2{fill:#090A08;}
	.st3{fill:#ED1B2E;}
	.st4{fill:#B62F34;}
	.st5{fill:#E1B32D;}
	.st6{fill:#ECC324;}
	.st7{fill:#1F72AC;}
	.st8{fill:#0368A7;}
	.st9{clip-path:url(#SVGID_2_);}
	.st10{opacity:0.74;}
	.st11{fill:url(#SVGID_3_);}
	.st12{opacity:0.41;fill:url(#SVGID_4_);}
	.st13{opacity:0.41;fill:url(#SVGID_5_);}
	.st14{fill:#00558A;}
	.st15{clip-path:url(#SVGID_7_);}
	.st16{fill:url(#SVGID_8_);}
	.st17{opacity:0.41;fill:url(#SVGID_9_);}
	.st18{opacity:0.41;fill:url(#SVGID_10_);}
	.st19{clip-path:url(#SVGID_12_);}
	.st20{fill:url(#SVGID_13_);}
	.st21{opacity:0.41;fill:url(#SVGID_14_);}
	.st22{opacity:0.41;fill:url(#SVGID_15_);}
	.st23{clip-path:url(#SVGID_17_);}
	.st24{fill:url(#SVGID_18_);}
	.st25{opacity:0.41;fill:url(#SVGID_19_);}
	.st26{opacity:0.41;fill:url(#SVGID_20_);}
	.st27{clip-path:url(#SVGID_22_);}
	.st28{fill:url(#SVGID_23_);}
	.st29{opacity:0.41;fill:url(#SVGID_24_);}
	.st30{opacity:0.41;fill:url(#SVGID_25_);}
	.st31{fill:url(#SVGID_26_);}
	.st32{fill:#F2F2F2;}
	.st33{fill:url(#SVGID_27_);}
	.st34{fill:#E8E0E0;}
	.st35{fill:url(#SVGID_28_);}
	.st36{fill:#1DA1F2;}
	.st37{fill:url(#SVGID_29_);}
	.st38{fill:none;stroke:#999999;stroke-width:0.1279;}
	.st39{fill:none;stroke:#B3B3B3;stroke-width:1.279;stroke-miterlimit:10;}
	.st40{fill:url(#SVGID_30_);}
	.st41{fill:none;stroke:#CCCCCC;stroke-width:1.279;stroke-miterlimit:10;}
	.st42{fill:url(#SVGID_31_);}
	.st43{fill:url(#SVGID_32_);}
	.st44{fill:url(#SVGID_33_);}
	.st45{fill:#606060;}
	.st46{fill:none;stroke:#606060;stroke-width:1.0939;stroke-miterlimit:10;}
	.st47{clip-path:url(#SVGID_35_);}
	.st48{fill:url(#SVGID_36_);}
	.st49{opacity:0.41;fill:url(#SVGID_37_);}
	.st50{opacity:0.41;fill:url(#SVGID_38_);}
	.st51{clip-path:url(#SVGID_40_);}
	.st52{fill:url(#SVGID_41_);}
	.st53{opacity:0.41;fill:url(#SVGID_42_);}
	.st54{opacity:0.41;fill:url(#SVGID_43_);}
	.st55{clip-path:url(#SVGID_45_);}
	.st56{fill:url(#SVGID_46_);}
	.st57{opacity:0.41;fill:url(#SVGID_47_);}
	.st58{opacity:0.41;fill:url(#SVGID_48_);}
	.st59{clip-path:url(#SVGID_50_);}
	.st60{fill:url(#SVGID_51_);}
	.st61{opacity:0.41;fill:url(#SVGID_52_);}
	.st62{opacity:0.41;fill:url(#SVGID_53_);}
	.st63{clip-path:url(#SVGID_55_);}
	.st64{fill:url(#SVGID_56_);}
	.st65{opacity:0.41;fill:url(#SVGID_57_);}
	.st66{opacity:0.41;fill:url(#SVGID_58_);}
	.st67{opacity:0.41;fill:url(#SVGID_59_);}
	.st68{opacity:0.73;fill:#606060;}
	.st69{fill:none;}
	.st70{fill:#ABABAB;}
	.st71{fill:none;stroke:#606060;stroke-width:5;stroke-miterlimit:10;}
	.st72{fill:none;stroke:#DEDEDE;stroke-width:2;stroke-miterlimit:10;}
	.st73{opacity:0.17;}
	.st74{opacity:0.7;clip-path:url(#SVGID_61_);}
	.st75{fill:#004C89;stroke:#0070A2;stroke-width:4.4327;stroke-miterlimit:10;}
	.st76{fill:#0070A2;stroke:#0070A2;stroke-width:2.2164;stroke-miterlimit:10;}
	.st77{fill:#0070A2;stroke:#0070A2;stroke-width:1.1082;stroke-miterlimit:10;}
	.st78{fill:#0070A2;stroke:#0070A2;stroke-width:4.4327;stroke-miterlimit:10;}
	.st79{fill:none;stroke:#0070A2;stroke-width:2.2164;stroke-miterlimit:10;}
	.st80{fill:none;stroke:#0070A2;stroke-width:1.1082;stroke-miterlimit:10;}
	.st81{fill:none;stroke:#0070A2;stroke-width:4.4327;stroke-miterlimit:10;}
	.st82{fill:#FFFFFF;stroke:#0070A2;stroke-width:1.1082;stroke-miterlimit:10;}
	.st83{fill:#ED1B2E;stroke:#0070A2;stroke-width:4.4327;stroke-miterlimit:10;}
	.st84{fill:url(#);stroke:#0070A2;stroke-width:4.4327;stroke-miterlimit:10;}
	.st85{fill:#0070A2;}
	.st86{clip-path:url(#SVGID_63_);}
	.st87{fill:#21A2DC;}
	.st88{fill:#1EA4DD;}
	.st89{fill:#1DA2DC;}
	.st90{fill:#1FA2DC;}
	.st91{fill:#229FD9;}
	.st92{fill:#2199D5;}
	.st93{fill:#20A3DC;}
	.st94{fill:#1CA1DB;}
	.st95{fill:#209FDA;}
	.st96{fill:#21A1DB;}
	.st97{fill:#1FA0DA;}
	.st98{fill:#1BA2DC;}
	.st99{fill:#1EA1DB;}
	.st100{fill:#20A1DB;}
	.st101{fill:#1F9ED9;}
	.st102{fill:#1D9CD7;}
	.st103{fill:#1E9DD8;}
	.st104{fill:#239ED9;}
	.st105{fill:#219ED9;}
	.st106{fill:#2698D4;}
	.st107{fill:#219CD7;}
	.st108{fill:#1F9BD7;}
	.st109{fill:#1D9DD9;}
	.st110{fill:#1E9FD9;}
	.st111{fill:#1C9CD8;}
	.st112{fill:#1F99D6;}
	.st113{fill:#209BD6;}
	.st114{fill:#209CD8;}
	.st115{fill:#239AD6;}
	.st116{fill:#2398D4;}
	.st117{fill:#1E9AD6;}
	.st118{fill:#2298D5;}
	.st119{fill:#219AD6;}
	.st120{fill:#19A0DB;}
	.st121{fill:#229BD7;}
	.st122{fill:#229DD8;}
	.st123{fill:#2E92D0;}
	.st124{fill:#388CCB;}
	.st125{fill:#2D93D0;}
	.st126{fill:#2796D3;}
	.st127{fill:#3390CE;}
	.st128{fill:#2B94D1;}
	.st129{fill:#368ECD;}
	.st130{fill:#3E86C6;}
	.st131{fill:#2896D3;}
	.st132{fill:#2C94D1;}
	.st133{fill:#2697D3;}
	.st134{fill:#2597D4;}
	.st135{fill:#3E84C5;}
	.st136{fill:#467BBD;}
	.st137{fill:#3F80C2;}
	.st138{fill:#2797D4;}
	.st139{fill:#3A8BCA;}
	.st140{fill:#358ECC;}
	.st141{fill:#3E83C4;}
	.st142{fill:#4180C2;}
	.st143{fill:#2D94D1;}
	.st144{fill:#2995D2;}
	.st145{fill:#2C95D2;}
	.st146{fill:#4976BA;}
	.st147{fill:#4D72B7;}
	.st148{fill:#358FCE;}
	.st149{fill:#2F91CF;}
	.st150{fill:#358FCD;}
	.st151{fill:#378CCB;}
	.st152{fill:#427EC0;}
	.st153{fill:#4082C3;}
	.st154{fill:#378DCC;}
	.st155{fill:#3B89C9;}
	.st156{fill:#398ACA;}
	.st157{fill:#3D87C7;}
	.st158{fill:#368BCB;}
	.st159{fill:#447DBF;}
	.st160{fill:#427FC0;}
	.st161{fill:#4181C3;}
	.st162{fill:#4876BA;}
	.st163{fill:#3C88C8;}
	.st164{fill:#3F85C6;}
	.st165{fill:#4082C4;}
	.st166{fill:#398AC9;}
	.st167{fill:#4779BC;}
	.st168{fill:#447CBE;}
	.st169{fill:#4A74B9;}
	.st170{fill:#4975B9;}
	.st171{fill:#4879BB;}
	.st172{fill:#447BBD;}
	.st173{fill:#4280C1;}
	.st174{fill:#417FC0;}
	.st175{fill:#4084C4;}
	.st176{fill:#4080C2;}
	.st177{fill:#4B74B8;}
	.st178{fill:#4C73B7;}
	.st179{fill:#4E71B6;}
	.st180{fill:#4D71B6;}
	.st181{fill:#4E72B6;}
	.st182{fill:#437EC0;}
	.st183{fill:#4E70B5;}
	.st184{fill:#4D6FB5;}
	.st185{fill:#4A73B8;}
	.st186{fill:#4F6CB3;}
	.st187{fill:#516AB1;}
	.st188{fill:#4E6EB4;}
	.st189{fill:#516BB2;}
	.st190{fill:#4F6FB5;}
	.st191{fill:#5367AF;}
	.st192{fill:#526AB1;}
	.st193{fill:#5368AF;}
	.st194{fill:#5466AE;}
	.st195{fill:#5364AD;}
	.st196{fill:#5661AB;}
	.st197{fill:#5168B0;}
	.st198{fill:#565DA9;}
	.st199{fill:#565FAA;}
	.st200{fill:#5758A6;}
	.st201{fill:#5465AE;}
	.st202{fill:#5662AC;}
	.st203{fill:#575EA9;}
	.st204{fill:#5463AD;}
	.st205{fill:#5858A6;}
	.st206{fill:#575BA7;}
	.st207{fill:#594EA0;}
	.st208{fill:#5A52A2;}
	.st209{fill:#5B4FA0;}
	.st210{fill:#5955A3;}
	.st211{fill:#59479C;}
	.st212{fill-rule:evenodd;clip-rule:evenodd;fill:#416CB3;}
	.st213{fill:#416CB3;}
	.st214{fill:#589241;}
	.st215{fill-rule:evenodd;clip-rule:evenodd;fill:#C3D82E;}
	.st216{fill-rule:evenodd;clip-rule:evenodd;fill:#1D421E;}
	.st217{fill-rule:evenodd;clip-rule:evenodd;fill:#16130C;}
	.st218{fill-rule:evenodd;clip-rule:evenodd;fill:#317137;}
	.st219{fill:#C3D82E;}
	.st220{fill:#A7CE38;}
	.st221{fill-rule:evenodd;clip-rule:evenodd;fill:#2B5529;}
	.st222{fill-rule:evenodd;clip-rule:evenodd;fill:#A0CC3A;}
	.st223{fill-rule:evenodd;clip-rule:evenodd;fill:#589241;}
	.st224{fill:#C4D82D;}
	.st225{fill-rule:evenodd;clip-rule:evenodd;fill:#D2DD26;}
	.st226{fill:#A0CC3A;}
	.st227{fill-rule:evenodd;clip-rule:evenodd;fill:#97C13C;}
	.st228{fill-rule:evenodd;clip-rule:evenodd;fill:#B4D234;}
	.st229{fill-rule:evenodd;clip-rule:evenodd;fill:#88AE3F;}
	.st230{fill-rule:evenodd;clip-rule:evenodd;fill:#3D7E3C;}
	.st231{fill:#CA3027;}
	.st232{fill:#97C13C;}
	.st233{fill:#3D7E3C;}
	.st234{fill-rule:evenodd;clip-rule:evenodd;fill:#E1E31F;}
	.st235{fill:#1D421E;}
	.st236{fill-rule:evenodd;clip-rule:evenodd;fill:#283B1A;}
	.st237{fill-rule:evenodd;clip-rule:evenodd;fill:#0D7B3E;}
	.st238{fill-rule:evenodd;clip-rule:evenodd;fill:#2C5025;}
	.st239{fill-rule:evenodd;clip-rule:evenodd;fill:#1D582C;}
	.st240{fill-rule:evenodd;clip-rule:evenodd;fill:#4D6A31;}
	.st241{fill-rule:evenodd;clip-rule:evenodd;fill:#89BE40;}
	.st242{fill-rule:evenodd;clip-rule:evenodd;fill:#54823B;}
	.st243{fill-rule:evenodd;clip-rule:evenodd;fill:#597E39;}
	.st244{fill:#E1E31F;}
	.st245{fill-rule:evenodd;clip-rule:evenodd;fill:#B1C135;}
	.st246{fill-rule:evenodd;clip-rule:evenodd;fill:#73963E;}
	.st247{fill-rule:evenodd;clip-rule:evenodd;fill:#498AC9;}
	.st248{fill:url(#SVGID_64_);}
	.st249{fill:url(#SVGID_65_);}
	.st250{fill:url(#SVGID_66_);}
	.st251{fill:url(#SVGID_67_);}
	.st252{fill:url(#SVGID_68_);}
	.st253{fill:url(#SVGID_69_);}
	.st254{fill:url(#SVGID_70_);}
	.st255{fill:url(#SVGID_71_);}
	.st256{fill:none;stroke:#606060;stroke-width:1.9932;stroke-miterlimit:10;}
	.st257{fill:none;stroke:#C4C4C4;stroke-miterlimit:10;}
</style>

<g class="currentLayer" style=""><title>Layer 1</title><g id="svg_1" class="">
	<g id="svg_2">
		<path class="st45" d="M88.89996337890625,38.200002670288086 c0,-7.599999904632568 3.200000047683716,-13.199999809265137 10,-16.5 l2.200000047683716,3.5999999046325684 c-4.900000095367432,3.0999999046325684 -6.800000190734863,7.300000190734863 -6.800000190734863,12.899999618530273 c0,5.599999904632568 1.899999976158142,9.800000190734863 6.800000190734863,12.899999618530273 l-2.200000047683716,3.5999999046325684 C92.20001220703125,51.39999961853027 88.89996337890625,45.80000114440918 88.89996337890625,38.200002670288086 z" id="svg_3"/>
		<path class="st45" d="M104.0999755859375,36.09999656677246 v-0.5 c0,-8.300000190734863 4.199999809265137,-13.800000190734863 10.600000381469727,-13.800000190734863 c6.300000190734863,0 10.5,5.5 10.5,13.699999809265137 v0.5 c0,8.300000190734863 -4.199999809265137,13.800000190734863 -10.600000381469727,13.800000190734863 S104.0999755859375,44.39999961853027 104.0999755859375,36.09999656677246 zM119.5,35.99999809265137 v-0.30000001192092896 c0,-5.699999809265137 -2,-8.699999809265137 -4.900000095367432,-8.699999809265137 c-2.9000000953674316,0 -4.800000190734863,3 -4.800000190734863,8.699999809265137 v0.30000001192092896 c0,5.699999809265137 2,8.699999809265137 4.900000095367432,8.699999809265137 C117.5999755859375,44.700002670288086 119.5,41.700002670288086 119.5,35.99999809265137 z" id="svg_4"/>
		<path class="st45" d="M128.29998779296875,44.80000114440918 l8,-8.199999809265137 c2.9000000953674316,-2.9000000953674316 3.9000000953674316,-4.400000095367432 3.9000000953674316,-6.400000095367432 c0,-2 -1.399999976158142,-3.200000047683716 -3.200000047683716,-3.200000047683716 c-1.899999976158142,0 -3.200000047683716,1.100000023841858 -5,3.200000047683716 l-3.5999999046325684,-3.4000000953674316 c2.4000000953674316,-3.200000047683716 5.099999904632568,-4.900000095367432 9,-4.900000095367432 c5,0 8.5,3 8.5,7.900000095367432 V29.899999618530273 c0,3.799999952316284 -1.7000000476837158,6 -5.800000190734863,9.899999618530273 l-4.5,4.599999904632568 h10.300000190734863 v5 h-17.600000381469727 V44.80000114440918 z" id="svg_5"/>
		<path class="st45" d="M149,51.09999656677246 c4.900000095367432,-3.0999999046325684 6.800000190734863,-7.300000190734863 6.800000190734863,-12.899999618530273 c0,-5.599999904632568 -1.899999976158142,-9.800000190734863 -6.800000190734863,-12.899999618530273 l2.200000047683716,-3.5999999046325684 c6.800000190734863,3.299999952316284 10,8.899999618530273 10,16.5 c0,7.5 -3.200000047683716,13.100000381469727 -10,16.5 L149,51.09999656677246 z" id="svg_6"/>
		<path class="st45" d="M172.89996337890625,45.99999809265137 l3.4000000953674316,-3.9000000953674316 c1.399999976158142,1.5 3.0999999046325684,2.5999999046325684 5.5,2.5999999046325684 c2.200000047683716,0 3.799999952316284,-1.399999976158142 3.799999952316284,-3.5 v-0.10000000149011612 c0,-2.299999952316284 -1.899999976158142,-3.700000047683716 -5.400000095367432,-3.700000047683716 h-1.600000023841858 L177.79998779296875,33.89999961853027 l6,-6.599999904632568 h-9.399999618530273 v-5 h16.299999237060547 v4.400000095367432 l-6.300000190734863,6.699999809265137 c3.5,0.699999988079071 6.699999809265137,2.9000000953674316 6.699999809265137,7.5 v0.10000000149011612 c0,5.199999809265137 -3.700000047683716,8.800000190734863 -9.199999809265137,8.800000190734863 C177.89996337890625,49.80000114440918 175,48.30000114440918 172.89996337890625,45.99999809265137 z" id="svg_7"/>
		<path class="st45" d="M207.5999755859375,38.39999961853027 c-1.2999999523162842,1 -2.9000000953674316,1.7000000476837158 -5,1.7000000476837158 c-4.800000190734863,0 -8.399999618530273,-3 -8.399999618530273,-8.699999809265137 v-0.10000000149011612 c0,-5.5 3.9000000953674316,-9.5 9.300000190734863,-9.5 c3,0 5,0.8999999761581421 6.699999809265137,2.5999999046325684 c1.899999976158142,1.899999976158142 3.0999999046325684,4.800000190734863 3.0999999046325684,10.399999618530273 v0.20000000298023224 c0,9.399999618530273 -3.9000000953674316,14.800000190734863 -10.800000190734863,14.800000190734863 c-3.0999999046325684,0 -5.5,-1 -7.699999809265137,-2.799999952316284 l2.700000047683716,-4.400000095367432 c1.600000023841858,1.2999999523162842 3.0999999046325684,2 5,2 C206.0999755859375,44.700002670288086 207.39996337890625,41.49999809265137 207.5999755859375,38.39999961853027 zM207.70001220703125,31.100000381469727 L207.70001220703125,31.100000381469727 c0,-2.700000047683716 -1.5,-4.400000095367432 -4,-4.400000095367432 c-2.5,0 -3.9000000953674316,1.7000000476837158 -3.9000000953674316,4.300000190734863 v0.10000000149011612 c0,2.5999999046325684 1.5,4.300000190734863 4,4.300000190734863 C206.29998779296875,35.39999961853027 207.70001220703125,33.69999885559082 207.70001220703125,31.100000381469727 z" id="svg_8"/>
		<path class="st45" d="M230.20001220703125,38.39999961853027 c-1.2999999523162842,1 -2.9000000953674316,1.7000000476837158 -5,1.7000000476837158 c-4.800000190734863,0 -8.399999618530273,-3 -8.399999618530273,-8.699999809265137 v-0.10000000149011612 c0,-5.5 3.9000000953674316,-9.5 9.300000190734863,-9.5 c3,0 5,0.8999999761581421 6.699999809265137,2.5999999046325684 c1.899999976158142,1.899999976158142 3.0999999046325684,4.800000190734863 3.0999999046325684,10.399999618530273 v0.20000000298023224 c0,9.399999618530273 -3.9000000953674316,14.800000190734863 -10.800000190734863,14.800000190734863 c-3.0999999046325684,0 -5.5,-1 -7.699999809265137,-2.799999952316284 l2.700000047683716,-4.400000095367432 c1.600000023841858,1.2999999523162842 3.0999999046325684,2 5,2 C228.5999755859375,44.700002670288086 230,41.49999809265137 230.20001220703125,38.39999961853027 zM230.29998779296875,31.100000381469727 L230.29998779296875,31.100000381469727 c0,-2.700000047683716 -1.5,-4.400000095367432 -4,-4.400000095367432 c-2.5,0 -3.9000000953674316,1.7000000476837158 -3.9000000953674316,4.300000190734863 v0.10000000149011612 c0,2.5999999046325684 1.5,4.300000190734863 4,4.300000190734863 C228.79998779296875,35.39999961853027 230.29998779296875,33.69999885559082 230.29998779296875,31.100000381469727 z" id="svg_9"/>
		<path class="st45" d="M252.20001220703125,27.80000114440918 l-4.099999904632568,1.100000023841858 l-0.8999999761581421,-4.900000095367432 l6.699999809265137,-2 h3.9000000953674316 v27.299999237060547 h-5.5 V27.80000114440918 z" id="svg_10"/>
		<path class="st45" d="M262.5,36.09999656677246 v-0.5 c0,-8.300000190734863 4.199999809265137,-13.800000190734863 10.600000381469727,-13.800000190734863 c6.300000190734863,0 10.5,5.5 10.5,13.699999809265137 v0.5 c0,8.300000190734863 -4.199999809265137,13.800000190734863 -10.600000381469727,13.800000190734863 C266.5999755859375,49.80000114440918 262.5,44.39999961853027 262.5,36.09999656677246 zM277.89996337890625,35.99999809265137 v-0.30000001192092896 c0,-5.699999809265137 -2,-8.699999809265137 -4.900000095367432,-8.699999809265137 c-2.9000000953674316,0 -4.800000190734863,3 -4.800000190734863,8.699999809265137 v0.30000001192092896 c0,5.699999809265137 2,8.699999809265137 4.900000095367432,8.699999809265137 C275.89996337890625,44.700002670288086 277.89996337890625,41.700002670288086 277.89996337890625,35.99999809265137 z" id="svg_11"/>
		<path class="st45" d="M287.0999755859375,36.09999656677246 v-0.5 c0,-8.300000190734863 4.199999809265137,-13.800000190734863 10.600000381469727,-13.800000190734863 c6.300000190734863,0 10.5,5.5 10.5,13.699999809265137 v0.5 c0,8.300000190734863 -4.199999809265137,13.800000190734863 -10.600000381469727,13.800000190734863 C291.20001220703125,49.80000114440918 287.0999755859375,44.39999961853027 287.0999755859375,36.09999656677246 zM302.49993896484375,35.99999809265137 v-0.30000001192092896 c0,-5.699999809265137 -2,-8.699999809265137 -4.900000095367432,-8.699999809265137 c-2.9000000953674316,0 -4.800000190734863,3 -4.800000190734863,8.699999809265137 v0.30000001192092896 c0,5.699999809265137 2,8.699999809265137 4.900000095367432,8.699999809265137 C300.49993896484375,44.700002670288086 302.49993896484375,41.700002670288086 302.49993896484375,35.99999809265137 z" id="svg_12"/>
		<path class="st45" d="M311.70001220703125,36.09999656677246 v-0.5 c0,-8.300000190734863 4.199999809265137,-13.800000190734863 10.600000381469727,-13.800000190734863 c6.300000190734863,0 10.5,5.5 10.5,13.699999809265137 v0.5 c0,8.300000190734863 -4.199999809265137,13.800000190734863 -10.600000381469727,13.800000190734863 C315.79998779296875,49.80000114440918 311.70001220703125,44.39999961853027 311.70001220703125,36.09999656677246 zM327.10003662109375,35.99999809265137 v-0.30000001192092896 c0,-5.699999809265137 -2,-8.699999809265137 -4.900000095367432,-8.699999809265137 c-2.9000000953674316,0 -4.800000190734863,3 -4.800000190734863,8.699999809265137 v0.30000001192092896 c0,5.699999809265137 2,8.699999809265137 4.900000095367432,8.699999809265137 C325.10003662109375,44.700002670288086 327.10003662109375,41.700002670288086 327.10003662109375,35.99999809265137 z" id="svg_13"/>
	</g>
	<g id="RzPAGd_3_">
		<g id="svg_14">
			<path class="st45" d="M0,16.69999885559082 c0.30000001192092896,-1.2999999523162842 0.5,-2.5999999046325684 0.800000011920929,-3.799999952316284 c0.30000001192092896,-1.100000023841858 0.8999999761581421,-2.0999999046325684 1.7000000476837158,-3 c0.20000000298023224,0.10000000149011612 0.30000001192092896,0.30000001192092896 0.4000000059604645,0.4000000059604645 c5.099999904632568,5.099999904632568 10.100000381469727,10.100000381469727 15.199999809265137,15.199999809265137 c0.30000001192092896,0.30000001192092896 0.4000000059604645,0.6000000238418579 0.30000001192092896,1.100000023841858 c-0.699999988079071,2.700000047683716 -0.20000000298023224,5.199999809265137 1.7000000476837158,7.300000190734863 c4.300000190734863,4.900000095367432 8.899999618530273,9.600000381469727 13.899999618530273,13.899999618530273 c2.0999999046325684,1.899999976158142 4.599999904632568,2.299999952316284 7.300000190734863,1.600000023841858 c0.4000000059604645,-0.10000000149011612 0.699999988079071,-0.10000000149011612 1,0.20000000298023224 c5.099999904632568,5.199999809265137 10.300000190734863,10.300000190734863 15.5,15.5 c0.10000000149011612,0.10000000149011612 0.10000000149011612,0.10000000149011612 0.20000000298023224,0.20000000298023224 c-0.800000011920929,0.8999999761581421 -1.899999976158142,1.399999976158142 -3,1.7999999523162842 c-2.700000047683716,0.8999999761581421 -5.5,0.8999999761581421 -8.300000190734863,0.6000000238418579 c-5.900000095367432,-0.699999988079071 -11.100000381469727,-3 -15.899999618530273,-6.300000190734863 c-9.800000190734863,-6.5 -17.899999618530273,-14.699999809265137 -24.399999618530273,-24.399999618530273 c-3.0999999046325684,-4.599999904632568 -5.300000190734863,-9.5 -6.099999904632568,-15 c-0.10000000149011612,-0.800000011920929 -0.20000000298023224,-1.7000000476837158 -0.30000001192092896,-2.5 C0,18.600000381469727 0,17.69999885559082 0,16.69999885559082 z" id="svg_15"/>
			<path class="st45" d="M13.89996337890625,0 c0.6000000238418579,0.4000000059604645 1.2000000476837158,0.699999988079071 1.7000000476837158,1.2000000476837158 c3.799999952316284,3.799999952316284 7.599999904632568,7.599999904632568 11.300000190734863,11.300000190734863 c1.399999976158142,1.399999976158142 1.5,2.700000047683716 0,4.099999904632568 c-1.899999976158142,1.899999976158142 -3.9000000953674316,3.700000047683716 -5.800000190734863,5.5 c-5,-5 -10.199999809265137,-10.199999809265137 -15.5,-15.5 c0.30000001192092896,-0.30000001192092896 0.699999988079071,-0.6000000238418579 1,-0.8999999761581421 c1.5,-1.399999976158142 2.9000000953674316,-2.9000000953674316 4.400000095367432,-4.300000190734863 c0.6000000238418579,-0.5 1.2000000476837158,-1 1.899999976158142,-1.399999976158142 C13.20001220703125,0 13.5999755859375,0 13.89996337890625,0 z" id="svg_16"/>
			<path class="st45" d="M45.70001220703125,46.700002670288086 c1.899999976158142,-2 3.799999952316284,-4 5.800000190734863,-6 c1.100000023841858,-1.2000000476837158 2.5,-1.100000023841858 3.700000047683716,0 c4,4 7.900000095367432,7.900000095367432 11.899999618530273,11.899999618530273 c1,1.100000023841858 1.2000000476837158,2.4000000953674316 0.20000000298023224,3.4000000953674316 c-2,2.0999999046325684 -4.099999904632568,4.099999904632568 -6.199999809265137,6.099999904632568 C55.89996337890625,56.99999809265137 50.70001220703125,51.80000114440918 45.70001220703125,46.700002670288086 z" id="svg_17"/>
		</g>
	</g>
	
</g></g></svg>
