<?xml version="1.0" encoding="utf-8"?>
<!-- Generator: Adobe Illustrator 22.0.1, SVG Export Plug-In . SVG Version: 6.00 Build 0)  -->
<svg version="1.1" id="Capa_1" xmlns="http://www.w3.org/2000/svg" xmlns:xlink="http://www.w3.org/1999/xlink" x="0px" y="0px"
	 viewBox="0 0 1100 124" style="enable-background:new 0 0 1092 124;" xml:space="preserve">
<style type="text/css">
	.st0{fill:#FFFFFF;}
	.st1{fill:#0071B4;}
	.st2{fill:#090A08;}
	.st3{fill:#ED1B2E;}
	.st4{fill:#B62F34;}
	.st5{fill:#E1B32D;}
	.st6{fill:#ECC324;}
	.st7{fill:#1F72AC;}
	.st8{fill:#0368A7;}
	.st9{clip-path:url(#SVGID_2_);}
	.st10{opacity:0.74;}
	.st11{fill:url(#SVGID_3_);}
	.st12{opacity:0.41;fill:url(#SVGID_4_);}
	.st13{opacity:0.41;fill:url(#SVGID_5_);}
	.st14{fill:#00558A;}
	.st15{clip-path:url(#SVGID_7_);}
	.st16{fill:url(#SVGID_8_);}
	.st17{opacity:0.41;fill:url(#SVGID_9_);}
	.st18{opacity:0.41;fill:url(#SVGID_10_);}
	.st19{clip-path:url(#SVGID_12_);}
	.st20{fill:url(#SVGID_13_);}
	.st21{opacity:0.41;fill:url(#SVGID_14_);}
	.st22{opacity:0.41;fill:url(#SVGID_15_);}
	.st23{clip-path:url(#SVGID_17_);}
	.st24{fill:url(#SVGID_18_);}
	.st25{opacity:0.41;fill:url(#SVGID_19_);}
	.st26{opacity:0.41;fill:url(#SVGID_20_);}
	.st27{clip-path:url(#SVGID_22_);}
	.st28{fill:url(#SVGID_23_);}
	.st29{opacity:0.41;fill:url(#SVGID_24_);}
	.st30{opacity:0.41;fill:url(#SVGID_25_);}
	.st31{fill:url(#SVGID_26_);}
	.st32{fill:#F2F2F2;}
	.st33{fill:url(#SVGID_27_);}
	.st34{fill:#E8E0E0;}
	.st35{fill:url(#SVGID_28_);}
	.st36{fill:#1DA1F2;}
	.st37{fill:url(#SVGID_29_);}
	.st38{fill:none;stroke:#999999;stroke-width:0.1279;}
	.st39{fill:none;stroke:#B3B3B3;stroke-width:1.279;stroke-miterlimit:10;}
	.st40{fill:url(#SVGID_30_);}
	.st41{fill:none;stroke:#CCCCCC;stroke-width:1.279;stroke-miterlimit:10;}
	.st42{fill:url(#SVGID_31_);}
	.st43{fill:url(#SVGID_32_);}
	.st44{fill:url(#SVGID_33_);}
	.st45{fill:#606060;}
	.st46{fill:none;stroke:#606060;stroke-width:1.0939;stroke-miterlimit:10;}
	.st47{clip-path:url(#SVGID_35_);}
	.st48{fill:url(#SVGID_36_);}
	.st49{opacity:0.41;fill:url(#SVGID_37_);}
	.st50{opacity:0.41;fill:url(#SVGID_38_);}
	.st51{clip-path:url(#SVGID_40_);}
	.st52{fill:url(#SVGID_41_);}
	.st53{opacity:0.41;fill:url(#SVGID_42_);}
	.st54{opacity:0.41;fill:url(#SVGID_43_);}
	.st55{clip-path:url(#SVGID_45_);}
	.st56{fill:url(#SVGID_46_);}
	.st57{opacity:0.41;fill:url(#SVGID_47_);}
	.st58{opacity:0.41;fill:url(#SVGID_48_);}
	.st59{clip-path:url(#SVGID_50_);}
	.st60{fill:url(#SVGID_51_);}
	.st61{opacity:0.41;fill:url(#SVGID_52_);}
	.st62{opacity:0.41;fill:url(#SVGID_53_);}
	.st63{clip-path:url(#SVGID_55_);}
	.st64{fill:url(#SVGID_56_);}
	.st65{opacity:0.41;fill:url(#SVGID_57_);}
	.st66{opacity:0.41;fill:url(#SVGID_58_);}
	.st67{opacity:0.41;fill:url(#SVGID_59_);}
	.st68{opacity:0.73;fill:#606060;}
	.st69{fill:none;}
	.st70{fill:#ABABAB;}
	.st71{fill:none;stroke:#606060;stroke-width:5;stroke-miterlimit:10;}
	.st72{fill:none;stroke:#DEDEDE;stroke-width:2;stroke-miterlimit:10;}
	.st73{opacity:0.17;}
	.st74{opacity:0.7;clip-path:url(#SVGID_61_);}
	.st75{fill:#004C89;stroke:#0070A2;stroke-width:4.4327;stroke-miterlimit:10;}
	.st76{fill:#0070A2;stroke:#0070A2;stroke-width:2.2164;stroke-miterlimit:10;}
	.st77{fill:#0070A2;stroke:#0070A2;stroke-width:1.1082;stroke-miterlimit:10;}
	.st78{fill:#0070A2;stroke:#0070A2;stroke-width:4.4327;stroke-miterlimit:10;}
	.st79{fill:none;stroke:#0070A2;stroke-width:2.2164;stroke-miterlimit:10;}
	.st80{fill:none;stroke:#0070A2;stroke-width:1.1082;stroke-miterlimit:10;}
	.st81{fill:none;stroke:#0070A2;stroke-width:4.4327;stroke-miterlimit:10;}
	.st82{fill:#FFFFFF;stroke:#0070A2;stroke-width:1.1082;stroke-miterlimit:10;}
	.st83{fill:#ED1B2E;stroke:#0070A2;stroke-width:4.4327;stroke-miterlimit:10;}
	.st84{fill:url(#);stroke:#0070A2;stroke-width:4.4327;stroke-miterlimit:10;}
	.st85{fill:#0070A2;}
	.st86{clip-path:url(#SVGID_63_);}
	.st87{fill:#21A2DC;}
	.st88{fill:#1EA4DD;}
	.st89{fill:#1DA2DC;}
	.st90{fill:#1FA2DC;}
	.st91{fill:#229FD9;}
	.st92{fill:#2199D5;}
	.st93{fill:#20A3DC;}
	.st94{fill:#1CA1DB;}
	.st95{fill:#209FDA;}
	.st96{fill:#21A1DB;}
	.st97{fill:#1FA0DA;}
	.st98{fill:#1BA2DC;}
	.st99{fill:#1EA1DB;}
	.st100{fill:#20A1DB;}
	.st101{fill:#1F9ED9;}
	.st102{fill:#1D9CD7;}
	.st103{fill:#1E9DD8;}
	.st104{fill:#239ED9;}
	.st105{fill:#219ED9;}
	.st106{fill:#2698D4;}
	.st107{fill:#219CD7;}
	.st108{fill:#1F9BD7;}
	.st109{fill:#1D9DD9;}
	.st110{fill:#1E9FD9;}
	.st111{fill:#1C9CD8;}
	.st112{fill:#1F99D6;}
	.st113{fill:#209BD6;}
	.st114{fill:#209CD8;}
	.st115{fill:#239AD6;}
	.st116{fill:#2398D4;}
	.st117{fill:#1E9AD6;}
	.st118{fill:#2298D5;}
	.st119{fill:#219AD6;}
	.st120{fill:#19A0DB;}
	.st121{fill:#229BD7;}
	.st122{fill:#229DD8;}
	.st123{fill:#2E92D0;}
	.st124{fill:#388CCB;}
	.st125{fill:#2D93D0;}
	.st126{fill:#2796D3;}
	.st127{fill:#3390CE;}
	.st128{fill:#2B94D1;}
	.st129{fill:#368ECD;}
	.st130{fill:#3E86C6;}
	.st131{fill:#2896D3;}
	.st132{fill:#2C94D1;}
	.st133{fill:#2697D3;}
	.st134{fill:#2597D4;}
	.st135{fill:#3E84C5;}
	.st136{fill:#467BBD;}
	.st137{fill:#3F80C2;}
	.st138{fill:#2797D4;}
	.st139{fill:#3A8BCA;}
	.st140{fill:#358ECC;}
	.st141{fill:#3E83C4;}
	.st142{fill:#4180C2;}
	.st143{fill:#2D94D1;}
	.st144{fill:#2995D2;}
	.st145{fill:#2C95D2;}
	.st146{fill:#4976BA;}
	.st147{fill:#4D72B7;}
	.st148{fill:#358FCE;}
	.st149{fill:#2F91CF;}
	.st150{fill:#358FCD;}
	.st151{fill:#378CCB;}
	.st152{fill:#427EC0;}
	.st153{fill:#4082C3;}
	.st154{fill:#378DCC;}
	.st155{fill:#3B89C9;}
	.st156{fill:#398ACA;}
	.st157{fill:#3D87C7;}
	.st158{fill:#368BCB;}
	.st159{fill:#447DBF;}
	.st160{fill:#427FC0;}
	.st161{fill:#4181C3;}
	.st162{fill:#4876BA;}
	.st163{fill:#3C88C8;}
	.st164{fill:#3F85C6;}
	.st165{fill:#4082C4;}
	.st166{fill:#398AC9;}
	.st167{fill:#4779BC;}
	.st168{fill:#447CBE;}
	.st169{fill:#4A74B9;}
	.st170{fill:#4975B9;}
	.st171{fill:#4879BB;}
	.st172{fill:#447BBD;}
	.st173{fill:#4280C1;}
	.st174{fill:#417FC0;}
	.st175{fill:#4084C4;}
	.st176{fill:#4080C2;}
	.st177{fill:#4B74B8;}
	.st178{fill:#4C73B7;}
	.st179{fill:#4E71B6;}
	.st180{fill:#4D71B6;}
	.st181{fill:#4E72B6;}
	.st182{fill:#437EC0;}
	.st183{fill:#4E70B5;}
	.st184{fill:#4D6FB5;}
	.st185{fill:#4A73B8;}
	.st186{fill:#4F6CB3;}
	.st187{fill:#516AB1;}
	.st188{fill:#4E6EB4;}
	.st189{fill:#516BB2;}
	.st190{fill:#4F6FB5;}
	.st191{fill:#5367AF;}
	.st192{fill:#526AB1;}
	.st193{fill:#5368AF;}
	.st194{fill:#5466AE;}
	.st195{fill:#5364AD;}
	.st196{fill:#5661AB;}
	.st197{fill:#5168B0;}
	.st198{fill:#565DA9;}
	.st199{fill:#565FAA;}
	.st200{fill:#5758A6;}
	.st201{fill:#5465AE;}
	.st202{fill:#5662AC;}
	.st203{fill:#575EA9;}
	.st204{fill:#5463AD;}
	.st205{fill:#5858A6;}
	.st206{fill:#575BA7;}
	.st207{fill:#594EA0;}
	.st208{fill:#5A52A2;}
	.st209{fill:#5B4FA0;}
	.st210{fill:#5955A3;}
	.st211{fill:#59479C;}
	.st212{fill-rule:evenodd;clip-rule:evenodd;fill:#416CB3;}
	.st213{fill:#416CB3;}
	.st214{fill:#589241;}
	.st215{fill-rule:evenodd;clip-rule:evenodd;fill:#C3D82E;}
	.st216{fill-rule:evenodd;clip-rule:evenodd;fill:#1D421E;}
	.st217{fill-rule:evenodd;clip-rule:evenodd;fill:#16130C;}
	.st218{fill-rule:evenodd;clip-rule:evenodd;fill:#317137;}
	.st219{fill:#C3D82E;}
	.st220{fill:#A7CE38;}
	.st221{fill-rule:evenodd;clip-rule:evenodd;fill:#2B5529;}
	.st222{fill-rule:evenodd;clip-rule:evenodd;fill:#A0CC3A;}
	.st223{fill-rule:evenodd;clip-rule:evenodd;fill:#589241;}
	.st224{fill:#C4D82D;}
	.st225{fill-rule:evenodd;clip-rule:evenodd;fill:#D2DD26;}
	.st226{fill:#A0CC3A;}
	.st227{fill-rule:evenodd;clip-rule:evenodd;fill:#97C13C;}
	.st228{fill-rule:evenodd;clip-rule:evenodd;fill:#B4D234;}
	.st229{fill-rule:evenodd;clip-rule:evenodd;fill:#88AE3F;}
	.st230{fill-rule:evenodd;clip-rule:evenodd;fill:#3D7E3C;}
	.st231{fill:#CA3027;}
	.st232{fill:#97C13C;}
	.st233{fill:#3D7E3C;}
	.st234{fill-rule:evenodd;clip-rule:evenodd;fill:#E1E31F;}
	.st235{fill:#1D421E;}
	.st236{fill-rule:evenodd;clip-rule:evenodd;fill:#283B1A;}
	.st237{fill-rule:evenodd;clip-rule:evenodd;fill:#0D7B3E;}
	.st238{fill-rule:evenodd;clip-rule:evenodd;fill:#2C5025;}
	.st239{fill-rule:evenodd;clip-rule:evenodd;fill:#1D582C;}
	.st240{fill-rule:evenodd;clip-rule:evenodd;fill:#4D6A31;}
	.st241{fill-rule:evenodd;clip-rule:evenodd;fill:#89BE40;}
	.st242{fill-rule:evenodd;clip-rule:evenodd;fill:#54823B;}
	.st243{fill-rule:evenodd;clip-rule:evenodd;fill:#597E39;}
	.st244{fill:#E1E31F;}
	.st245{fill-rule:evenodd;clip-rule:evenodd;fill:#B1C135;}
	.st246{fill-rule:evenodd;clip-rule:evenodd;fill:#73963E;}
	.st247{fill-rule:evenodd;clip-rule:evenodd;fill:#498AC9;}
	.st248{fill:url(#SVGID_64_);}
	.st249{fill:url(#SVGID_65_);}
	.st250{fill:url(#SVGID_66_);}
	.st251{fill:url(#SVGID_67_);}
	.st252{fill:url(#SVGID_68_);}
	.st253{fill:url(#SVGID_69_);}
	.st254{fill:url(#SVGID_70_);}
	.st255{fill:url(#SVGID_71_);}
	.st256{fill:none;stroke:#606060;stroke-width:1.9932;stroke-miterlimit:10;}
	.st257{fill:none;stroke:#C4C4C4;stroke-miterlimit:10;}
</style>
<g>
	<g>
		<path class="st45" d="M814.1,67.3c0-7.6,3.2-13.2,10-16.5l2.2,3.6c-4.9,3.1-6.8,7.3-6.8,12.9c0,5.6,1.9,9.8,6.8,12.9l-2.2,3.6
			C817.4,80.5,814.1,74.9,814.1,67.3z"/>
		<path class="st45" d="M829.3,65.2v-0.5c0-8.3,4.2-13.8,10.6-13.8c6.3,0,10.5,5.5,10.5,13.7v0.5c0,8.3-4.2,13.8-10.6,13.8
			S829.3,73.5,829.3,65.2z M844.7,65.1v-0.3c0-5.7-2-8.7-4.9-8.7c-2.9,0-4.8,3-4.8,8.7v0.3c0,5.7,2,8.7,4.9,8.7
			C842.8,73.8,844.7,70.8,844.7,65.1z"/>
		<path class="st45" d="M853.5,73.9l8-8.2c2.9-2.9,3.9-4.4,3.9-6.4c0-2-1.4-3.2-3.2-3.2c-1.9,0-3.2,1.1-5,3.2l-3.6-3.4
			c2.4-3.2,5.1-4.9,9-4.9c5,0,8.5,3,8.5,7.9V59c0,3.8-1.7,6-5.8,9.9l-4.5,4.6h10.3v5h-17.6V73.9z"/>
		<path class="st45" d="M874.2,80.2c4.9-3.1,6.8-7.3,6.8-12.9c0-5.6-1.9-9.8-6.8-12.9l2.2-3.6c6.8,3.3,10,8.9,10,16.5
			c0,7.5-3.2,13.1-10,16.5L874.2,80.2z"/>
		<path class="st45" d="M898.1,75.1l3.4-3.9c1.4,1.5,3.1,2.6,5.5,2.6c2.2,0,3.8-1.4,3.8-3.5v-0.1c0-2.3-1.9-3.7-5.4-3.7h-1.6L903,63
			l6-6.6h-9.4v-5h16.3v4.4l-6.3,6.7c3.5,0.7,6.7,2.9,6.7,7.5v0.1c0,5.2-3.7,8.8-9.2,8.8C903.1,78.9,900.2,77.4,898.1,75.1z"/>
		<path class="st45" d="M932.8,67.5c-1.3,1-2.9,1.7-5,1.7c-4.8,0-8.4-3-8.4-8.7v-0.1c0-5.5,3.9-9.5,9.3-9.5c3,0,5,0.9,6.7,2.6
			c1.9,1.9,3.1,4.8,3.1,10.4v0.2c0,9.4-3.9,14.8-10.8,14.8c-3.1,0-5.5-1-7.7-2.8l2.7-4.4c1.6,1.3,3.1,2,5,2
			C931.3,73.8,932.6,70.6,932.8,67.5z M932.9,60.2L932.9,60.2c0-2.7-1.5-4.4-4-4.4c-2.5,0-3.9,1.7-3.9,4.3v0.1c0,2.6,1.5,4.3,4,4.3
			C931.5,64.5,932.9,62.8,932.9,60.2z"/>
		<path class="st45" d="M955.4,67.5c-1.3,1-2.9,1.7-5,1.7c-4.8,0-8.4-3-8.4-8.7v-0.1c0-5.5,3.9-9.5,9.3-9.5c3,0,5,0.9,6.7,2.6
			c1.9,1.9,3.1,4.8,3.1,10.4v0.2c0,9.4-3.9,14.8-10.8,14.8c-3.1,0-5.5-1-7.7-2.8l2.7-4.4c1.6,1.3,3.1,2,5,2
			C953.8,73.8,955.2,70.6,955.4,67.5z M955.5,60.2L955.5,60.2c0-2.7-1.5-4.4-4-4.4c-2.5,0-3.9,1.7-3.9,4.3v0.1c0,2.6,1.5,4.3,4,4.3
			C954,64.5,955.5,62.8,955.5,60.2z"/>
		<path class="st45" d="M977.4,56.9l-4.1,1.1l-0.9-4.9l6.7-2h3.9v27.3h-5.5V56.9z"/>
		<path class="st45" d="M987.7,65.2v-0.5c0-8.3,4.2-13.8,10.6-13.8c6.3,0,10.5,5.5,10.5,13.7v0.5c0,8.3-4.2,13.8-10.6,13.8
			C991.8,78.9,987.7,73.5,987.7,65.2z M1003.1,65.1v-0.3c0-5.7-2-8.7-4.9-8.7c-2.9,0-4.8,3-4.8,8.7v0.3c0,5.7,2,8.7,4.9,8.7
			C1001.1,73.8,1003.1,70.8,1003.1,65.1z"/>
		<path class="st45" d="M1012.3,65.2v-0.5c0-8.3,4.2-13.8,10.6-13.8c6.3,0,10.5,5.5,10.5,13.7v0.5c0,8.3-4.2,13.8-10.6,13.8
			C1016.4,78.9,1012.3,73.5,1012.3,65.2z M1027.7,65.1v-0.3c0-5.7-2-8.7-4.9-8.7c-2.9,0-4.8,3-4.8,8.7v0.3c0,5.7,2,8.7,4.9,8.7
			C1025.7,73.8,1027.7,70.8,1027.7,65.1z"/>
		<path class="st45" d="M1036.9,65.2v-0.5c0-8.3,4.2-13.8,10.6-13.8c6.3,0,10.5,5.5,10.5,13.7v0.5c0,8.3-4.2,13.8-10.6,13.8
			C1041,78.9,1036.9,73.5,1036.9,65.2z M1052.3,65.1v-0.3c0-5.7-2-8.7-4.9-8.7c-2.9,0-4.8,3-4.8,8.7v0.3c0,5.7,2,8.7,4.9,8.7
			C1050.3,73.8,1052.3,70.8,1052.3,65.1z"/>
	</g>
	<g id="RzPAGd_3_">
		<g>
			<path class="st45" d="M725.2,45.8c0.3-1.3,0.5-2.6,0.8-3.8c0.3-1.1,0.9-2.1,1.7-3c0.2,0.1,0.3,0.3,0.4,0.4
				c5.1,5.1,10.1,10.1,15.2,15.2c0.3,0.3,0.4,0.6,0.3,1.1c-0.7,2.7-0.2,5.2,1.7,7.3c4.3,4.9,8.9,9.6,13.9,13.9
				c2.1,1.9,4.6,2.3,7.3,1.6c0.4-0.1,0.7-0.1,1,0.2c5.1,5.2,10.3,10.3,15.5,15.5c0.1,0.1,0.1,0.1,0.2,0.2c-0.8,0.9-1.9,1.4-3,1.8
				c-2.7,0.9-5.5,0.9-8.3,0.6c-5.9-0.7-11.1-3-15.9-6.3c-9.8-6.5-17.9-14.7-24.4-24.4c-3.1-4.6-5.3-9.5-6.1-15
				c-0.1-0.8-0.2-1.7-0.3-2.5C725.2,47.7,725.2,46.8,725.2,45.8z"/>
			<path class="st45" d="M739.1,29.1c0.6,0.4,1.2,0.7,1.7,1.2c3.8,3.8,7.6,7.6,11.3,11.3c1.4,1.4,1.5,2.7,0,4.1
				c-1.9,1.9-3.9,3.7-5.8,5.5c-5-5-10.2-10.2-15.5-15.5c0.3-0.3,0.7-0.6,1-0.9c1.5-1.4,2.9-2.9,4.4-4.3c0.6-0.5,1.2-1,1.9-1.4
				C738.4,29.1,738.8,29.1,739.1,29.1z"/>
			<path class="st45" d="M770.9,75.8c1.9-2,3.8-4,5.8-6c1.1-1.2,2.5-1.1,3.7,0c4,4,7.9,7.9,11.9,11.9c1,1.1,1.2,2.4,0.2,3.4
				c-2,2.1-4.1,4.1-6.2,6.1C781.1,86.1,775.9,80.9,770.9,75.8z"/>
		</g>
	</g>
	
</g>
</svg>
