<?xml version="1.0" encoding="utf-8"?>
<!-- Generator: Adobe Illustrator 22.0.1, SVG Export Plug-In . SVG Version: 6.00 Build 0)  -->
<svg version="1.1" id="Capa_1" xmlns="http://www.w3.org/2000/svg" xmlns:xlink="http://www.w3.org/1999/xlink" x="0px" y="0px"
	 viewBox="0 0 150 150" style="enable-background:new 0 0 294 275;" xml:space="preserve">
<style type="text/css">
	.st0{fill:#1A2C66;}
	.st1{fill:#000000;}
</style>
<g
   id="g48"
    transform="translate(-73,-10)"
    >	
		<path
   class="st0"
   d="M90.8,156h115.7c7.4,0,13.4-6,13.4-13.4v-116c0-7.4-6-13.4-13.4-13.4H90.9c-7.4,0-13.4,6-13.4,13.4v116    C77.5,150,83.5,156,90.8,156z M86.4,26.7c0-2.5,2-4.5,4.5-4.5h115.7c2.5,0,4.5,2,4.5,4.5v116c0,2.4-2,4.4-4.4,4.4H90.8    c-2.4,0-4.4-2-4.4-4.4V26.7z"
   id="path4" />
		<rect
   x="95.8"
   y="41.1"
   class="st0"
   width="61.8"
   height="8.9"
   id="rect6" />
		<rect
   x="95.8"
   y="68.5"
   class="st0"
   width="61.8"
   height="8.9"
   id="rect8" />
		<rect
   x="95.8"
   y="94.1"
   class="st0"
   width="61.8"
   height="8.9"
   id="rect10" />
		<rect
   x="95.8"
   y="120.8"
   class="st0"
   width="61.8"
   height="8.9"
   id="rect12" />
		<polygon
   class="st0"
   points="200.9,38.7 194.8,32.1 175.6,49.6 170.1,44.2 163.8,50.6 175.4,61.9   "
   id="polygon14" />
		<polygon
   class="st0"
   points="200.9,64.5 194.8,57.9 175.6,75.4 170.1,70 163.8,76.4 175.4,87.7   "
   id="polygon16" />
		<polygon
   class="st0"
   points="200.9,90.3 194.8,83.7 175.6,101.2 170.1,95.8 163.8,102.2 175.4,113.5   "
   id="polygon18" />
		<polygon
   class="st0"
   points="200.9,116.1 194.8,109.5 175.6,127 170.1,121.6 163.8,128 175.4,139.3   "
   id="polygon20" />	
</g>
</svg>
