<svg id="Capa_1" data-name="Capa 1" xmlns="http://www.w3.org/2000/svg" viewBox="0 0 256 256"><defs><style>.cls-1{fill:#1a2c66;}</style></defs><title>ICON APP</title><g id="_Grupo_" data-name="&lt;Grupo&gt;"><path id="_Trazado_" data-name="&lt;Trazado&gt;" class="cls-1" d="M129.53,241.65a14.35,14.35,0,1,1-14.35-14.35A14.35,14.35,0,0,1,129.53,241.65Z"/><path id="_Trazado_2" data-name="&lt;Trazado&gt;" class="cls-1" d="M167.34,239.76a13.09,13.09,0,1,1-13.09-13.09A13.1,13.1,0,0,1,167.34,239.76Z"/><path id="_Trazado_3" data-name="&lt;Trazado&gt;" class="cls-1" d="M196.84,226.84a9.94,9.94,0,1,1-9.94-9.93A9.94,9.94,0,0,1,196.84,226.84Z"/><path id="_Trazado_4" data-name="&lt;Trazado&gt;" class="cls-1" d="M218.89,207.94a8.68,8.68,0,1,1-8.67-8.68A8.68,8.68,0,0,1,218.89,207.94Z"/><path id="_Trazado_5" data-name="&lt;Trazado&gt;" class="cls-1" d="M76.44,242.63a14.44,14.44,0,0,1-2.39-1.2c-29.27-15-50.67-39.27-62-70.57-8.95-24.63-8.53-45.11-8.51-46H4c0-.2,0-.4,0-.6,0-.46,0-.9,0-1.36A124.41,124.41,0,0,1,128.24,0C186.71,0,235.82,40.6,249,95.08A109.35,109.35,0,0,0,55.43,60.13a96.69,96.69,0,0,0-24.29,62.81c0,.46,0,.9,0,1.36s0,.84,0,1.25h.07a111.76,111.76,0,0,0,7.19,36.77c9.12,24.43,25.33,42.72,48.21,54.41a14.35,14.35,0,0,1,3.56,1.74l.14.07v0a13.65,13.65,0,0,1,6,11.24c0,7.64-6.47,13.85-14.45,13.85a15.29,15.29,0,0,1-3.12-.33Z"/><path id="_Trazado_6" data-name="&lt;Trazado&gt;" class="cls-1" d="M252.48,122.15c0-.18,0-.36,0-.54a13.55,13.55,0,0,0-.08-1.43A124.23,124.23,0,0,0,249,95.08,109.35,109.35,0,0,0,55.43,60.13a97,97,0,0,1,169.86,61.26c0,.07,0,.15,0,.22,0,.24,0,.48,0,.72s0,.41,0,.61h0a13.61,13.61,0,0,0,27.09,0h.06C252.5,122.68,252.48,122.41,252.48,122.15Z"/><g id="_Grupo_2" data-name="&lt;Grupo&gt;"><polygon id="_Trazado_7" data-name="&lt;Trazado&gt;" class="cls-1" points="116.08 117.27 93.1 117.27 93.1 161.63 73.7 161.63 73.7 117.27 49.73 117.27 49.73 98.79 116.08 98.79 116.08 117.27"/><polygon id="_Trazado_8" data-name="&lt;Trazado&gt;" class="cls-1" points="211.69 162.06 168.28 162.06 168.28 98.78 187.56 98.78 187.56 143.18 211.69 143.18 211.69 162.06"/><polygon id="_Trazado_9" data-name="&lt;Trazado&gt;" class="cls-1" points="166.13 98.78 137.92 162.42 124.13 162.42 95.82 98.78 116.77 98.78 130.97 130.01 145.28 98.78 166.13 98.78"/></g></g></svg>